<mxfile host="app.diagrams.net" modified="2023-08-09T13:51:12.678Z" agent="Mozilla/5.0 (Windows NT 10.0; Win64; x64) AppleWebKit/537.36 (KHTML, like Gecko) Chrome/115.0.0.0 Safari/537.36" etag="4q_tLKwgrc1yr-d7imV_" version="21.6.6" type="device">
  <diagram name="PÃ¡gina-1" id="y9pvSzvRq9HviQcRKiCf">
    <mxGraphModel dx="2625" dy="2604" grid="0" gridSize="10" guides="1" tooltips="1" connect="1" arrows="1" fold="1" page="1" pageScale="1" pageWidth="827" pageHeight="1169" math="0" shadow="0">
      <root>
        <mxCell id="0" />
        <mxCell id="1" parent="0" />
        <mxCell id="3EObn2wX0_K3Knupwm0a-3" value="" style="shape=image;verticalLabelPosition=bottom;labelBackgroundColor=default;verticalAlign=top;aspect=fixed;imageAspect=0;image=data:image/png,iVBORw0KGgoAAAANSUhEUgAAAxMAAAGCCAYAAACb/56fAAAAAXNSR0IArs4c6QAAAARnQU1BAACxjwv8YQUAAAAJcEhZcwAADsMAAA7DAcdvqGQAAPAISURBVHhe7J0H3NXTH8dP9iaJIlJKZiGJRGQrQjKSkb2zlZWVHTITGaUyMpL5tyORHRmVmZ2skH3+5/29v/P4PT/33uc+t6Een/frdeu5v3HG93zPOd/vWbeWDzghhBBCCCGEqCbzJP8LIYQQQgghRLWQMyGEEEIIIYQoCzkTQgghhBBCiLKQMyGEEEIIIYQoCzkTQgghhBBCiLKQMyGEEEIIIYQoCzkTQgghhBBCiLKQMyGEEEIIIYQoCzkTQgghhBBCiLKQMyGEEEIIIYQoCzkTQgghhBBCiLKQMyGEEEIIIYQoCzkTQgghhBBCiLKQMyGEEEIIIYQoCzkTQgghhBBCiLKosc7ETz/95MaOHeseeugh9+yzz7pvvvkmuVOZu+66y+21115uv/32c48++qjz3id3xNzM9OnT3S677OKWWWYZt9xyy7lrrrkmuSOEEEIIIWYWNc6Z+Prrr93ZZ5/tVl55Zde6dWu3/fbbu0022cTVrVvXdenSxb3zzjsVDsNff/3levfu7YYOHepuueUW16dPH/frr7/aveqC8/LFF1+4KVOmuD///DO5WvNBfquttppr1qyZO/LII91vv/2W3PkbZNq9e3d7ZvXVV3ennHKK+/3335O7f0N5HHXUUfZc8+bN3WOPPZbcqT5//PGHmzhxops6dar76quv3GeffZbcEUIIIYQQM4sa5Uww+9C5c2d35plnmlORBkN1+PDhNgvx448/JlfdTDH8MZb32GMPt/7669vnzjvvTO7UfCZPnuzeffddN2HCBHffffdVkm3ktddec7fddps9gzM3ZMgQN23atOTu32Dw49jx3Jtvvlm2YyeEEEIIIWYPNcaZwCno27evGzVqlM08LLjggq5bt27uuuuuc/369XO77babLXnB2I0OxDzzzON69uxpy2F23313d/LJJ9t71YXw3nvvPffpp5+6jz/+2P7/r4DzFGEWYNKkScm3HJTFgw8+6H755ZfkirPZG5yKLKNHj3bfffed/c3SpPXWW8/+FkIIIYQQcyY1xplgFJv9EZEOHTq4QYMGuYMPPtiWzjAyzgh5r1693GKLLZY85dw+++xjMxbDhg1z2223natVq1ZyR5RCq1atKmT2888/m0OQBieCvShp2M/w+OOPJ99yMHN0//332/+wwQYbuHr16tnfQgghhBBizqTGOBOswf/hhx+Sb84tu+yyFUYu//NZYYUVbKP1fPPNZ9cBJwKHYv/9969kzDKi/vrrr9v1tdZayy2//PJuxRVXNOP5+OOPt7h49vLLL7f9AOnZCJbq7Lnnnm7vvfd2L7/8cnI1BzMY7C1o2bKla9CggX3WWWcdd+CBB7rx48cnT/0NezkIhzhZxsWmcmZSGjVqZO9uttlm7u6777a0IIOrr77abbzxxpbXVVZZxZ4lH1nY28ByLJZntWjRwsIij+xp2GmnnSo5ZsVo0qSJ7U+JPPDAA5X2Q7DcjL0LWVgShVMRQZ5RVpTVlltuWVF+QHm8/fbb7vDDDzd5Rdmtu+667ogjjnAffPBB8mRhnn76adepUyfXuHFjkw9lecEFF2g5lRBCCCFEuQQjrUYQjFEfDGF2VtunYcOG/tVXX/XBsE2eyM8OO+xQ8c6+++7r//jjD7v+7rvv+uA8VNxLfxZccEH/zDPP+J9//tkHQzzvM/Fz6aWXWnjB2PfBWPYrrbRS3uf4BKPcv/HGG/ZsJKZv4YUXtrAWXXTRf7w377zz+uAU+eCk+Hnmmecf94Px7D/66KMkRO+DI+G7dev2j+fSn0UWWcQ/+OCDldJSiIMPPrjivaWXXtoHxyq5401OyIt7Sy21lKU1hj9hwoTkqZy8l1hiCbu30EIL+eeeey65k5PdK6+84oPzUBFP9rPccsvZMxH0ITiBFfc32GADizP9Dp/gsPhjjz3WB4cieVMIIYQQQpRKjZmZCAaozSBEgvFso/bMLDAbEPKa3Kka9kCwHIrNxcCMxGmnnWbX4rIenllggQVsVD8Yybb/IhIMf7vGCVKcTARsOD7ooINsTwUEZ8edfvrp7sQTT7T9AfDhhx/aLETcN5CG5UKnnnqqnRpFXOnZFdLCci5mJZihmH/++SuN6r///vuuf//+FbMuhPXiiy/a36STWZGLLrrIRvjjEjCWLLGHJD3bU4idd97Z4oRvv/220kxEcOgqZiqYAYpLlwg/OE72N1BGcaYiOCSVZjs++eQTm2Hhf6A8kAWyQ8bw5Zdf2rVCMKNDnBDTCujFlVde6Z588snkihBCCCGEKBlzKWoIwUDOO/IfDGQbPX/99deTJ/8m38xEMIgrZiWCw+AfffTR5OncKDkzHt9//31yxftg4FeaFbnkkkuSO38zZMgQH4xYu1+nTh2bgYiMGTPGL7744naPUfxRo0Yldyqnj1H9Ll26+GB4++Bw+E6dOlXc40M+mb0gPaSRmY54b4sttvDBibAwGYXv2bOnv+KKK3xwcuxaZMCAARWzB8wUTJo0KblTmM8++8zXr1+/Iq5+/frZdWRFernGbAP52nTTTSueC86ZPQfnnnuuzRJwvUOHDpVmCi677LKKd5o2beqDU2HXCf+JJ56wfHMPGY4fP97uZWcmCDvKLjgtlvf0TEVwpOw9IYQQQghROjVmZgI4Wejhhx+2/RJpOMEpGMn2exPB+EyuFiY98s/eAtbVx9kCRvxZsx8MbfteCswIsPchjtBzPG16FmXttde2dfzAM2+99Zb9naVdu3a2qZxnl1xySXf00UdXzIjwf3Ak3LHHHuuCkWxpZH9AhP0W8RQrZlTOP/9825ie3owO7EGII/f8VkMczS8GsxvpmQQ2ugMye+GFF+xv9mNQPukTmtL7SZ555hmbJUC+HO9LGiPpWYNtt93WBcfF/uZZZIL8gNmf5557zv7OgizYH4PsmMVilih9ElW+fSVCCCGEEKI4NcqZADYQs5GZpStrrrlmpeU+LNnZdddd3UsvvZRcyQ8GNgZ/NNQ5eYgfZmNT9SOPPFJhlJcK8aYdBAzsfffdt+JzyCGHuM8//9zu4XhwxGo+WN6TXqKD0xSPssX4xhFIk3aqSDPGehqWTHFsKz/Wx8ZmloSdddZZlTZQZ9/JB2lg+Vdk3Lhxlg9+KyL+WBwGP8u/Nt9884oyoZxwOFiiFJc81a5d222xxRb2NxAOy7QinBbFhvcoO/5mSVuk0LG86MK8886bfMstdUJXIqRBCCGEEEJUjxrnTAC/J8GJSazXv+KKK+zUnwhr+jltqRg4EewX2GGHHSpGyDE2OV6WkXH2J+T70bVCsBcAwz2CM8EMQ/zwI278SjNgaKcdhmIwexIdnnyk91WkwUBnJoCReY7QZT/Itdde62666SY70aq6zhJpaN++fYWTwMlK7G/gNz+Y3YDo6OB0RCeHPLN3A6eDXw8H9pistNJK9jewvyP9Q3ivvPJKJdnxSf+6NbMOpUCa69Spk3zLzUAJIYQQQojqUSOdiQhGOU7FPffcY8uCIhikVcHsBEb+yJEjXdu2bSsZ7TfffLON5pcyag+8G0fFMbg5jvXiiy/O+2FGhU3YsxIMfWZe4g/HsUSpR48etpyLZVKlOjNpWrduXeEk4LDhSLDpOcJRuMBm8/g3MyCUDY4NDg4QThrSkp5RYLlSPrnxYSkby5dKgbJLOynpZVVCCCGEEKI0arQzEeH3FuKpP1BoxD7Loosu6rbeemszdlm3zw+pAYYvjgZGcyS9nCqOxkcIh+U7gBHbtGlTd8IJJ+T9cKLSrP6xNn7jIX0yEvnj9zKYjeFXw0uVTxocibjUiTzy2xf8LgSQ/zXWWMP+xrHilK0or6eeesrij+RzJtiTEWFp0nHHHZdXdjgSnASVD37vIj3jgiMzYcKE5FvOyRFCCCGEENWjxjgTrKtnBoElRNkZA44dTS+FiRt2C4HRydr89N6BTTfd1Ebu4wg2y5bij50xcp4ePWd/RBxpB2Y50nsKbr31VtsQ/W/x7rvvVsiIH51jc3QkvVG7OuAksNchOgn86F38ITn2K/AjcRFkEWc/MOjHjBljf7NEKb1BO5Le28D+FZY+VZcbbrjBZpRivjm+NsYL6Q3xQgghhBCiNGqMMzFlyhTbWM2JTZxkxIlA/Nr19ttv77bZZpuKU4k46YhN2MVg/T77JTbccEN34YUXmgHLr0WfccYZFWvrV1111YoRcxyMtEE+fPhwi4MlOSyTAk5OWnzxxe1vjOzddtvNnAp+lZkTqPr16+e6dOniNtpoo4r9E7MKNpNHo//555+335ggj71797blT+XuH8BJiBvCMfjjDA37MuJ14ESleBoWjkv8fYnmzZtX2i8R4Re5Y3pZokbZIjuWUuG0cIoVv0PBc4UgHspgu+22Mznj+Hz//fd2D0eI8hZCCCGEENXE1xAmTpxov4JMlgp9+F2B0047zX4BOpLvdyaCM+GXXXbZSu+mP/z+wiOPPJKEkIPfLQhG6T+e7du3r90nzkMOOcTPN998/3gm/eE3KCZPnmzvQL70Rd5+++2KX8Tmdxz4nY00wRGqeDcY6v7HH3+06/wa9gorrFBxL/1BRsFJqvg7329zFIJfvq5Xr16l8EjX6NGjkydyBMfOt23bttJzwVnw559/fvJEZfh9jL333rtK2a2xxhrJG5V/Z2L++ef3TZo0+cfzfCizPfbYo+I3OIQQQgghROnUmJkJRrtvv/1216ZNm0r7FyIsY+E+o+/pDcZsPmaJEkts2FvBu5wGddlll+VdR8/IOctl0seXAiP6HTt2rBQ3MxbMAgBxBsfCXXXVVQXX9XOd0fP0/o586Yswus+eB0bWSWv6dCJgtoSZGN7nF7fjUixOtxo4cGClU66A59kLsvvuu9uzzLxkf4eiGOyb4JjbOOtAnpkpyi4rIy/HH3+87Q0hP8TFaU8cvZsPZjU4bYpN1pRNPkjrAQcckHzL7YuJeWaJ1R133GFpQ1YR/ubXv6+77rpKMydCCCGEEKI0auFRJH/XCFjOwilFHDfKBmkMW9bcs4QmGtOlwvGvHF364Ycf2vdGjRrZJmw2FOeDfRIsG2LjMYYqRjR7ANIGLLDkiiVZLHdi3wUnTWH4kkaM/9kFv3/BUiGWdeGIsDE6bhSfU4llMnny5ArZUS4tWrSo0iFAN9ALfqAOJ4ZTpeLGcCGEEEIIUX1qnDMhhBBCCCGEmD3UCGeCTc5xo7MQMwJH8zLLIYQQQgghqqZGOBNnnnmmO+uss5JvQpQPv8Ghk52EEEIIIUqjRjgTn3/+uX2EmFHY5J7+tXQhhBBCCFEY7ZkQQgghhBBClEWNORpWCCGEEEIIMXuRMyGEEEIIIYQoCzkTQgghhBBCiLKQMyGEEEIIIYQoCzkTQgghhBBCiLKQMyGEEEIIIYQoCzkTQgghhBBCiLKQMyGEEEIIIYQoCzkTQgghhBBCiLKQMyGEEEIIIYQoCzkTQgghhBBCiLKQMyGEEEIIIYQoCzkTQgghhBBCiLKQMyGEEEIIIYQoCzkTQgghhBBCiLKQMyGEEEIIIYQoCzkTQgghhBBCiLKQMyGEEEIIIYQoCzkTQgghhBBCiLKQMyGEEEIIIYQoCzkTQgghhBBCiLKo5QPJ36I6TJ/u3LhxQYK1nGve3LmFFkpuiEqgXh9+mPs0a+bc8ssnN4QQQgghxNxOzZmZwGj99tu/DVc+n3zi3Pff5+7NTMaPd27NNZ3bcMPc54knnPv4Y+dOPtm5yy5z7rffkgdnArvs4lydOs7deWdyYS7j/fed22gj53bYwblRo5KLRfjpJ+cuvjgny/feSy4KIYQQQog5kZrjTGDA77+/c+uvn/u0apX7v2VL53r2dO7XX5MHZwI4DB984NyKKzp35JHOLbeccw8+6Nwllzh3xhnOffRR8uBMAIcIJ+nrr5MLcxnI5Msvc2Ww227JxSK88YZzJ53k3EUXOXfrrTPfERRCCCGEEDONmuNM/PWXc59+6tzUqc4ttphzrVs717BhbsYAg/aww5z75Zfk4RkAp+Xll3N/H3SQc1dckXNYmKHo0sW5Aw5wboUVcvf/6+BETJuWcw6OOSZoWwnq1rixcwce6Nweezi33Xa5ZWRCCCGEEGKOpGZuwN56a+fuv9+50aOd69Yt52jccotzb7+du89o9++/O/fcc87dfLNzzzyTcxLiKDj///mnc3/8kXuXmYY77sgZxuyV4AOLLpp7hudbtMiNpPft69zCC+fuc51lOyNGODdoUG7pFeHFeLJwnVmI225z7qmncmHng+dI/9NPO3fTTc69+GLhZ4Hn0/mJ8DfXuBfh2S++cG7YsFyep0z5O735wuAe1/jE5+I1nAnKAmfr558r349h8XeMj7jq1nXu2mudGzw4N7sU4Tny/Oyzzg0c6Nzjj1cuM8iGK4QQQgghZi1swK4R/Pyz961aYUJ6f9BBycXATTflrvF59FHv//rL+xEjvG/W7O/rfJo08X7kyNz96dO932QT75dayvuePb1fbLHcM8cd532dOt7XqpX7Pt983i+5pPdjx3r/+OPe167t/VpreT9tWi7uyy7L3Y9x8PxZZ3n/55+5+1n69PF+kUVyz84zj/frr+99vXq5+K65JnkoMGyY9w0b/h0uH+J94YXkgQzffuv9Gmt4v+ii3t9+e3Ix0Ldv7tquu+a+//KL94cc4v2CC/4dLum5777c/UMPzX0//vjcdyDfyKdBA+8//jh3bdAg7xs3/ltOfIjniCNy5fTbb9536eL9Ekt4f9553tevn3vmlFO8nzw5F9bii3t/77258H7/3fsrrshdj+HxoSwuuMD7P/7IPffBB943apQrh8GDc9eEEEIIIcQso2bOTEQYQZ80Kff3vPM6t/TSub0Hxx+fu77jjs5dfbVzm2+e2yh8yim52QdM1e++y33YDLzMMs61bevc6qs71759bkYCOJ1oq61yG6RZQvXjj7l3GB1nr0OfPrkN4Icc4lz//s7ttFPhZTtvvZXbJ8AIPkt9Nt7YuYkTc6P2aVjKdcIJufC7dnXuqqtyI/9vvplbYkX8WUgP15klIfwI6eX7Dz/kvrNB+vrrc3+z9+Pyy51r0yb3PiAbnuf/SMw3+WTmAJjxmX9+5449NpdvNpEzm8MsCnmK8iXe00/PyWTTTZ1r1CgXxjff5OIgXHj00VxYyIKlZMxMdOyYW9LG+9wnTPIX95h89lnuXSGEEEIIMcuomc4Ey2s4YYklRyyZAYxznAEMTzZP8zdLnw4/3LmhQ52rVy93naVIaTBwWU7EsqPu3Z278ca/90SwZ4JTljD+s0TjHUMZhwOHguVL7B/I51BgaGOQ167t3MiRzj35pHOPPJJb9pNmwICcQ4EjgyNxxBG55Ui8h0M0I5u/P/8854AtsEDOAejRI7exvEOH5IESOfdc555/PrdXhXzfcENOvjgKxJEGx+zuu3P5Rb75IH84NDh9LH9ioz1hNmiQC5P7pHvVVZ176KHckinKRgghhBBCzFJqpjNx333ObbFFznBn9Ju/2RvBXoYxY3KGKaPaOBLsqWBzMKPgrMFn3X4a1vzjPDCzwadUcEIY1WfEnDg6dco5CTgSWWeCeDnFCHBycE6Ii03kK6+cuw4898ILub9xVjhJirBPPTV3j70COCTlwuwL6WZWAMOdmQ7im2++5IESwUEYOzbnVGDUk844+0Ea05DHddbJbc4uJN933839jzwXXDD397LL5mZkgE32hMtsCGXN5m2cKyGEEEIIMUupmc7Euus616uXc/36OffOO8499ljOSIa4DOirr3Ibo++5J2fkY4xyxCuj3WkwUPPNJFQFBjUj5Ntskxs9x8HZeWfnzjyz8gZmwOGIy494r9CpR7zHbAcw+3Lvvbn0EzZhMItBHorBc4XAiWEmAocGOTELs9lmzt11V+X3ioXBPZZIke/evXOzP6QzpjsLsyBVnfLEEinKIG5sB74vvnju77gMSwghhBBCzFZqpjPB70ucd55zRx/t3CqrJBcTolPBM+yfwMiNH0a4WT40s8C4xzh/5RXn9t47ZzSzpCfuBYgw8h+XM7HUKt5nND8904BjE50F0s8sSjr97BfIl34M7zjqH/c7YICzJCrrGKy2mnOvvZZbdsSsAc+xj4KZj2j0sychkt2bQJpxosgTS7J4llkgjuktF/akkE72W0RwMNhnAvXr/50/rqfTJ4QQQgghZhk105koBhuoGeFmwzLHx7KGn429zGCwnyJuIp5RMHxPOy33P0tyttwyZ/BmZyWA64zkY6yzZ4MNxhxry69GT5iQPBTgOTaN8/+4cbn9AcxQkAfywwwLRn8WZjvYRA4Y+hwly8Zlln6leeCB3KZr9mQ0bercBhvkrkeHg3wAcho+PDcrQh7T8OOAbMrGgeH3PnAu2CvCTFC54DgB+WNzN3lmNub113Oy2H773P84U8yukE72UQghhBBCiFnKf8+ZYLSdDdGM5O+1V27dPR8M56OOmjk/bAcsE2IDMj9mR/iHHppzVNiDscgiyUMpOJmJvQMstzr55NyeBX7/IjuzsvvuuX0BjMCzX2K99XLhE0/c+5GFfQb8+jQGPhuj2XtwwQU5Iz29H2Ly5NxJV8iCe9dck3NweJflSNHhYbaEdOy6a85JWXLJJIAA31lmRl7ZL0HaDj4493658D77VnBISANhslkbxwwZcMITeeMUKJ5BhulZDCGEEEIIMUuY98xA8vfcDcYkxiXGN6P3TZokNzKwVIiRbI6JxTBeaKHcSDbGM8YvBj2j3IRHWJxkxP98hxgPJwdxL57sxHU+7drlPpxexJIknBOMeZ5nw3fPnrk4s2BsY+SzDIm9APwIHku12LjNZmJ+DZq4MP5xSBj152/CJh7eZaMz78XlSGnWXjv3PPfY1M1Rq6SFvOK44AAwqk/acASYzeAa+x8w2ON75ANHhjiRMydmLbFETn7MvjDrg2MTl0WxvIkN4hyLy3KkbbfNLVsiXvanUBakLcqX68yE4CRx/CvLv8h/58658PjgjPEOv2pO2NE5Q248S7pxNrQJWwghhBBillKLH5tI/hZCCCGEEEKIkqkZzgSnBXEykxBpLr1UsxNCCCGEELOQmuFM8ANmbFoWIg2btLM/+ieEEEIIIWYaWuYkhBBCCCGEKIt5kv+FEEIIIYQQolrImRBCCCGEEEKUhZwJIYQQQgghRFnImRBCCCGEEEKUhZwJIYQQQgghRFnImRBCCCGEEEKUhZwJIYQQQgghRFnImRBCCCGEEEKUhZwJIYQQQgghRFnImRBCCCGEEEKUhZwJIYQQQgghRFnImRBCCCGEEEKUhZwJIYQQQgghRFnImRBCCCGEEEKUhZwJIYQQQgghRFnImRBCCCGEEEKUhZwJIYQQQgghRFnImRD/Wbz37ocffnB//fVXckUIIYQQQlQHORPiP8mPP/7o9tprL9eqVSv36aefJleFEEIIIUR1kDMh/nP89ttv7vjjj3fjxo1z9957r2vQoEFyRwghhBBCVAc5E7OAr7/+2t18883us88+S66IyPTp092QIUPc+PHjkyuzn/fff98tssgi7p577nGrr766q1WrVnJn7uPRRx91I0eOTL6JOYmPPvrIDRo0KPk2d/PVV1+5gQMHus8//zy5IoQQQuSocc4E6+D/+OMPN3jwYNenTx/3888/J3fK49VXX3VHH320jWCXyqRJk9yhhx7qXn755eRK+Tz++ONuscUWc0OHDk2ulMazzz7rll56aTd8+PDkSnHYN/D777+b/GYl3377rTvqqKPMkP+3mDx5sunIl19+mVyZO6GsLrroInfGGWckV2aMww8/3K244oruk08+Sa5Uza+//up22mkn17JlS5vxqYpYP//888/kysyhkP5efPHFbskll3Svv/56cmX28dxzz5lMawLvvPOOO+SQQ9xbb72VXBFCCCFy1Dhn4pVXXnFbbbWV6969u7vuuuvcTz/9lNypPhgoZ599trv66qtdr169ZtgxKYd55pnHrbzyym6BBRZIrpROw4YN3XzzzZd8K85DDz1k+wdwhGoyGLG9e/d211xzjTvppJPcL7/8ktwRSyyxhDkT1ZmpwXhfaqmlXL169UrayI68O3XqZMvMZiY4zRtuuKE5imkWXnhhqz/UIyGEEELMfGpMD4tRw2j3NttsY8bQOuusk9wpn3fffddG+DE6P/74Y1tSkg/i5lSgKVOm2KhrMTC4pk6das9HeH/atGl2PTtiu/nmm7s333zT7brrrsmVyvAey6qy8bZt29ZmVRg1TsPGY5YsZJ0sZgwmTpxoy5AKwbvZNOJgER7v5zMmyRvPIBtGsYvByDZ5IY5iciRMniE9/F0dcDbJ54knnuhee+019+KLLyZ3/glhf/fdd/ZJx8Pf5Jc8MRqeD/LCffJT6JksyId3vvnmm4Ij94RFmOhPVXmP4aXlTri8j95kueCCC2w0fYUVVkiu/A3lkS/ehRZayJb0PfDAA/Z3BF0gH7yTLkvif++99/5h9Kch/HzlS5qZTcqXd54n3KyOHXnkkTYrsfbaaydXSiPqIvIrZcYFyDO6kq0jWcrRDcIjXD756gbyoE5TFwvVi1hXuZ+F55FrofuFiPqYLWchhBD/IUInUiMIHbkfMGCAv+2223wwiH0wvv2KK67oQ+eYPFE9Qufte/fu7Rs1auSDAeODMeK32GILCztNMAz8mWee6Rs3buwbNGhg8T7yyCN+wQUX9Pfdd58989Zbb/ltt93Wjxs3zgfHxK+00kq+adOm/uqrr/ahA/Z33nmnX3XVVS29nTt39sFgsPfg7bff9ltttZUPTo19/+WXX/zee+/tn3zySX/llVf6Jk2aWLy77767D8aEPQMffvih79Spkw8OhX0Pnb7v37+/X2211fzyyy9v8SEv8nnsscf6Zs2a+Xnmmcevu+66PjgifvDgwSbTgQMH+kMOOcQHo9sHB83kMWrUKB+MaX/88cfbe8H4tDx169bNB4PE4ouMGDHCr7HGGvZMy5Yt/f333+9r167tzznnnOSJHA899JDFTV6Qw9Zbb23yigRDyO+///4+GK6+Z8+eFl+7du18MN5Mvttvv72FXQxkvc8++/jWrVv7zz//3NJE3riepm/fvv6UU06xciG/yGzSpEl274svvvBdu3b1DRs2tLSSp2eeecbuAfpx+eWXm6y4z2fLLbf0H330UfLEPwkGsD/vvPMq5ET+g1P8j3c++eQTu06YpOuqq66ysIkrcu211/qDDz7Yjx071sqRZ9u3b++D8W5lc8ABB1j4lD+ypPwj6Mduu+3mgxNg34OD4Lt37+6DoWh6GeNFbyK836dPH3/44YcnV7zVl1122cXi4Z3gEJs+BifO/l544YV9nTp1LH18J5/Fypd399xzT6tj6C7/Uz7UPT6HHXaYX2WVVfy8885r5UG41C0YOXKk6Qaye+GFF6weIps0wQnxO+ywg3/qqaesntx0000WDmnns8kmm/g33ngjeTo/6BB1G70g39TRG264wS+66KLJE+XpBrz//vtWlwmXD3KhXUhz1113+bXWWsv0B/kQT4S0kad4H1nRZiE7oN0ITpeVLfKlbTrjjDOsTCJPP/20yfexxx5LrnjTA9rFmJeNNtrIBwc9uZtj/PjxVgZpPRNCCFGzqDEzE8xGHHTQQS4Y1ZVGSMuF5RgPP/ywLZ1g7wEzHi+99JILhk3yRG4kkiVQjOiuv/76treC0dhgSFQacWQUklmNYJi5559/3kZLg1HgTjjhBFtTzZr3YCzZ8qxgfLtgCCRv5jY+PvHEExUjucEwcKFjd8EYd7fccosLBrzbeeedXTCkbZ8Go57ASGHo+CveCwavO+6441xwiNwVV1zh9t13X3uGPATDzUajWQoSDA3blLzMMsvYaCVrpO+++24XjENbBhWMUbsXnBkXjDOTN2kJxqbNDAUjz0ZReZc8IwvkR56DseyCoVtp5JP4b731VheMWAv3iCOOsLQxe0C+PvjgA3uOfI8ePdrWwCMj0oG8WMYVDCv3v//9z2aRisHmUZ6jLEkT+UGW2ZFYZnTuuOMOW+K2xx57WB7ZsM3IL/kJxqg7+eST3YUXXuiWW245KwPSC8xmDRo0yAUD3gWDzQVD1zabd+nSpdJsVBrWo1N+waC1OMk/MwQsBSLfEJwYF4xiCys4RJYu9ASdTMN9yoswgvHoDjzwQJMPYSNPZEBZsI+AvSvpjfDMgFGucXaKPAWH2HXo0MF0g7Ihv8zqxHgpP/Qgyp5yP+2000xGLA1ERsFxMT0ODrYLzqct2WNJFXrGh+/Fyhf9YCYI3Tn33HPdBhts4C699FIXDGir98EIdvXr13fB2HXBubYwWXYFzFZQD5gxIO3sY7rxxhsrZg5I72233Wb1Y9lll7U8U5/btGnjTj/9dBccbTs6GP0nD/mgrjN7GZw7K3fqIXrLcro05egG5U65cZgDeaeukXbqW6zb6Ao6QVuFXCgnZiEiw4YNszQhJ/KD/iO777//3tor8oYMOnbsaDoXnHp3/vnnW7sU9S8L6QkOirUnPEecyBqdiu/QhhIvbRuHHgghhKihhM60RjKjMxOhk/fB4LERP3j88cdt5D49KsvoNiOsjKKHDtSuMfoYjC/WGFTMTDCqx3dGRZlZAEbwgqHk69atWzHKyEhg8+bNbYQ+EkcEg0Fg34Pha6O25I3R5gj5Jaxg+Nj3YOzZqGhMA6Pt5IdRznwwExEMZv/6668nV3Kjzsw+kPZgJNhMRTEYvWbkk1kLRj133HFHSysj20B4zEgQXpyZmDZtmo1uMluQnllhJiYYmT44QPadUXVmQZjVYCYiDTIJjoyNiBfj3nvv9fPPP78PRqt9D4adzSAxy5OGGRbS2K9fv+RKbuYrOG9+scUW88EgTa56HwwyG40ORnty5Z8Eg9rKsKrR7TTBOLPyjHlihogwbr/9dvsOwTH1wXGuNDPBCDN6NXTo0OSKt1Fm8sOsBGUAwdEzfQ4Os30H3k3rEKPbvBecXhuxh2AkWxmgD8B1yhm9BcqTmZxC+sJ9ypGZizTFyjcLzzIjR7yRa665xgcHyU+YMCG5koM8oEfBUbK6x+wiM0CEAdTXTTfd1AdDvNJIfBr0ADlTp/LBzMZSSy1lM1YR6gCzG+mZiXwU0w3kF4x6Czs4nMnV3EwF7Q6zWcAMFXqZT27UqTXXXNO3aNHC6kkEPSB8ZizQlyFDhiR3cvf22msvaw9oByHfzEQWZqgog9guEc4VV1xhcknXbSGEEDUL7UrMQ5CLu+GGG2wkkz0LEAwD17RpUztVKc46sFmZEVM2lIaO1q4xK8KILKOwabjP6GG8zkxAMJxs1DcYX3aNzaLBMLQwq4KRZsKIEAbrxeOochZGhLnPyDdHVlYHRmwZec23MZd17IzkMzLNfeJAPoxKMsrLWvXFF1/cnmV0e7/99rMNuxFGytmPwig0+Y8w08NMBjMJadq1a2ejz2mCwWZ7Q0hnIShTRl8JMxi+di04d1bGV1555T9GYLnObEmE+4zmMnvCiO6oUaPsw74LyjE9wg/IgWvIheeD4VZ0PwogM377IsqSWSauAev+ySd6GGFmhRH0LKQnGMjJN2d6y+g/MyiUATAbhS4Gg8++F4KyYsaNGQLgPWTDiHk+KEPky2g4MwCxrpRKvvKNMJPGHhf2vQSnsOBofiGQAXUV/Y/lRT6YuaEepuss6WYmgdkS4kV/CuWFWQhmAmJbAcjtmGOOSb5VplTd4DlmmRo0aGD1JOoc6WKmLI72x7rNbAd5Ia2R4FxZ+qh36E8EPUDHmNXgtLiNNtoouZO7xywqOs9MajF4hjiRE/rK9zgrQjjMVHAUNOkVQghRM5EzkQcMDJwGjBo6b5ZdPPXUU65FixbWuWI8A0sE6JAxrtJExyJL2hjHOMMgisZdhA6/KgMPojEQISyMCAyTfLC0AqOQU5twPHr06GFHgKYNj0IQdtoQARwelmlxYtTWW29tS4FYFkZ4fMgDy4fq1q1bSR7ZdCNDDGaM1PR1DDuWqrDhNA2GT/q5UsHwwjHB0OW4XcoUQwpDm3SzRCMNTmHaucGQZGkHS14wylm6ET8sY4s6gFHI0jeWi22yySYml2uvvbaonMk/S2uQAQYp73C0McT3kAMGWbockENWfyJpGWFEQ/pa1L2qyj8bB3/zbiEdpaxZioOBiyHJ/7fffrsZu6WQr3xZWsgBBCzTYSlO165drbyqSnsWwt1xxx1NjsiXusLGccqW8MkbBjF1H71o3bq1OZQsXyoGS6iQR9aZzbYD1dUN9IK2iEELfq096htLwEg7S/Vgs802syVQGPTrrbee23///Sv0Gb0hT9TTfKC7yDxbv9Fn9IYN7/kgvwy4sFwTh5alWjjlUN1yEUIIMXcjZyIPOBCsj6ZzZoQufjBGMYoYdaUzx1ig4yzVUPo3wTDGYGWtO8Ye652ZKYkj39WFfRf9+vWzNfGMFLMWnXX8aZAP4RczLngGIy69xhuQL7MeGDozCvFzdChGHz/wli5TRrqJm3X1xcAQxbhq3Lix5TX9QabsX4EHH3zQ9qZg/OF0cu+ss86qZJBnYcaEUWWcPWTJO4SRBjlh9JbiaP7bYIhTV6hHOOTs3+AHz8qB/OKUUD533nlnhXzWXHPN5InqgfHLjBT6wIg96WI2hDQD6UYvmPmLcfF7NcWgbNCPqtqB6uoG19E5BjHy6Rx7FYCBCRx7dLlv374mJxzeeI+0ZetXhPv59ArHh1kG9tbkg/1QDEjgRMQ0nXfeecldIYQQ/yX+c84ERiqjbYzWFYLRSjZ0sjGWkfP4YWSa5QCMbLMZl+UHGBLp40XplBnxpiOe08A4Ic0YNGxWZ3N1NDLIB0Z3oaUcWdioywgrI6UYaMwipI0ijCCWBDGqGmVN+CzjSS/pWH755c1gYcYnHTej0bzLCG5VIHOWgRQqUxwaypQNqpRhukxZokEa2ABdzOlhpiQuQSM+8pv+sKEY0AXkwMZnRoPRo/TymXywyZmRYDZGx3eyBia/lYDOsSQswqh13IQ7J4Hxyug/S9UwbEk7m7Qj5K1Y/UtDGSFTNiHjBLC0r06dOsndv0F/qdtV6S9xs+GYcBlZp/wxiHkfcCAwsNnsjeNIWVR1oAPP8M4bb7yRXMktUWITeprq6gazBcykUc6kL6tz6dkEwiU8NnUzWBCXcTHbxTJD2qy0w8ASMdoonD2WWuFYRagHPE+cLKXLB/WF+NmkHuXEjFUWyrnQxnUhhBA1gxrjTNABsqyGNcJ8MLzoLFnewpR/7Ejp4Fkuceqpp9r3LIxe05GydCC7bAGjgrX9GLl01pxSw6gha8MxljAgBgwYYPsL0h33nED//v3NcKJzx5jHeMDIiAYAeUVeGPUY31UZZRi/GPAYOjzLiD9royPIit+6wHnglCdkw7p/lmikR3BxODBYME4YfeYehg7rzfmb02eqgtFkjDN+DTofLE3C0GOpV9YwJB+cSDNmzJhKJ3VlwVjjxBpkgyOGU4EsY76QLZAf5IF8+Z/rjGxj6BYCZ4zlKPEdnFFONUqDPhIfJzjhACIjlrPEU6TmFFg6x74cZpVIL/sNqFPRAcB45m9OjkJ/kGcx2VBe7D+g/Mgz8r7kkkv+8YvW6C9yQX95ppj+4uSwROiyyy6zGbv0vhOu8y66wP8MPDALVwwMcpwcZqdw9oifpVH8MGKa6uoGxjyzMqSBWQjyh0yRGbOmUV+ZZaRdi3WbfTxxnxJt3ZZbbmnLupgZIW20j9ttt505VOwVod7THlJW3KceMlNGW8eyqXygs5QxAy7khX0c2dOrgP1jzPpklxEKIYSoOdSomQnWI7NGmw97AzBWGI3miEzWBgOjphg02TXCEabv6bQZ4YujlRHeZRQTA4SjQ/mfjpyRbda6M0KH4YFzgZEaRx0x2Bm5jGvXgbAwlLLGLWGmr2Xfxajl72z6iYvnYpp5hk9MAx0/RhT7JTg6E2MEgyEuI+I4SEZBORoSA4QjJoH3CYf0puF4UAwvZg4IFyMXw4d0kQbS2bNnTzuGks2fjE5jzDMrwgg/+QTyx3Iplpqwnp24eZZlIMiStALxkw5kk00LYcR7+cCIIk2si8++y3WcBJxRNlgD4ZA+8pCGzdukiSUmyBF5YUiyZyQadqyDZ609MzY4SSz9YiQauVA++WCJCvnE6OMdyoA18MzYxHc23nhjO64Tp4vRZpwn5I88oywhlnk67VGH0vGT7+xz2XeRA9+jTkW4FjfUIk/i5xrwP7NAlCNLkTBGqX9xMzJpIX8YrtxnpgzjtlD5YhQz0o4Dj94QHgYsS4XSdYAN59R1jiJFNhxRDITJJ513RvWZ6cDhj7MdEeo3ziVLANnsjtzZp5ENIw3lwA/3cZ9yJH6+X3/99ZWWCZWjGzjkOGfsO8EoR+doZwiL9g1wLnA2GdwgfjZtM2MQQX7khbyhr/yNDlH3kRltGDIlXO6zSR2dpg2IZR91KH5HzsTJccWEx94SjgTGUeRZoE7hJPO9UN0UQggx91MrNPjaLTeD4Hyw7IcRPpyKuORlToJi5hQbRjAxCjAEMILSMPLLb1rwLAZVVflg9odRTMLDUUgbtRFGLRlpx5nDMMKQyweGHaPPjNYyEo2TMjP2S8wKKG/2A2AosbyD3z1Ip5W8sGGf2QschPTpVYVgRJl3MAwLyZ5yYYSX9ekYlhjXWYdnToARcmYIWIKFY4h8ooEJ5INyZgQdxx9Htqp8YDhz+hH6w1LDfMY3M5PoI84Ics863KVC+REXy3Moi2w9KQQzMLQD1AOc43z1oRzdAGYR+C0M6hzOCgZ82kBHPgwQkHfqdnYpGLMfcfaNd3GG01D3CZ8lT+gVjnNVUM7UA/JNu5eNE4cRZwzHid8KEUIIUTORMyGEEGKmw34Z9gHxw5BZ50UIIUTNYc4b1hRCCDHXw8wEm9zlSAghRM1GMxNCCCGEEEKIstDMhBBCCCGEEKIs5EwIIYQQQgghykLOhBBCCCGEEKIs5EwIIYQQQgghykLOhBBCCCGEEKIs5EwIIYQQQgghykLOhBBCCCGEEKIs5EwIIYQQQgghykLOhBBCCCGEEKIs5EwIIYQQQgghykLOhBBCCCGEEKIs5EwIIYQQQgghykLOhBBCCCGEEKIs5EwIIYQQQgghykLOhBBCCCGEEKIs5EwIIYQQQgghykLOhBBCCCGEEKIs5EwIIYQQQgghykLOhBBCCCGEEKIs5EwIIYQQQgghykLOhBBCCCGEEKIs5EyIOYI333zTvfPOO8k3If7Ja6+95t5///3k23+X3377zb344ovuyy+/TK4IIYQQ/x61fCD5e67n999/d0OHDnW33nqrdbRrrLGGO+OMM+z/cvjll1/c9ddf7+666y73/fffu+bNm7tjjz3WrbPOOskT/w3ee+89d/vtt7s//vjDzTPPPK5evXpu8803d40bN3a1atVKniqfv/76y7Vt29Ytssgi7rHHHkuuCvE36Mhaa63l1l9/fTdo0KDk6n+Tjz/+2ORw6qmnuh49eiRXhRBCiH+HGjMz8euvv7o99tjDOthlllnGrbrqqu6hhx5ym222mXv66adddX2m8ePHu4033tickdq1a5sD8dFHH1l4V155pRk3/xWGDx/uTjvtNDds2DB35513mkww7DBkvv322+SpGQNHBWdQ1Axef/11czjffvvt5MqM8+eff0pHArRlyILPzGLixInWtj377LPJldnHd99953bYYQd38cUXJ1eEEELMTdQYZ4IR8o4dO5rxgtGLAcz/zChcddVVZqyWCgbyLrvs4j744AMbKb/nnnvcTTfd5J588kl32223uR9++CF5MgedezSGq3IyMAB4Nu3c8Hcp75ZCTEs6rHgtG2+pEBbyZXYCI3Hy5Mnu4IMPNrnecsstyVN/E40+/i8UH2HGZ4pR3bTzTIy/kDyruh+ZEZnlI+Y5HW/MXzFZZYnhFEpbDJNnCoUZnymWvxhPsbRxPV9avv76azd27Fj3zTffJFf+hudiGZQSP/8XegaqkkeEezxTlazjczHuWUFVsi03DVGuhd4pFC/tJOX1xRdfJFf+SXw3HXap6eQ54sxXRgwEvfzyy+bQ5CMdR/ZdIYQQ/z41xplYYIEFXPfu3d3iiy+eXHGuVatWbumll7aRr2IdXRacB5b29OnTx7Vs2TK5mnNYtt12W5v9YLkPvPvuu2ZYMwrL56CDDnJvvPGG3Ytcc8015tg888wzbtddd7XnGN1n7fPnn3/ujjjiCNeuXTvXtWvXSiO5LLM6/fTT/7H05+GHH3Ynn3xyxazAc889Z2klnyeccIKF36VLF/fqq69aJ3zddde5rbfe2j5Z43/KlCnulFNOcU899VRypWrmnXdeSzOyxgCJ/Pzzz+7qq6+2UcZNN93UdejQwRwO8plmwoQJbr/99rN07rTTTjZzlA9ke8ABB9iI6RZbbGGzI/mM0wh5JX/bb7+9ybNz586VRlp/+ukn17dvX7fddtvZfWayRo0aVWGgYOwgqxtvvNE98sgjFk6nTp3cZ599ZvfTYHSddNJJ5lylGTFihJUZEO7IkSPdhRdeaOV81FFHWV723Xdfyxs6efnll7v27dtbmnDWqjLIiC/KZKuttrK4KPfItGnT3DnnnGP3kC9xTZo0ye6hlzyP3px//vkmU3TisssuM0MtDWWy++67WzzoPOWaLUfCPfzwwy2eLbfc0p144ommT5QB+eJ5RpsPPfRQW5pE3rhP3FFHttlmG9evXz+TfRr0Ksa/55572p6afDD7iK5TnuSZMkHWkenTp7tzzz3X3X///TarxjP777+/1a18sISIpYzkh7hJwxNPPJHczenIgAEDLH9pKAPqJHWuELQB6Na4cePc3nvvbeHvtttu7vnnn0+eyEFdpH5QPuRrn332ca+88kpRQxrdZ8AjyhXdR/fScmXPCW0MYVKml156qZUROnvBBRfY3+SN8rrkkktMJyhj5EGaDznkECvrgQMHWlmOGTPG2jtkRZjkZfTo0UlsOYcSnWB/xx133GH1CV2nvYkDMuQLueHMUFeJu1evXlZXgfp+5plnmp4iL+SWrXNCCCH+XWr0Bmw6KIwGlj1hAJcKBibr9+n4ikEn2aZNG/f444+7Ro0auZVXXtmMUN5Ld3jsuaDjpuPFCcEIp7Omk8YQYklVkyZNLJydd97ZOmGgQ73hhhtsRiQNTkn//v0rjEjSgbFHWBgmpAVjECfnvPPOM2NtxRVXNEMOgzZtYNOZX3TRRRZPdRyuBRdcsJJMMTwwVI8//ngbaVx33XUt/Rh3PXv2rDBE2ctCOjECV1ppJTN2MHDSo5IYTRjbOCOkb8cdd7Q9FRhiOIyFDMG7777b8rzccstZHKQR2QDpwwnEsGQJHEYiDgEOxVtvvWXPkBYcSQxgjHDKiU/W0AUMVmSedRwpw2uvvdb+Jh+UA8viMLiIp2nTpu6BBx4wY5G0Ypg1a9bMffjhh+7II4+0fBcCBxfnC33BKV1vvfVMD4455pgK+eIsUZ7IH7kh75g//ictXB88eLDJAQcQ4y6WP2kmfcSDwYcc0U1kh1EXZfHVV1/Z7N29995r9+vWrWt6Tnkxc8WsHuGxYRoZffLJJxY2+cXZWHbZZc2wx0HHmMSJi8YyBj3lgi4jL+Li2bRTR9hDhgyxciQult1RVsgeg5N8Abpy8803W7njAC+//PJuoYUWyqvr1DuMcMJFh5APBjjXcOhJH0Y7Th97s9LgoDFoUMyZePDBB60uRt1DbugnjmRsL6ijOGjIoHXr1m7DDTc0nUJfsjOiEdJE+3LccceZXPfaay/Td2T4v//9z55BHtQdBitoY1i2SXp+/PFH02WcBvJH2VFe6Brf0UvyhexIK/ukqN9AuXFoAvs3SCflRRxxkIP/KVcGOGgXSBuDPtQv2j+gDSNN5AHHgbgJEz1Dp3Fg0PENNtjAHHucSuSXdhiFEEL8y4QOo8Zy1lln+fnmm88PGzbMB+MhuVo1m266qQ/Gtw9GTHIlP8HQ8nXq1PGhg7Pw+QRD3YcO0x944IHJU94H58IvvPDC/v777/eh0/Sho/fbb7+9pa13794+dPT2bp8+fXwwdPzYsWPtvWDc+Hr16vlg7Nn3CN+XWGIJHww1+3755Zdjhfn999/fB4PDh47YX3/99T4Y+3611VbzwTCw8IOB4kOH7kOHb+/BtGnTfDAkfejAC8ooOCQ+OEE+GDzJFe9vuukmC//CCy+078HYsrSTn2DAWVjTp0/3wTDy888/v3/uuecq8hgcNR+MHEsnsiB+ZIHcgWvBIPTB2PLBgLRrvDtgwAC/2GKL+ZdfftmuZQnGuA8Oig8GtH0n/GD42N/BIbN3Bw0aZGVAeJRvMFZ9ME7sGZ7dZpttLC1XXXWVpYPn+GQJRrPlIxjlyZUcwVkznQDiD0aUySkY4lbOXAtOlw9GtA8GmOWP8EePHm3yC0aWvZuFNKNvwfHwwZCydwiL/JAO9A7QtS222MLKAMhDMMrs79tuu830ZJNNNvHBmLUwgsPtgzHo69evb9eCA+g32mgjv/nmm5suAWEcdthhJttg8Nm1c845x+INhm5FWoIhbPrE35Qv94Njbu9zDYKBaZ8oU9JJ/MFwNvmQz+B0+9q1a/tgyNtz6FHUwWAg23voMmkOhrjFyXPEExxOq3/BiLXnSO8qq6zig2Pphw8fXlH2Mf4I19HVpZZaygej2NLLM+jIGmus4YOzYukmvci4VatWyZs5qIvoV3CWkiv/pFu3bib/4PBZmRD+o48+amkLhrk9Qzoo31hmPIMuIkvkAcHA90svvbSFA9TLRRdd1No7ZADBSPfBYfDBibXvL730kl9yySWtHgDhUtb8z+eFF16wNio4SpXKi/QhT8oolhsfoJ5FPeNacEJNh/kfJkyY4IODZ/ILDp+FSXmsvfbavmXLlvYM71EHKEvaTOJGBhCcU3v/kUceqSiP4JT6FVZYwR977LH2jBBCiH+fGjszweg7o7SMwjKixQhoqTCiHgzgorMZjBIyEsfUOyPLhM+HUTqWRmWX7qy55pq2RIAwg7Fq30Pn7YKBYf/zbuhkbYQujqpWh2AE2cgxo7PMfgSD0UZgmYmIpy4xO9GgQQMbJY4EA8iWzcQ8FCLoip1sdfbZZ9tMAqPobFAn/aGTt9HsYNBYWMwIEBbxM3rN34wokjdkRjoYySSdyIJZAE7KigQDxQXjx2ZYGJXmXUbjGdkMRoWNFueDcHme5SSMihI+I6Gkj6VhpIvZEEZCCY9Re2STXqoFjEgzuk3aSHsxuZQCo9yUA+VMmsg7YVNewYiy8IPTZzNoLAHLB2llhBrdYgSd9DPTwIwAOoW8gPJllPu+++4zORIPuhwhDYwMkybiDU6p7TVipJxRaMImDZyAxndkz0gxcps6daqNFrN0iFkgZgOYMSIc8kX60Sf+5gP8Txrid/Q0GLVWxxgN58M71Cf0g5FyZt4YOW/RooWFjR6xXIayilCGpBX94n2eIx5mUpApS3fSUB8YkUdWPMsnDbOY6AhLI5kRIL08g3yZVUIWyGhGCYawzTJQJoRPnUduLCMC0sdpaeSF0XfyiQ4jm0IzE8ERsJmI4DRZWVFmzDBQPnFWivIODom74oorLEzi5nuURaHyijCrStnF54H6SD6QC/HyDh/KJQ3Ln5i15R5hoMPMQkA6bv4mbmRAfqnHwTG3eMgHOk+9Rj7ZOiuEEOLfo3KPUQPA6GXdOCcNYWTgUGBAVQeeZyqfDq0QdGpM0WN00QFGMFjp1GNnGcl2ztGBiB0zYDQBxm91SXfKgKFAp8wnDXFgEJYDy4wwRFnKwbp8ln6wbIT04qBgmPJJgzGGfCgT5IlByj6WtMxIdzqdpA/jDuMZ447lPHwwFHEmCqUfgwdDnWUVOASkl2dj+oib5TIxPD6sh8/KG71JG+AzSraccbr4ns4z8WE0FnIk0SeMSZbYpNOPs4yuRpmwZInwWeKCoYpTi8wixJvNG04Y19FpDEHSwNISjL4YD3t8YnpxJjB0MRBJc3XAiSCNGISrr766LcdKO96ETb1Cr9KgI2n9xrkiXzhPaSg7jHPup8EozdbBNKSL/GfDA9KC7qLDM0o0liPUUwxs4gbaLxxDHAHKBaeKZU9QqF2gLCh/nJS0bqArEfLFXgSWNqEXOMvUB+IrBWSaBQeI+kY6cfzQRXQnm8603NEz8lwoLxHyw+l5fFjilM4X8Vb1vhBCiNlH4d51LoWOlY1+GKNsumzYsGFyp3QwkjBosgZJFjpJjJ80dM6MrkbHYEaIBuic0HGSFkaMMXoY2WS/R9ooRRYYd1njhBFT0o/RSRh8ijlpwDOEx+ZcNpczmxE/jEhiCOWDI3zZi/Hoo4/au6y3Zl034WHA4dhwLx0en+yelFIgTCjVGJtRSD9xkvds+hmZZuMqMMPEzAT7F5hNQA7shygGMxjkA50lHmR/9NFH/yMeNtdilMfy4b3qwt4LRsdxRnEiCJfNuxHC5lPIYYxE+WefQ9dwrjBYq0OMF33NQj65l3acZla5U2eIk0EIYM8AM0U4MGygRv/Z51IMyoz32YuSLbP0wQrse2AggP0j1AMcgXJ/BJAZQJx76jK6hm6w36i6ci8E8iZfDMxk88SHDd1CCCHmDGqUM8HobdzEysY/Rj2j0RHBCIij5IXgNBScBDrzrCFP54+jwUgdHwy59GgyxjbLDFi2MqNgvDCSiVMT00G608uUZgY4P+nR60KQlvSMQgTDMs7GZI0TyoI0MzKKccCINMsiiDPCaDjOX4R8I1uMOEZo06OSjIAy8l4IDGKWnrHRl1kIRmJJH5tdMdpY7pEOjw/LqaoLxhvhYlRF0AM2zs4Kor6hu8ggnX5Gr1neFmEZERuoOcaYJT/IIEI5swQmGsPoFRtrkRtLcFhSQlgY6dl4KAvKH4ORJUcsbUmXWzSMAdlAtp7huBHWYYcdZocX8He6PAkbp48NwGnD/tNPP7XZgwj6hDNLXUuD/NEvZlWqA3lGN3GU0w4KciKfyJR0kS/SiP7G9CFDnkmntxC0K3EWAthwjQ5FHWQ2jnxywhYbs1k2WdWACPdJA7OC6fLiwwb2CGlnNogDEagfjPrH5UKxnSzWLqbhPZZ+cVIZMxLMIBJXLPfqQNy8l26DaANIK3UKpzibrziDRPkgr3IcWyGEEDOHGuNMMBrJ6TiMxDESizHP6S980sY4o7Z00PE0kXxwUg57GuJJSLGDxYDg5BzWb2NMtm/f3jpV1qdHeJ5Ounv37smV8sHIoiNlLTcn1pBHloikly/MKMiDzhmjoFwwBJAZMPqJgQQ4EuwLwFBizTqGKEc8MnvECTGUCY4Zp8+k9wpg2HIsJrJldikNSxwKGQ6DBg2qWF6GYYfRFtd5s7Yew4MZlbQBjG4UO0GpEIwcY3xyehCGLgYoYbN3ZFbAjAByYuaF31CJ+sz/OLQYVKSB40GjUYuc+LCsLIIOoZvoFPLAuCc89gUwI8ezOOGMMmNYRwiT8qAuoPsHHnig6SSnCGEEEg8j3vGkMMIhfEas+T+CTqMfGNVcp+6kTxdjmVI8tYe8kD8cCwxr5ByhfuL8sI8n6g7lzVI3yps9KtUBZwL5ol/Ue/JL3PyaPoMKnCCEI4oOs6eCNHGPZ8gjS4yQbVXgODCLxJI13iX96CP1AnAIKEccPqBcmckpBnWL90h3rHtAexWdLZyU9BG31BPip34A7+PskxeuVwXPI+dYd3BymQVMO3ylguPAsk/KMToUpIWZReTEssX0DDADFuge4DiSf+QvhBDiXyJ06DWC0DnaCUxkKftZZJFF7KQa4HSZYDj4nj172vdCcAISJ8XMP//8PhiOdiIJp6EEI8ZOhQkdrp80aZKd7BI6Qzsxhvh5hpNGQueahOR9MBTsBJ2ff/45ueL92WefbSfWxBOZgJNxCOvpp59Orng/ZMgQOyWmbt26PhjldorM0Ucfbae5cKoLBMPcTmmKJx8Bp55wqhCn26Rp166dpSfCKUDIo0ePHhUnuGS5+OKL7cSZYJgkV/4J8ujfv7+liw/yQu7BUbGTZCLBOPBdu3a1E47ID+kOjogPxr7faqutkqe8nQzEKUvIg9Nf2rRpY/LldKpYllmCkWx5QUacBEX+hw4dmtz1Jgviozzbtm1r4VIGnJYDwRj0HTt29BtvvHGlsioEp0sFI8jCbNiwoZ2cExxNO20GkCd6xr1g6No1eOaZZ+z0nXiyDqAv5C19CliWqVOnmpyQazD47dQlZMIJT8H4tJN1SDvp2XDDDS0dyIGTtIDTnCjHYHj5YBjbe6SfsCZOnGjPwBtvvGHhcC+etIT+oevBWLRngqHq99xzzwrdb9CggaWFU64gGH92Ohf1hzSQr+CI2OlT1JHmzZubLlKuO+64o2/RokVFnUFWnKqFjnDaFmnlfdK077772jPoG/UEPSNPyG6ZZZaxU4E4aSxCWNzjJKWqoMyRTXAY7OQq8kX+OFkMvY0Eh8Dky3Okj7yjQ8EZ+8fpXmlIA3JET6gj6EVwnP3BBx9ckXfKmLyjx8h7rbXWshPC0Nl4YhcnWRHOlVdead+BE5QaN25sOo+cOMkpGPy+V69edv/uu++2e7RfLVu2tPD32WefinyhO+gWMiffm222mckDHSWNI0aMsOci1BVO1kJHOPmLMGn3qNO0WUD7GJwVf/7559v3yHHHHWc6EUEvOAUOWfM+afz666/tHu+iL1wnX5Q3+aANBtpAypw0CCGE+HeoxT/B4BYFYJaB345gxCxuBk5P5TOKx+g+I3osf2C9czDmkrszB0YzGSlmJJYfm2J0dE6FEURmE1iKFc/Jzy59QGaMpvObBDzDkpS4zCILo5Cs72bUl+cIj1HLfKDKrAlnb0cwOGypDyPdaQiH0X1GllkqwQwIy4fKBf1gGVEwdmx0f3aUDScgoZPALAJ6GfevMKLO7Bwj0iztYkQ/pokZLX6wLcqHWQGWp7GvIitT9J3yYX16MPLs5C6WOWUhHka9yT+/C5IOh5FxTn1iqQonKTGyD+gz15nZob7kkxk6wqwJy4eYAWSmMZ+OxPxy0g8zK+SXmZMZgaVS6Ajxsf8qLqlJw0wMes5sCHrGEqiqYL8LskdHaTOQHSe8cYhDOm/kid+HQLeQD7OTpcB7lAWyQNbIjRm0CLNwpJny4F42XuoGOkH58ON3VcVLGfGbPIXyUV34ETz2iLDMFJ2OoEfMDjELQRmTdpadCSGEmDOQMyHEf4S0M4FTLGYv0ZnAkZAxLIQQoqZQY/ZMCCGEEEIIIWYvciaE+I/AUqF99tnHlheJ2Q/L4PiRRw4YEEIIIWoKWuYkhBBCCCGEKAvNTAghhBBCCCHKQs6EEEIIIYQQoizkTAghhBBCCCHKQs6EEEIIIYQQoizkTAghhBBCCCHKQs6EEEIIIYQQoizkTAghhBBCCCHKQs6EEEIIIYQQoizkTAghhBBCCCHKQs6EEEIIIYQQoizkTAghhBBCCCHKQs6EEEIIIYQQoizkTAghhBBCCCHKQs6EEEIIIYQQoizkTAghhBBCCCHKQs6EEEIIIYQQoizkTAghhBBCCCHKQs6EEEIIIYQQoizkTAghhBBCCCHKQs6EEEIIIYQQoixqjjPhvXO//ebczz//88P12c1ffzk3cqRz553n3OTJycV/gcsuc65uXedOOCH3HTk99VQuXe+8k/uej19/dW6XXZxbdlnnBgxILs4Au+/u3HLLOXfPPckFIYQQQggxt1NznAkchoMOcq5FC+eaN6/8Oemk5KHZyMcfO7fvvs6deqpz/fsnF/8FJk1y7uuvnfvkk9z3r77KGfak6/TTnfvzz9z1LL//7tzbbzs3ZYpzH32UXJwBPvggF9YXXyQXhBBCCCHE3E7NcSaYCcD4xXjGcP72278/06YlD81G6tRxbqutnGvVyrkNNkguzgEssYRz22+fS1f79kEDtNJNCCGEEEKUR820JHfe2bk33vj707dvcqMMGLl/8UXnHnrIuR9/TC6mYJkQzst99zn3wgvO/fFH7vriizs3ZIhzo0Y5t+OOuWtp3nzTubvvdu6ZZ3JLigpB+Dx7//25kf0s3P/ww9ySqgcfdG7q1ORGARZe2Lkbbsil69BDKzsTP/zg3MMPO/f88znnLB/E9/nnubjI82efJTcyICtkhuwKhQXMKD39tHMjRjj36afJxQwsE2N5FM/98ktyUQghhBBC/NvUTGcCg3n55f/+LLVU7vo11zi35JLObbvt30Y/S3gaNszNJDz+eO4ay6L4fumluWdbt86N5vMcRm8EI5clQ02aONepk3MbbujcRhvl7rFXY7PNnKtXz7mhQ3PXACN87bVzy686d3Zu001z4RIXTgWGN8uPll7auSuvzO1b4NkddnCuWTPnBg3KGfR8nnzSuY03dm6VVXIOS4cOzq20knMnn1x4nwhxdOyYSxf7JogPh4lwmzZ1brvtcnngme+/T15KeO213GzLyivn4iLPjRvnlnN9913yUOC665xbYYWczJAJ/7O8Ksv11+fyjpx22imX9j33dO6bb3L3+X+ffXLpQg48t+aafzswjz6ai6ddu/yOnhBCCCGEmKXUTGcCRwHjMn6iYY3By+j7l1/mjHHgHoYuhmtcDsVzfD/+eOeefTZnsC6wQO7aaac5N3167v2zznLuzjudW2QR50480bn998/NEgAGOvsDMMgJj+fHj3eua9fcTAPLjC66KOcMED9xPfBA7l3iYXlWjx4554P4F1wwd+2YY3Ij+DgBOCmEhaF97rk5x4eRe/ZovP9+LqwsvMf7pCvOdBAG+01IB3lp0CA3y8IMRBqM9zFjnNt8c+fOOce5Ll1y+SQdzLAAeyN69crJebHFnKtfP+ekpfddIAtmP8gLadhrr9wGcZ6/7bacM0S4zGwQNrM8Z57p3NFH5xxFHDWYMCHnWLz7bvHZHSGEEEIIMUuomc4Ey4dWW+3vT7nLnBgpx4DGQejTJ3cNoxhjnOVEGLvzzefc1VfnHIOBA3NGcj4w4jkVCSOe0XiW7eCA4Cyst17uGZYypcG4Ji/Ef9VVztWqlXMoSAPLkzDaX3/duTvuyG2oZlkVYWNsT5yYBFICjz2Wc6qYwYn5HTYs51ik6dbNuZdfzjk9OFU807JlzvBnrwrcdFMujcwAPfFEzqkZPty52rVz94HN3ciTdDLDwbIr5Hf55bl8sdQK+eIoIDdmZHA2+vVzbuxY5xo1yoXDcrYLLnDu4otze0GEEEIIIcRspWY6E4x8Zz/l0KaNc23bOjfvvM6tu27uGoYwMxMcq8opScwYsAwpwpKjfDBbwv4NIFyWXwFGMCP9EA3yyKqrOrfFFrn4WWrFqDwQP44FjgMj8rff7tzZZ+dmC5hdIb/VGamPjgeOAcuSiG/rrXPOVBqOdp1//txeCZyBU075e/kS8SGbl17KfV99defWWis3o8NyKJaCRUgjsyGAc8WyLpaWcWQt+WJWgxklnCzyPHp0zinkmFtkHvd5IENmMfbeO5cuIYQQQggxW6mZzgTr71nfHz8sp5lR0huVMdYxguO+CwzgqmCEPS7PYT9EmjgDEMPLBwZ+jIf4CY/ZCpwM9hn07p37jrFdXXBOgNmEdD6zMJvC8iz2ejAzwT6PuKwLSFPcu8DSJNKcD5yO6OywjIwZBz7MdBA/S6OYlWEvxC235PZ3sMn9uONyezbiMbdCCCGEEOJfpWY6E8wW8ENt8RON9WjcYjzHfRTsT2CZTnVZZpncaDiGcXpvQSGHgLgx1oG1/vE5HAP2GQAj/6Xy00+5jc78z8g+ew9YXrTGGskD1SCmiyVJ0bEg3OgYRNiLwf6PAw7ILUFChhj3EfIYHSU2p0fnKRsW5bPoorm/cfRwLAgrfpj14cfyWEK26665WYy4qRvZXXtt7t3o1OmEJyGEEEKIf4Wa6UwUIhq6LCe6666cQYwxi0NQXVh2g/GP8XvJJblN3eyl2G235IEMGMZxqRSblV99NWdEYyjHjddsxi4VnBGWC2HAszSJkXyMcNJRXaIDwv4L9i/gYLGfIzsDwKwHsyMs62IPBE4Qxn2EPHLiErz3Xm4PCDJGJvwGSIRZiygL9nsQDrLAkcEpYqM6jgJyYY8GziCzL+usk3sHpwk4zYpZDE6fyjo+QgghhBBilvPfciYw1jFkmYng5CWONcWQ5f/qwmg+YQAbhjkulQ+/95APlu8ccUTuaFNG0tl4THrYL4HxjkHMBudSYS8B+xJwZngPh4IfoeN7dSEtpB0DHudqxRVzpyqx5yENP77HUiY2exMfeyyyv2vB/gWcExy0/fbLHevKRnVOiIrgdHD6FHsymMFADnxYQsXzPXvmnCV+o4L9JcTD/f/9L7fHJMrprbdyDggzQ3HZlBBCCCGEmG3Me2Yg+Xvuh1FwRuj5TYYWLZKLKVjyxIg4y3kWWih3ShBLZrjOd/YCsD6fTcUYp9tskzNwAeOW/QH8RgRHseKUsF+BUXOW/vA+y3AwpuPSn48/zo3gs4eDE4hwQAiT2QOWALH8h+VSe+yR+80F/gZG3jGScTT44IhgxBM/Rj9Lf0gnhjbHz8YZCuLmhCMgTjYokzbiIhwcAMD4ZpkRvyWBwxDTxYwNcRE2m6uZDcBZ4HcicBDWXz/3nfhID3LGQSIfOCTIE3mwcZpN3Wy+xolAxQiD53gH543f8WBPBOknr6SRZWPIlyNg2XzOrAN5Jk6cJBwNNpqTVtJJGLzPJnU2jOOkCCGEEEKI2UYtH0j+/m9AdpkZwFnA8MXgnREID2MYYxdjmDCr2pCNIY5hjYNC/KW8UwjCICycCRyEcsMhH8wmkBeM8kJpSm+yxnHDqM8H8sBBIH/MohRKF7NEPMf/5IFn004B18kf8XKP/RZCCCGEEGKO4L/nTAghhBBCCCFmCgWGlYUQQgghhBCiOHImhBBCCCGEEGUhZ0IIIYQQQghRFnImhBBCCCGEEGUhZ0IIIYQQQghRFnImhBBCCCGEEGUhZ0IIIYQQQghRFnImhBBCCCGEEGUhZ0IIIYQQQghRFnImhBBCCCGEEGUhZ0IIIYQQQghRFnImhBBCCCGEEGUhZ0IIIYQQQghRFnImhBBCCCGEEGUhZ0IIIYQQQghRFnImhBBCCCGEEGUhZ0IIIYQQQghRFnImhBBCCCGEEGUhZ0IIIYQQQghRFnImhBBCCCGEEGUhZ0IIIYQQQghRFnImhBBCCCGEEGUhZ0KIGsSff/7pPv30U/fTTz8lV4QQcyN//PGH++STT9zPP/+cXBFCiDkTORNzGMOHD3dbb7118k2kefXVV13btm3d1KlTkytzH7/88ovbe++93TnnnJNcmbk8+OCDrmXLlm7UqFHJldnHrM7bf4HPPvvMtW/f3k2ZMiW5IsrlvffecxtuuKEbO3ZscmXu4t5773Xrr7++GzNmTHJFCCHmTGqcM+G9d6+//rrr1q2b69Kli/v++++TO9WDUaGhQ4e6LbbYwi299NJuvvnmc7Vr17aOftiwYXZ/VvDxxx/PlM6PEWo6ohYtWrjvvvsuuVo1GDMNGjRwHTp0SK4UZ/r06e6RRx5xH330UXJl1vH111+7F1980f3+++/JlbmPv/76y73xxhtuwoQJyZWZB7MRF110kevYsaNr165dcnX2MSvy9uOPP5p+Ufb/BX744Qf30ksvzTU6/tVXX7n//e9/lUbPaRv3339/V79+fTd58uTk6uwHWdJefPvtt8mVuQdmF88++2x30EEHuU033TS5Wphy23shhJgZ1Chngg54yJAhrk2bNu62225zL7zwgvvtt9+Su6WDUXT11Ve7/fbbz5yRQYMGubfeesv179/fjO19993X3Xrrrea4zKnMO++8brvttnM77LCDW3jhhZOrVbPEEku4Tp06ua222iq5Uhym4XfaaSeTt/h3GThwoFtggQXcNddc4xZZZJHk6tzNO++843beeWf31FNPJVfEnASOBOUzadKk5EroVOaZx5xZnNqllloquSpKJfY/K6ywgjvllFPc/PPPn9wpTLntvRBCzAxqjDNBA3z55Ze7k046yV188cU2o1AujGbRiGNUP/bYY9Yprrrqqm633XZzTz75pFt33XXdscce6yZOnJi8kR9GVZ9//nn37LPPFhwtwgF6+eWXLc6qHB+W9xBWepkPS0uee+65vKPBLDc599xz3YILLphc+RtGsZk+f/fdd012kcUWW8w6smOOOSa5koN0kkbiIl/VgbhGjx5daXSZkbRx48aZPHFI8sEzb7/9tsVZbN0wcmMJFEt7cPaKOXmff/655Ru5VQVLTZ5++mkLMx+lxkt5EU5VszdffPGFGc2USTGICz1I74ugTNZaay138sknl7zGGvkyk/DMM8/8Y/SWvDBLRrrJYyHdLCVvyPqVV16xvCH/fBAOcnzzzTctXdWBtKNf6VlI0ku9IsxiS4Z+/fVX06+q9AaZ8hzOTbq+lMM333xj5YcellqXiJO4q6oLpYKsKHfKtlh+eA4ZVmdmCGeCAZfrr7/eLb744snVv6F8KRviLjQDg27TdlKuzDCUAuX3wQcfWL6KzUjzHDMm6G22/ZsRCIc+gXCpO8X0qRjoxGabbeZOOOGEonUhq/eF2vvYx1CO6b5DCCFmGqHBqxGEhtw//vjjfvz48fb3rrvu6ldccUX/1VdfJU+UzqmnnupDg+xDp5RcqcygQYP8vPPO6wcMGJBcqUwwnnwwxv2SSy7p69at65daaikfjHR/ww03+NA5JE95Hwwnv8466/j555/fL7LIIn7zzTeveC9y2mmn+U022cRfe+21vl69evYc/z/44IM+GPd+/fXX90sssYSFcfjhh/vQESVvet+lSxe/ww47+OnTp9v3m2++2W+44YY+GHV+tdVWszTVqlXLH3rooZZmCB2T32ijjSysyNixY32TJk0sLyussIJffvnl/Wuvveavu+46ixs1WmihhSzdwdHy06ZN859++qlv1qyZDwaFb9q0qV900UV9hw4dfDDyTG7LLbecr127tl922WX9AgssYPEFIymJ0fsvv/zSB+fN5Ew6ibdXr172bDBI7Rlk+cADD1heiD8YLiaHgw8+2AcD0p6B4LD4Nddc0w8ZMsTXqVPHZBgczuTu35C2rl27+v3228+ff/75fplllrG4CTt01HYfSo03dOL+qquuMhkRDv8HJ9Tk0a1bt+SpnMyPOuoou9+wYUPTl+AM+/feey95wvtbb73Vr7LKKr5///5WDuSBsEvVtSzBkPOtWrUyPed5/r/wwgsr7qFzXKecyCPlGhwPq1tQSt6QF2FSxksvvXRFuoPDU1HWhHfllVeafjRo0MCeCYaU6dBZZ51lskW/eI88brPNNqbPwRg3nUAHSSPvIwfy3KdPH5MDZc2HsqH8ojyCwekbNWrk+/bt61u2bGnpJ9xYB7Lceeedln7SQHoOO+wwK6/27dvbffK55557+u23396+R4KTbGV211132XfaIvQLWSETwqIu33///RVyDc6zXaf+RKgLe+yxR0VdQE433XSTX3311e0evP/++xbXsGHD7DtQRugk8gzGuV0LzpO/7LLLTLdpH/l/1VVX9cFJsftAfUe2tBdrrLGGpeeII45I7v5Np06dTCaUD+mifC699FLLC2VA2/bdd9/Zs9RBvo8YMaKi7SE/W2+9tQ+Gd0X+keU111xjesAzhM8HPUq3D1mCYW3lgh6TXtqWk046yQfHxj/88MPJU7kyOOSQQ+z+SiutZM/uuOOOFW1KPg444ABrm9PxU0eQ0T333GPfqcO0G5QtckX/LrnkErsHHTt29LvvvrvJP4IsaEuDo23f0esDDzzQL7zwwpZ/5Mln6NChdh+K6X22vUemt99+uz1PmMiTuhCclEr9xAsvvOB79Ohh9UIIIcqhxjgTWWbEmaBBppPFGMjHyy+/bI0zjXI+6EC7d+9uHTSd/YcffmiGB4YNnT588803fq211jJjAqdl8uTJZoTR2NOBRI488kgzoBs3bmxOAA0+BhCdVf369a3zJp10kHSkaaOAODfYYIMKQ+Lyyy+3sDBkcIiI8+ijj7Y4hw8fbs+QLowSOj6gk9pyyy0tHJ7HWCYdH330kXXg9913n8VLZ4Rc3n33XXuHPGOAERfOGWnkfTo4DJN7773XOvAvvvjCH3/88WawPvHEExYnRhCdKh0lDgDvknY6w7QzgeFFp4vhO2HCBHsOw5SyoWMnHMBYwyCh46ZzxXj5+uuv7V4aOnqMSvJDBxzzidFE3HTkUGq8L730kpUlxgrhEB5lhgMXDW5khTGAcYODMnXqVHPU0IuddtqpwgDGmcQwQqaDBw+2OCmrUnQtCwYbjgRx8B5h4axgjMDAgQPNECMs6s+YMWOsHDt37lzhUJWStx9++MFk99BDD1k5kz4MPso6OuroBGFjfFImGNEY3xhExI0hRXlgmKFf5AkdevTRR00XqKf9+vWzPBAH9zCg0SW+cx1dxshjoAEoM4xI0r/vvvtaPnkuGrRp0BXyhTNFuZMGjHjiXnvtte0ZnBBkjkzTkFb0BnkCgwfIBkMUWUyaNMnqMuGTVsg6E9EhyNYF0o5c0nWBPKInEd6lzHCkcc4Ax4iwaDeoy+QPZwOHItaJp59+2sqR8HDgiTM6LWnI33nnnWd6f8cdd5hsCBOdpU5Th9BRoA6SXvSS9BMmjg/1cq+99qrQK9KHfqDT6BXtHfmnjSLNsT5kwfmfb775/AUXXGCyQ5+pU1lngrYH2T322GNW12ivGCih3hdyVtBhHKAoQ6BOkB/aUfSGPJE3HDHkSLox0iMM4rRr166Sw0oaCYOwgLLEcRk3bpzJm7TRR1A20UEopvfZ9n7UqFGmSzhs6DxlTVuMLGlz/vjjD3uOv3EIcR6FEKIc5EzkoU2bNma8x44wC408RgKdXKkwk0AnQCcGdHCMzF1xxRX2HRjdwpGhs4vgTND50zFEMKx4l/+jAYRRSGeK4RbJ50zQeWGgxU6Zjg9jhk4Mss4EHSzGCEZJelQtQidF508nniY6E4ywx/gLgTzp9Egf4KSQBkbzYpx0fGeeeWaFM0H6DzroIOtU33rrLXsGeJ7On1HHtCFDB4ohEY2WfERngpHfdJgY95Q3Mio1XsoljoBi6EUwaJF3NLiZfYhGWxoMJ/QA2UB0Js4444y8Rm+arK5lwWnBAEQP0mEVMtTI23bbbWcGNWVZat7ygR6TD4wwYFSW/OPk5csXs2+kFSMzTTSqcN4KpTtCHBitGLwQnYmNN9640ghtFtLD7Ahlj/MU+eyzz6xOVNeZyAf1n7qMgwFZZ6KUugClOBPklTJEx2NYMHr0aGtjooxxJjAucWaLzQYAji2yff3115MrOT3K50yQ3nPPPbfCiEVuW221lc0S4RTjfCJTZltpCyP83bx5c5sxzZceyok2m1kUHIQIck87E7R1pOnEE0+sSAMw+0tdQy/yUZUzQX4ZWKLdwLjPRynORD7QD/QhzhoU0/t0e4/zwSAQM4Xpfox3qMsMJEQdow1ipis9qyqEENVBR8PmIXROrlatWsm3fxLkZv8HI8D+z8L90JHbGviRI0e60MG7J554wsINnYk9w/rnYOC61q1b23cIxoCtlc0SOmsXDIrkm7PTloib0ztiOpdbbjnbfBs6C/teCMLidJDQydr3OnXq2GlVhfZ0BEPONvbdfffd7tBDD7U8hY44uVs122+//T82AyOHYCDY2uYBAwbYcbikO3SCdj84gLZGOxgPFZsPyS8b6yM8i0xDJ+9WX3315Kqz50OHamuDg+OQXM29v8cee5S0mXH55Zd3K6+8cvLNuWbNmtn3YPCVHG/ozG1NPO+y3yZCOMsuu2zyzdmabdZIf/nlly4YDhUfjrUkrmAsJk86WwsdDJtKulmKrmVhH1AwHm1fUTqsqBOEGYw2SxsHGrChm/CJh3ul5g1IB2u72RvDAQbBkbHrMW3IsUmTJnb6D7oQDLaK+lUKbDiN6Y6gn5RDMLwsTuSS1q9IMKpNDoUgv6xJp74FIzy56uyUonR9LBXyhW5MnjzZ3XXXXbY3iX1IyIi48lFKXSgV9oXQ7lDmyCXqGvoA6U3UxLH77rvP1M28lBMbswkbyM8666xj+oFcgnFrOrf55ptbWxih/UBPgqGeV6dpuz788EM7BjY4uMlVV6nMgFP+kCV6gOzTdS04V0X3WRSDfG277ba2F4a0P/XUU1ZHqqPHEeRAXeNYWNL42muvmX6QvjT59D4NMmH/Eac7pWXCOxwdTV7RLWjcuLEdNrLMMsvYdyGEqC5yJvJA44tRU8gYoyHGYKlXr15ypTI0/BjeGJts5L7//vvtuFc6hQgdGg07BmJ1yefocC3f9VIgHcU6PvLApnaMDgxIOh6MtXKhkyScvfbay4wqNgamHRTkzvfFF1+8YJ7odCkjnKE0PE/5VeVUVQeMnoUWWsjiLDVe0o+TQB6KdfroAbKn43/88ccrPhicHG2cdmryUYqupSEujB70rpDusVma3/PA6IjOCc5OpNS8YSCfeeaZ5nDgLIwYMcJOWEuDsYrDwuEGxx9/vFt77bXtIIW0PlSX3r17W5xHHHGExclm53L0gXfIJ8ZssXyWypQpU9wuu+xieTzvvPPcQw895MaPH1+07pVSF0qFsNBfDO+0rr388sv22zYY47MT8oMzh64iAwxwdGapzAlQPEf+kUM+WVEH+FD/ismIjdyEgVORzj91sHPnzgXb81JgEAgHgDBwLKg/DJZUB8qHtrVp06amw+gH7UI5UM6El3bKIsgSOc5IHRNCiDRyJvKAoUvH81GBE2owiOj0GPXJB8YLv1Fx4okn2sgSo7EXXnhhpVFxDJRorKSZmUbwzIJOGkOPk3+OOeYYd88997jLLrssuVs9GAWko9x4443tuF1+Q+DGG2+0U6QiGLn8rgejiGnjIW0gI0s6RUbX0p0izzOaTxjlGoBZg4UyYqSPGZxS4yX95AnDPftcOnyewQA6/PDDzfBNf9Chhg0bJk/mpxRdS0Nc5APDLat7gBHCqTAYvjgVhM+sVHokvNS8YaSef/75NiM0YcIEM44uvfTS5O7fMOrMsbY8v+aaa9qJbM8991xyt3pgfF155ZU2qs5pYcR53XXXlTXCzgg6+cR5zM4cpPOJTCnzbN3le/o55Ii+MxpOXnH8jj766KJ6WkpdgBhGtjzSz9HmEB6OQ1bXSFu+WdGZTTYP1CNmVJE1ZYTexhHzCM+RfxwPZJGF9/kwop/Ob1ZGtGPEc+SRR/4j/7feeqvNQOUjlm0x+RMux2kzMIIsSe9RRx2V3C0tjMGDB1vbiv4yC4p+cGpgOSAPBkCoo1lIG3IsNisnhBDV4T/nTNCgY2TkM6QiLH9gpIvlHVkD4eOPP3aXXHKJTQ0X+jEhpuoxMPjhtzilT6Oe7jwYOcVwS4/U0onedNNNybc5jyWXXNIMPZalIAegk+TDsphSYKkCssfAjA5E1lhjyRYdP7JBRsD99G9ZYNBj4FKW6dE7yo0OfaWVVip7iQYOT/rYX5ai4FhihJUaLx+WoaELfCIYCR988EHyzdkoJM9itJdDKbqWheVNyDwuOYrg3GGMUkakKzoyhJVeIlRq3qKOMFIbnZtC9Y484MSfeuqplg9mZiDmqVh9TUO5oTNdu3Y1YwpYRpM2skuFNLN0DXngqEXIM7M/EQwzZqowZokL0Fccp3S9QK8w5jfZZJPkSm6WM21gZknXhVhHsnUBGIHGgCRtsexxbtHdCKPmtFss3cKZnBkgI9rIUsLjOWYiY1lQZ8gXywopq7i8EAcwveySgR0GMtZYY42KMk3DTAb1jrCi/CGr3xydTDmx7K06+lC3bl0rW4xwQL633357RduUhWWhDA5EHQbaztj2AWEwk5GGsiIvLGWMziFOfTkQH30MYcZ0A/mO7RTL9SD2iek2WAghqkONcSbokDnfmxFaPnQ+dEhnnXWWLf/AeAIaUgwErhWCda+MGN5xxx3WsN9www3WebDUB4OSjuCWW26xTj4fLA+hk73qqqssPv7PjjCxpGC99dazXyzG6CC8XXfd1fIRO5I5gffff99+Z4P17HTOjJqxTII8AqPcGDx33nmn5YERZqbXC4EjssIKK1g4jNIyinfwwQdXMqhwMthrwTIBlsmwDOaAAw4wIygapRifnMOOcd+9e3c7057RRX4xllFflrhk92qUCh0+BgFlg3N33HHHmaHDsqxS4+W5ww47zNKLYUEeGPFn6VLMA2A8MduDcUg8yJgRSeTTs2fPKjv4UnQtS/v27a0OYLij06SN3wVgJBWDtHnz5uYoof8sAyE8HIVIqXljxgHHg/pDOOSxV69eFkfk5ptvtqUdxHXfffe5fv36mcGN4QcYPNQzHHtGbomrmExIOwYZDj/Ls9BJlliVA/lE71hLTlmj28zIMdiQ1nHq65577mlOHHlBHxj9Rl+jwwys4ccApS6h28zasKSrGOm6wIxerAtxn0MEZwJ5I0eWEaIH6HB6JJ+RaH5VGYeL8mYUHMOdfFGO6f05pcLeEeKg3Egbe2mKwSwaskFGPXr0sGVe3bp1Mz0hD6SPvRPUNcqbWUuWIFEnmR1N61cE+fMMjix1JsaBbqFLERwJnEzanNNOO62irlGmpCXtMKehvuAsEfawYcOsjHkvyhZ9RH7UJxwV5EC6YxsJOJA4F5Qh+eKH/sh7GvSKfoqZRfoydJhlhtGhrg7Ik7aTdO+4445WBwcNGmTL7Jgl7NOnjzkcgBzQTXRHCCHKIhhxNYJg4NvxnJyyk/1wqlM82vCdd96xUz/Sp57k448//vChU7bTP0KHbqedcOIHp49wpGMxQufiQ6dhx7fyXuhU7FhI/n82OV4UQudip6sQfjBO7bcWOFklOBnJE95Ok+F7+qQNTicJRqiddBPhZA7yFYy25Iq3Ixc51SoYPvY9dHK+RYsW/zi1g9M9OCIWOFGFU0c46hVCZ2Sn85B38kKeOKmFPEY4ypOjUmNeQ4dop8xwMgunnWQJnZed+sPznCrC6UOhk7PfRogE48F+ZwK5IB9OQ3n++eftrPqvkhO6KHNOLOJox1hGhEs+0wRDzI5X5FSmYvyanObEaTKcax+MDwuT334gHuKDUuP9888/7XchYjjoIbIKhqkdxxgJBqYd2cjpVzxHmLwTHN6KE1s47YhTfdKnJ0GpupaFesAJOcTFh7wgJ/jiiy/sZBiuBwPPTrHiNxmQTTxNp9S8BQeioqz5f8SIEb5169YVRxEHw9bKNMqR07CCgWv3IpzyFfUPXUWf0YVYLln4HZPggNjzlPu4cePsVLFg6Nl9jhxt1qyZ/Z5BKXCMMe0I4aGv6DRH4sbTnCKcEhT1lWODP/nkEztliDxDMFbtyOOYF367IOoRJ2EBaaMeUwYR6hPH9saw27Zt64OTVOk0JwgOn4VF2NTHK664wo5upc1KlxtHgHJMMs/xQXcIn7oPwSnOWw75oCxoY0gXH8qK+kH9CQ5rxalMwfi2U98oG8okxstJSrS1Ef5Gr+JvKBAmJxKlj7zOB+0Uxw4jW97h+F5+24L2jtOpIjzHyUtRb3mWuDhNjfqfD2RHHaAu8DynJNH2okOULTLl5Kh0mokX3Y4gB07qowz50N7RVnOSVbpdIm3cJxxOG+O3XZAjx7pCMb3PtveA7lLvSBMfyj3+NgZQVugSZUPfI4QQ5VCLfxK/QuSBZQpsPmV6ODTGdlpNKSNFiJWpcUbUGNUOnUNypzKEz3OM1oZGv6xRqFlN6CxNBuQldHQ2E5GePSGv3GdUjXuMMBaD51mOwEguMxuMPDMKnAWZM0rJ88xm5BuVBEbfGFXlOcqHcsoXXlUwaswoHmnjRBbywzIUyoUws5QaL5vVySvLJYIBlVz9JzwT1zMH49VkXUo+iL8UXctCftPyTY/isgSFZRlc416hdFSVN8ImT8wSFtINRvmRI+WNHHkmHR/6x0lEpIn8VTXjRJwsD2F5DOnKhlcOpJ8w0dVgiLqddtrJRsJZHhIhneQDuWblGSFtyJy8sEY/3zP5YPQbGQTjzwXHzU7HYsaQ5XfpjcPoAGmgLMh7IXgOnQGepR6WOyOa1iPylJ55ijD6zcwrJ2wxI0te0NNsWxKh7GhTqPPUv1LkhGzIO7ItJH8gnVFvqWvIibpWDMKOOoj88+UxnWb0NPtMbM8gnsiXJep61KF8y7qqC30McqEOoCvp+kP7Fpwjm2Fitig9kyWEEKUiZ0KIhKwzwVIBIfLB8sesMzE7wSjP50zMqaSdCU46EnMGDz/8sDvwwANtuRunjAkhRDnUmD0TQgghhCgdjpRmr1XcoySEEOWgmQkhEljKwKk9LClp1apV2cs+RM0HPWH5CCd7/Ruw7IoTpfgRuFKXSv2bsKSIAwo4eKKqJUVCCCHmLuRMCCGEEEIIIcpCQ69CCCGEEEKIspAzIYQQQgghhCgLORNCCCGEEEKIspAzIYQQQgghhCgLORNCCCGEEEKIspAzIYQQQgghhCgLORNCCCGEEEKIspAzIYQQQgghhCgLORNCCCGEEEKIspAzIYQQQgghhCgLORNCCCGEEEKIspAzIYQQQgghhCgLORNCCCGEEEKIspAzIYQQQgghhCgLORNCCCGEEEKIspAzIYQQQgghhCgLORNCCCGEEEKIspAzIYQQQgghhCgLORNCCCGEEEKIspAzMYcxffp09/XXXyffRJrffvvNTZkyxf3111/JlbkP77375ptv3A8//JBcmbkQ9hVXXOHGjx+fXJl9zOq8iX+fn3/+2dqnubkOCiGEmLnUKGfijz/+cPfdd5875JBD3K677upOOukk99577yV3q88vv/zibrvtNnfQQQe5zp07uwMPPNANHTrUrs8qbrjhBrfWWmsl32aM0047zfXq1ata6cUQPPzww90ll1ySXJlzGD16tGvSpIk5FHMrOIvbbbedO/bYY5MrM5c+ffq4vn37ugUXXDC5MvuY1Xmr6WCoH3nkka5fv37uzz//TK7OOeAs4qiuu+667ttvv02uCiGE+K9TY5wJRq33228/1717d/fmm2+6Tz75xF111VWuXbt27pVXXrGOsDpMmjTJbbHFFuZAvPrqq27q1KnupZdecgcccIDbcsst3UcffZQ8OXP5/fffZ4qzgmP15JNP2gcjr1SmTZvmHn/8cffcc88lV4rz5Zdfuh133NHdc889yZVZB3lCNtUtyzmNX3/91fR1ZvPyyy+7ESNGuIEDB5rT9W8ws/P2wQcfuE6dOrmxY8cmV+Z+kBEO+0UXXZRcyYEzQX0dM2bMHOlMAGVL+msayH6fffZx119/vWZdhBCimtSomYmWLVuaQfXEE0+4p556yg0YMMB99dVX7tJLL61W58xSjZ122sm99dZbNtPxzDPPuEcffdRGxjHUXnzxRbfnnnu6n376KXljzmO++eZzDz74oHv44YfdUkstlVytmvr167vnn3/e3XLLLcmV4jCTgWwmTJiQXBH/Fosuuqi74447zAmuKeDEo18ff/xxcmXuhwED2qgXXnghuZJj6aWXds8++6wZtPPPP39yVcwOcJJGjRrlXnvtteSKEEKIUqnl5/Zh3iLgSDRv3tytvfba7v777y956cdNN91kS5uuvPJKd9hhhyVXczBqdeKJJ7rLL7/cjPVtttkmufM3PIPD8dBDD7l33nnHHJnVV1/d7b///m7llVdOnsqNUA4ZMsQMC95hBHby5Mnu3HPPdd999509QwfHtY033tjdfPPNtha+RYsW7ogjjnALL7ywLbt65JFHzBBhZG3DDTd0tWrVsneZLSBuHCOcC2ZsmKXZZZddLI8YLksssYS9t8kmm9g7pOn222939erVc1tvvbVdY7Zi8ODB9jyzA+utt57JBwOPZ1lWw7ObbbaZq127toVH50zeNt98c3NoeLd9+/b2HvkhbXTcOCMrrbSS22233dxGG23k5pkn598ij8cee8yMY55p3bq1PdetWzebFSJ9gJxYioajx+hiw4YNbYlbmzZt7D6QTmREWfXv39+WvjEyzKxVGmSFniy00EKucePG5lC9/fbbVmbMerH8LMq2lHipWu+//76VG47piiuu6PbYYw9bhodeIlOI+kJeGYlfZpllbLlQhw4d3AILLGDPUO7owrbbbmvG5sSJE93RRx9telGKrmVhtuquu+6yWSjKd9VVV3Vdu3a1POIkP/DAAxbf559/7hZZZBFzUEg7soFS84aTee+997px48aZnFZZZRWLZ5111qmQJXm58cYb7Vn0EV3q0qWLObXDhw9311xzjYVNPW7QoIHd++KLL0yHtt9+ezds2DD3+uuvm4O/8847VwwCoO/MZFGW6CTvw/fff+9uvfVWK39kh35SbtQp6kkWZt+Ig5nJGN7uu+9ugxcRBiAoF8JDRm3btrUyiOUXoU1CZiwjXG655SxdxLnvvvu6xRdf3OJZfvnlra5QF5DBp59+auVMnaXOMDjAe1yLUN/uvvtuqzM4YAwKoEPofEwD8kdnaW94fo011rCZV2SaD9qCO++80+RDeRMWOsZSTOpFnTp17Dn2UNAOMaPCc5Qt9SXW0XzwHHlD56mftF+0U+g8bQzhoQvMesY2IdZPdBd9AJZb0c4QN04ace+9996mj/Djjz/afXQKHUQXKUNkg77gtHGdGb3LLrvM6g7tMPIjHEBfSCd1PbZXpHXTTTetSBvXaS9o57jGUjDaOtpDoF4jf8KP7wghRI0hNOo1ltCA+9BJ+c6dO/vQeSZXq6Z79+4+dOw+GDfJlco8+eSTPnTQPhj9yZXKBMPCB4PDB8PJhw7Jd+zY0QdHxofO34cOxZ4JHaM/44wzfDAkfLNmzexe6Dx96Gz8kksuac/AkUce6UPn5YOB5oPB54PBbXEHo9IfcMABPhgkfsstt/TBwLC8Tpo0KXnT+2CQ+A022MAH49C+BwfIh07Wh47Qr7DCCnafuAgjdOj2DGkn3cFYsu/B0LV0BgPJB0PeH3PMMb5Jkyb+f//7nx8wYIAPhi/OqF9sscX8sssua/EF49R/+OGHlp5gYPtgdPjgrJgsKIdgmNqzpCMYUb5u3bo+dN4+OBkVcQZD1/IZDBIfnBQLC5lyLRi49lwwFHwwEky2wcGxcEPnbWkNRoOFA8EAsTQQH/kPhqO/+uqr7V6aYDz5YDD5YJBYviiX4Az5RRdd1P6eMmWKPVdqvMHh8MHx88EYt3AIAzmhW8gSePaFF16w9PEssqY8yWcw2irCuvbaay0c5BucBNOXYFyWpGtZCLNXr14+GDV+zTXXtLRRBvwPwdA1XSSMYBCbPHi2T58+prdQSt54hnSha+gB15ETsqVuAvpAnij/4447zgcj0a+22mom63POOcfKHf1CT9GZYGz6YEz6Rx991GS01VZbmf4G491kR/ook2Ag++Cg2od0BcPZyg2o16QTOfN/cCpMdpR/FuoOukvZBofW8kpaSNfLL79ssuQZ6hL56tGjhw8GuskmOA5JKH8TnB6rz/POO6+VE3kiraQpGKQmR+QUDGN7/qSTTrIyatWqlT1HXSB+yic4NxY/6Q7OsQ+Gsb0fHCyTOW0LehN16IILLrBnkPGxxx5r7UlwXuxelmDQ+9NPP93SyXPoArIiXHQlOBD2HDIl78gjOGP+0EMPtTJGplHe+QjOnqWFsj/llFPs+YUXXtgHg9zSGwx6qxOffPJJ8ob3wYG0+IMzad/RA+o05YueInvkiayCA2DPxHYoOA6WLsqS+oM+0wYQ16BBgyxPXCMNhIFuAHGgu+gaZUr7wLO0CcGBt/cpq+A4mHwOPvhgk0PTpk19cJYsDCBNpCO2s0IIUZOo0c5E3759rUMdOHBgRYdaChgMGJ3ReMwyfvx460zoNPKBgTRu3LgKI56O+dJLLzWDBMMR3njjDQsDw4FOl/ThpNCBZp0JOvTTTjvNjHSMpcMOO8w6Pjq2jz76yN4dMmSIPYeRFcnnTNSqVcvvsssuZpDz3lNPPWWdMYYYZJ0JDNK1117b77fffhY375AOOln+RhbkC0Pzl19+qTCCYieOHF977TV7FjnAm2++afEA1x955JEKQwJILwY/BiDGBM9gfGIwpp0JjG3ivu666yxennv//fftPTrvaMzgTPDe+uuv7z/77DN7LhrFaaIzwbMXXXRRhbwx2jF8kB+UGi+GHAbj4MGDLRzCu/DCCy38tMGNo4hz8u2339o1ZIvxQzlMnTrVrhEWRjXGEEZVzEMpupYFwxU9wxmNuofhO3bsWLuPTvFMlBFpRI8wKEkblJI3ZPPiiy/a+5GhQ4dancRZhFdffdX0/eGHH7bvpAVDlTD5PPfcc6Ybt912WyX9is4EuhnrQEwvdQvDHLhGnMgDBxiiM4Hx/8wzz1TERRhpuNazZ08z3EeOHGlxc+3dd9+1solG68SJE+0ZjPVI1J18oPsY6BjC5Am9I+5CzgTlTv3jPZ7DiaH8unbtauWPYY4sevfuXeFAoiMY6Dhp1EXA8eJafIayjHqT5csvvzSnB8eEdJEXyhLHNe1MUDfIO+VH2viMGjXKypT6kQ/SzKAIuhz1m2u0OQ0bNrS0056hJ7fffrvdh1jmxEk8/fv3t0GUxx57rKL8+JuyRS8htkPUTRw5niNvOKzIAhnEa8SNM4R8Yr3G4cBhpg+J5YS+rbvuuuaU8B7yIXzqU2zjkGvaOcXBxEGJchNCiJpEjZ1vZTkAy4VCh2FLEuKSilIIHYEtiQqdWXKlMkyNB2O+4EZE7rOkgjBYcsBSEZachI7IvgN7O0IHalPtrHUnfSwTOv744+1+mtq1a7vQyblg9Fu8wbCztHFaFVPuvMvSI66FTjB5Kz+hk7clWixB4D2WY7CsIhhIyROVIcxgPNgUP2kOOmPpCMaZvU9eITgyeWXGKVjIgmd5BtZcc03LUzC4XDDu7e9gJJicgGUFLH0JzlBFOpEfJ1NFkB37V1hyEowvi5fnWG7Ecgw20AejIHk6R48ePSrCQ46FYKkPS16ivFl6wZIUls6UGm8wKmxpBOXDsgnCITzCZUlRhOUiLGEKhobJgyVgnFYVHFpb3oIcIsj6lFNOsbTEPJSia1lYwsRSD05dirpHGQfj2O6T5qZNm1oegrFkS3iCQWZLOYLhVXLekE1w4Gy5CmVKftA/0hZPA+I7Zc9yJg5NIC3BULYwY/6gkH4dfPDBFXWA54HyIz3BiTF5sOSFeyyNSsOyNPQ/xkUYaUgzS8FYztSxY0eLm+fII2XNkh/CpC4gR/ZWUf7IKOpOPshTTC95Iv/ZuNMEp8dO6aKe8BxLZUgDy7jQR5Y2EQ7Lx1j6COgIbQm6xBIgoAyDI2Wb2XmPdAdD2e5lQS8pe9rOYJxbWpHDXnvtlTyR2/vBki30jfRQfnxIL2nl4Ip8oNPB4bPllrS16DxyDAa5pZe/WfKI3gQHMHnL2XIr5Ew7iQ6yzJTlSCzTQreIe4UVVjD9YdlfGpZdUU/IB3KIcREO1ygDiGVCWZM/6gr6w9K6WE7oG0ugWG6JnNBN0kp+KRPCRK4xTGAJHHt/SJsQQtQ0aqQzgZF/zDHHWMfAUYZ0QNWBTpbOlk4hH4SPwUAnmw8MbpyZrbbayq222mrWicV9BBhSQIdJh4Uhn4aOLAsdWNrYiAZDNM6BjovwYviFIBzkEiEM3i3khGD4nH322bbWm06ctfMYv6USDbk0hEVnjMGK4YchHQ1VwAiePn263U+/Gw1LwAj58MMPXaNGjSoZROSPa7wfwwPCwehJy7EQyDH9HMbHsssua8ZVqfHyP8YNTgaGZYTn0uWGM8XzZ555pu01iB8MfQx+womQLtKRphRdy0L5YfxgeOWD91gXT3gYXaz/Zm8FcUGpeQMMNvbDxLKOa91j2iiTo446yhw01rsfd9xx/3ACi5GtP8CemB122MEMXOLEGSTMtD5AvnfTUNboIsZjFvSaOoPeEg6HPHDoAwY38qdcZxaUe1r3+Y6zgPNJG0VZ0BbhmKVBtrRl6Cuw1wu9YL8Azip6UwgMZcqbcktD3BFkStjsUWEwI+oujgD7INDffFA+6BBHV6d1/oILLjC9II3oJo4eMiUeHDv2NbCHgvIg39RHnCP2U8Uw2DNG3Nmja9HLdJ1GLsQVdTofxEE7TZ1Lyx9IA2GSBtpj2kjytfHGG5uDzX4iIYT4r1DjnAk2AzKKRMPO6CmjeNWFkS46L0Y280FHiyGR7WgjdLB0KHSYHP/IBkBGFrMdEhQy+IqR7hQj+a6VSlXvtmnTxkYSzzrrLOs8me1hxK4cMIAY7WQTKMbN4MGD3XXXXVfJKI0dPDIulLb4TNZABN7LGg8zAnHwwemqbrzF8gDcw9HB+WUze/ywmfbpp58246gY1dE1IP3xk0/3uHbhhRdaejDC2bDOpuB86agqb4wWs0kV56V379626Zmw0/A+sy3MfDFLxyZWjEgM5HLAiGQ2jNFvHDTi5Ijo6ICXQz45xbxjXFN+OEmczsSmeMqNOkIbNKvA0CXuKP+ol2l4hrTHvOPoYPhTBgyIUK8p23xEHcmn52mIn5nGtO7S7jIzgPzzwTt8evbsWek9Nkcz+4BDTF3j8AuMeQ5PQKYMQrCpOT3AQBtMG5KOmzCuvfba5IkZJ1/5I1vkQzrJC848MxM4SJQ7s3ykWQgh/gvUKGeCkTAMVKb9MSBYJhM72wgdAIZAvg4iQkfw448/2mkj2U6aToQTUejQMHrywSgunSDLibp3724nzrDcI90JMtpFOhhFi9Bxs6RkTgMZMhJ7wgkn2GkljIByykuE+8XkmQanBMMRg5dlGCwf2WSTTSqNeDITgAHE0qtozFAOOHgRZpsYGWdkMu30kQ6WnzDyXsigrgpGRimbCKPMLMVo1qxZyfEy8smINY5nepQUI47wI3F0nKUhnDiT/mCIE04xStG1NJQVxh+yJG1pyDPpYwSYUV6cExxzDCWWQUVKzRsnG2HUn3POObYECueEUeQsOGCMZnN6Gqc6sVSEJUMQ62+p+sWSHpaeMCPJiV3EidFMHNWFsmZZSly6FEEXGXmO9yPIlbxiFONIIcdilJon2hxG52NbhJzRR3QGXWMUnxkSZoEiPIsTx7vMzkRod5gJYjCAMsUAzwf1HdkTRoyX/2kXI8zMMfuB3jAin9Vf6kk+WCLIDCwDCOhW+h2csKjztN+Ej0OLk0CaWrRoYfdoL1iySJp4Jx0GYRaKuxjkl/BifomDGSCWyqVnCLlP20QdI30RZiZxkEaOHGllxIBABP1BTjFsIYSoSdQYZwIjhjXxHBfJUZIYLXSufFiqEDtuOgEMLpZVFIKRTYwlOgbWycd349Q867sxhAvNesTlL4ykAQbXxRdfXMnQYt8DhgCj8ozWA39zzOqcBDM9OA4YJUCHSMcYl45h9JMPjI5SjCOMCAy7OPJMuCypwRiK4Ezwo2s4hRhNgGPHHpEI4XCsJeGwxCSmj+fozHH00rMd1QFjll8iptwIFyMXY45116XGi0wYaccRYV05smFWB4M/vT8FHcJAouxxRiKEi+NVlUxL0bUsHJ/Ke+g3z2PgMKrO0ioMKvKYXhaEPDgWNVJq3uJMTty7wXPZkXDiTf8gHUYY78QlhMgSfSH+UvQLfSQPUb9YqoRTRH6qC44h+yoYcaZNoUxIA8eT0i7stNNOZtBy7CdOXZQXeSANhdbHIz/CxkmJdb8Y1EF+LJO2DNlgpCJnlgdSVvzPQAoOZTR6KbPTTz/dBkaYVaLe4uREfSWt5IV05AMHhLwx04UDwfPMAFBXI+SDmQLyj8Ef808acSLTzk0aZhNY0nb11VdXmr0hDzigMY3oD84BjiXOD85FnGXB0GcpGw4taYrvAGWfdnJLAR1DluQlhkX+GOygDaJdjrrJgAr5JW0sBcQxZ/9GzH+se+nf92EJF/pCWQohRI0jNI41Ak464dhAspT9hA7ITgiBJ554wk7n4BjKYnBiCid2hA7FjkLl5JZgHNjpIfHEj0IEw863bNnSjhjkxBX+5nSe2rVr23GCEDosO1qWtJBuTgNZeeWV/QknnGBHXUY47jB06nYKUSQY93Y6DaemRDjtaMkll/Sh002u5E5vadOmTUVar7rqKjvB5tNPP7XvEY7+jKc3xZNmSDcQLuni9JrQefrgZPlGjRpVnBQUOlg7qjF07j4YIHZ8Yuhc7cQT4oonIEV4ntNqQsdtx5gGA8FOjCFOTlCCYOT44BSa/MgTYSJ3TrHiJJnPU0fDEjdhUUbNmze38iLPwVCzZwCZB+fHTgYqBmnjNCdOwKE8OIqT/4NRY2kOhpo9V2q8waCxk8G4hy4hu+Bs2KlS++yzT/JUTtc4xYe8ImPKjTS0a9fOTvsBjuElD5x+lKYUXcvH2WefbfUC3SNt6CHyRfbBQTB5c4ITJ39RNpQT5UDeoZS88QzvkS/CCUatlTVp5XQcCAaq3Y/HrnISD2WAHgIy5xScYOzZyU08gz5Tj5E/R/GmQV4cm4ysOBKaMkG3KUvigmDoWpycQFYVwdg3PSV+yog0kGfiiGlEr5A3+s91/iavlE0hOHELveJ0pIYNG/q33nqr4lQgjksOxr89x2lOweC3k49ofzgmlrQghxg+eaadIM/oDeWGHEnvmDFj7BlkRjkhB+RLvLQr8YSrLLRP559/voWJjnBkNWHH46jjqUSEi96hP+hehw4drD1Bf4rpH/HSrpAn0hN1nlOeaD8inOCEvElHMOKTqznQDdKDHlAHg3NheSTMp59+2p7J1w4hW3QUWVK+EBwAOzGLdgw9R+eA/HFsMGkgveSRekP5fpickkV7SptIW4B+kw/+5pS1CCd3kS4dDSuEqInUmB+tY5SNkbA4OpSGUUKm9xl9YoSOkVJGPIuNXCMWRjUZLWZ9P6NzwaC2UUCmvhkZKwTvsgSG0UuWQzCCxugzS5gYrQqdnz3HCBijz4xqhY7GRq44BYV3iQMYsWe0kSUNpB8YwWPkjXcYvQPyTf4JPy4TiCPCjPQjg9AxWngsb4hhAe+FztLeRY6MnhEu38kLy2hII6N2jCoys0N6CBOQDTNCLP3hlJtgwNl7hMsIczAE7LkI+UGmjEKyJIdN3ciaUcf4LOlghJHTdMgbJ7+wnAPZRFkQB6OFLGthjTbPsUmczaDpOHkGeSGHKK98MKLIBk+eZfSZ0WbCZgQyGBFWbuS51Hh5jnwxw8KPBbKci+UglB9LJJBvfI5y4UfiGKln1oBlP8EwsiVlsewYASXvlFWEd0vRtSzUA8qT0WrSz74L9Jvn+c7IMrJHZix14jrpjuVeat7QDda888NgjCwzI0de0QvySR1Ajow8oxcsWSHvcQQa0GOW46BPpJP8UVbkkfqSXQrGaD/lwmxZMLpNH5Ed9Z1wiRMdr6oNiJAu6iknC5F3fjiQjekxjciLZU3MTPE/MwHES9ixjmQh/egXS/7ID/miTSGvlG8s95NPPtkNGjTI9II0xDqDvqXTTp4of+SIXJAhs2TIOaYB+VEWyJulRugK5VloSRxhMgNC3abNoA4SZ2xDeA89IC/UfWSO7IMhbemjvhZqJ3mPesYGa/SHeoP+IAtmS2KaY1nxPdb7NMSNHpNvnmPTPXGz7424KZtsO0Tc6AN1gDY05oNypt6zMZ12Hn0F6nrMH/WQsqU9IDzSxbssheI+s03kAR2JZcj7PM8ySWbmirVBQggxN1KjfwFbiOqQdiYwctIGrRD/BtGZwBnDgBdzF3SvbAbngzNav3795I4QQtQcatQGbCGEEGJOgVlD9hWxP0mOhBCipiJnQogEljuwXIflDdnlFEL8G7B0jk3AmiWbO2GpE0s6ObBACCFqKlrmJIQQQgghhCgLzUwIIYQQQgghykLOhBBCCCGEEKIs5EwIIYQQQgghykLOhBBCCCGEEKIs5EwIIYQQQgghykLOhBBCCCGEEKIs5EwIIYQQQgghykLOhBBCCCGEEKIs5EwIIYQQQgghykLOhBBCCCGEEKIs5EwIIYQQQgghykLOhBBCCCGEEKIs5EwIIYQQQgghykLOhBBCCCGEEKIs5EwIIYQQQgghykLOhBBCCCGEEKIs5EwIIYQQQgghykLOhBBCCCGEEKIs5EwIIYQQQgghykLOhBBCCCGEEKIs5EyIuZKvvvrKDR482E2ZMiW5IsScyx9//OFGjhzp3nrrreSKEEIIUTOoUc7En3/+6Z577jl32WWXubPOOsv179/fffLJJ8nd6vPbb7+5J5980l166aUWXt++fd1TTz1lhsGs4rHHHnN169ZNvol8/PXXX+7oo492l19+eUll8euvv7orr7zS3X333fbuf52PP/7YnXfeebPcsPXeu1122cW1a9cuuTLnQlqPOOIIt8466yRXZh7o3BVXXOEOPfRQN3369ORqzeWbb75xq6yyirvwwguTK+K/zKysW7ODl19+2fpk+mYhRH5qjDOBUUmD1b59e3f++ee7q666yh111FFuk002cR9++KE1aNWBDrFTp05u6623NsPr2muvdX369HFbbrml69Kli/vhhx+SJ2cuGL4//vhj8k1koRwZ4cVpvP322139+vWTO4X57rvv3MUXX+xuuOEG9/vvvydX/10oY/Rz0KBByZWZT6E4nn32WXfOOee4Bx98MLky65g2bdosqyszG9I6K+oes2hXX321O/HEE926666bXJ0zwKHs2rXrTHUscZ6Q408//ZRcETPCwIED3bHHHut+/vnn5Mrcx8yuWzjl9Pezw8CnzyD9/4WBACHKpcY4E8xKLLPMMu6hhx5y77zzjnv77bfdJZdc4j799FMbla6OM4Hxg8OAwYoBOn78eDdp0iQ3btw4cywwwhhlxPAXsxcMFWaMWOLUpEmT5Gpx0AscEBzMBRZYILn674Khddddd5lhP6soFMeOO+7onnnmGXfggQcmV8SshPaEgYjDDjvMzTPPnNXkfvDBB2748OE24CLmTEaNGmWzqnOzMzGzwTFBb59//vnkihDi32TeMwPJ33M18803n81KNGrUyC288MJukUUWcSuvvLK76aabXJ06dWy5Rakd+T333GNLm84++2x3+OGHu8UWW8yM0CWWWMJttNFGbvLkyW7IkCFum222cSuttFLF8ioaewzXyOeff+7GjBnjll12Wbfgggua88GUKR3DbbfdZvdq1arlVlhhBTfvvPPaOxMnTnR33HGHO+200+w7EC4OzI033uhefPFFm3LFQJkwYYJr0KCBPcPIIg4UI/UxLEZTnn76abfUUkuZPACn6r333rP4hw4d6l5//XXLX7169Sru4zR98cUX9jcGOGEwokoesowdO9Z9+eWXbrnllrO8AN/JG7JYaKGF7Norr7xi6Ue2OHike9FFF7UZpdGjR9uoD+UUw8C4ee211ypkg4zffPNNkwNhffTRR/bO8ssvX+EgEO5LL71k+WHWgjLiPunAaEJHkB1x4JTgJN555532HGEC+eC5QrBs7oknnnC33nqrOSjESZhLLrmk3WcUi/xgyKeXqzE6/cILL5h+IluWz/H+4osv7pZeemkLN+aVfBHGzTff7O6//3739ddfmw6RL0AfMDCQLUuWcHiRC3lCrqS/WBzIEh2gzKkrEcodJw2ZvP/++6Y3lEmUPWkh3+hDVvZAuh544AErZ8qBdx9++GG7jvMdmTp1qqX3lltucf/73//ct99+a/lDHwpB2kkDMn300UdttBZDArlH3QV0Fp1Gt9EBdAiZUq6xXgAOKaOayI66i4wIj3hYQhdhVivWPfJN+UYZA+VKnUTHkBtlRlx8aCeIg/cpJ56lfsZyTPPLL79Y+LQRab2hTGkz0DPeRXfRLeRGmvifsiBNsSwwtMgTZU758xz5W3HFFe0+EC6yQUeIt2nTphYunyhP/kbPyBPhUIeQN+UaQd7oyrBhw0zm6Crpp3zWX399t/nmm9tzpdQ3nqHsiA8nGJmhF7FuZSHud99918qZ+Ck/riGnGCbfCYdn0G10CD0j3NjWpOF5dIA2mhk99Hj++ec3Xaf/oM0ljciI6xHKBz0gP5QDeaE+IRPaWmRUu3Zt+8R4KVd0H10k/ciFGXH6Ldpa5E/ZMEBG+M2aNXOfffZZRX8yK2RKXSdd1E3aanSY8qYtAPJPemgHqIfUD+SdbkdKqVvoKH0EaadskBXtGXKN8kGviYNwaHNpR9Bz+lX0csSIEaZryAK9o4zoFxkoIX+kgaXOlAcypV9imTJpv++++0yfqbeUSQR5US9i/umfKGd0Z7fddrMyANJC3eE5wiJvxImcYvqpywzkUBeQGWVNGqOskB1tAvLJp4tCzFWExrPGEhpXHzpuf/LJJ/vQSCZXq+bggw+294KBnlypTOjAfWhg/MUXX2zfQ6PgmzRp4vfff3/7HgkNjT0XjEj7fsUVV/jQYPpVVlnFb7/99j4YdnY/GOw+NGL2TDDY7JlIaJB8t27dfDCEfGhIfWhsfegs/E477eRbtmyZPOX9gQce6IOx4IMRmVzJ5T90Kv6RRx5JrngfOicfGjxLwwEHHOBXW201H5wkixeCsWRhb7rppn6ttdayMFdffXUfjE+7n6VNmzY+OHE+GEPJFe9DB+pDg+lDB2LfQ4NqcbZo0cLvs88+vnHjxv+Q3SGHHOJDw23XkMU555xj+QydhF0LHaIPxpHlv0OHDpZuZBKcLrsP1113neVl6623rsjj1Vdf7UMHY3kgbvIH5Dd0Ij44WX699dazv0OnUym8fLRu3drKB/nwIQ0bbrihlROEzsE3bNjQd+/e3b5HgkHhQ6dhf4fO0wfDhKky+4SOxMo25vX444/3oYO0fOy5554+GD9+k002qZBx6NB96LjsHmGuuuqqPnT4VtbkF4rFEYwFey+WOYQO0cJEHmuuuaaVH7KGUmRP/klPWk+D0eJDJ+7XWWed5CnvgxNo6eW5YMCaLvA3YYYOOXnqn1B3eD506JbGNdZYw8orGAOWH0Bvrr32WpMXzxAv+eS5Cy64wJ4BdODYY4+1ukcaV1ppJcs7eojORKZMmeJbtWpl9/baay+/zTbbWLkcdNBBFXoUHH8LA91C55DdZZdd5oPRZ3lHHzfbbDOrJ+Rz7bXX9sFgtHfTfP/99z4YKpV0CbiOvLp06eKDkeanTZtm6aB8dtllF/uQ1+22284HA83eQR6k6aSTTrL4CRedSkP6eRe9iPrBp2vXrnafNOyxxx4mI9op5I0+oWfBILNnIBi5Jjdk3Lx5c5M38ZGm008/PXmqtPoWDEYrO9qJ/fbbz+pRr169kruVoayDcWz5IxzeIUzSGxxXkxXQvpAu9JH2eYMNNrBnaRPy8c4771ibF4w+a1ODQ2RpDgat3Q9GuelAMA7tO9C3BCPZ3ont77333mt6Q3mjL+gCZUKbHNlyyy39tttua7IlfcSLjCkX6jr1HJ1K12HkS32EWSFT6g+6hVxJF23Kuuuua/fRafJIvmibiJP0ovuRUutW79697Rnqyw477GBpp40Jzpvdpy848cQTLW+dOnXynTt3tvvBOfH9+vWzupSWC/UrGPg+OBnWPqO79OGET9lwj3pIeDwbnFwLg3QF58TihNGjR1s8yIyyQxboAHKgjQTqWceOHe0a8qCf5G/yGxxKewauueYa0xX6R+oVeQyOTHLX+913393K94033kiuCDH3UqOcCRrDiRMnWoM0aNAga0gw/j788MPkidLYYostrAP98ssvkyuVefPNN62xOeqoo+w7HVajRo2ssU5Dx0NjG43q1157zQzraDRj2NHRtWvXzk+fPt2u0UGknQk6LRoqGlY6GDr58847zxrCtJFGR0mas84E8T/88MP2nYaevNEJ0DEAYWIgYrBgPPHMjjvuaOHjVGD40Fki23xg/JD+tDNBg0kjOmbMGAuPhp20RiOJhn3q1Kn2d5QdHW7amTjrrLN83bp1Kwxs0kbHGOPBqNpqq63sXcIAOkI6F+JCDwiHtGM4YODglJEeHCMcFWTx8ccf23PEw33K9ZlnnrHw8oEsSQuQXox3OpxoYOFMYEzvu+++9j2Cg0XYQJrQSQwInA46p5gv9IPO7PLLLzeDiLShPxhx0QHDyMCooLzvvvtuew4jHYMFBweKxUH9IC2xc4yGL+9GnUePkCeUIvsHH3ywJD09/PDDrZMfOXKk5Y0P9QTD4tRTT02e+ifIg7LFuB8/fry9R32qX7++GQY//fSTXUd2O++8c4V+kQ+MNuTwwQcf2DWMMYwlnB/qHfIbOHCgGRppg+eSSy4xOTF4AMSJU4PBhjwAJxFjhrLAiOcZZI+8hw8fbvoAXCMPyCNtiKbB4SENGEwR4uHasGHDLGwMFPQNYzWCoUuaYriUL89g3KBPvBfrVhrqAgY55YYekeb4HE4S8eLUU5aE8eqrr1qZ49hSh3mWQQCMRQYseGbSpElmaCKT6EyUWt9weCin6FRSLrGuZaFdwtil/SFMQC+pd5Tt2LFj7dpjjz1mdSXWT9JMXaE8snAPp5G6gFMB5J22ifqH/pA20shADPID5IaO49Ch+++//749Q3/APaAuYsijcxGMTNrJc889154jPGRCet9++22TE3ImTTga5JPvXJ8VMkVXce6p29HhxVkcPHiw/U0aaf9IA1B3iC876FNK3cLoph+lHEg7BjUDA8gaKEuM9L333rtCzt9++22F3pFn+gecEtIVdZTBMtoJdJ+y5xrPEwb1Y/LkyXaNz4gRI6yeXH/99RY+/QSOE30hbSzPUBcZxCDM2F7S5tNexTYakDdtDzoQr/H3RhttVKEDhB/bSzjiiCOsXyIuIeZ2atRpTqGiuu233961bdvWBQPKplJZq8w0bHUIDZlNRYYOOrlSGa4HI92mOqtDixYt3MYbb2x/M4UbOnEXOhib2g6Nql3PwpRt6HDcPvvsY/8T90knnWR5rC5M67IsibXyocG3afTQ0LpgRNo0LVPokdAYuwEDBtgUMHkNxkFyp3rwHulmOpelNcSHbEPDmzxRGkxHs2QiNOImO8Il3cguNNLJU87uc/JWkyZN7BnSnoWlA7wXOlpb+sFzTOUH48feZ1lKIVjaxrOhw7ClKZQDcYTOLXmiang+OIwWLzoQOv+KZQvIPBhnLnSiFgc6FjpVyw9LiNJQjsFwtjQHB8Z0i3KEQnHkgz1GlH0wWqzcIRgIFUuTSpE90/lV6SnyCkanHYrAwQaEw4f9ScEwtGULxUBnWQ7Cs7xHfSJ8liUEY8aWPtAGsDEz6hf5QB9IayxXloPQNpBWZES+guFne0ki6CnLL1jet8EGG1hdoSzatGljz7OkMBIcBHfRRRe54KRbupA98u7cubPJLhg6Jre1117byoJlXvlgGQV1g7Xg6AIfliiRB/SOsINBZDrbunVrSxOfYFBbuCyji4S23fZokF7eI41ZeIey4j7/k2aeC4aXLW9Ep4455hgrS54h/R06dLAllcTLsg3KDF2I5RkMRlv6Qb4jpdY3/iZc2inSwPd0OGmCY2P72FiGSpjA8rHjjjvO3o26RBi0rcFYNf0jfyxNzdcuUAeQL3WPvJMWwtp2223d999/b0uKWFaDTrAMMbb/tGt8OLADOXKP/AaD2u4TDvkIRrrdS0PdZnM1sqc8kCP6gh4jJ/SBNMe/+fD3rJAp9Yj24+CDD65Y+sOynOAw2N+kET2kziBL5LrZZptZXSItUErdApbArbnmmqbj1A3KhHxQpkB+kAfLWakvPLfUUktVyCPbtkUdje9y8ERwtOxvnuc5yjE4/SYH4mzevLnpDEvIgCXGwRmy8mfZH++yrDk4GxZ+5P7776+QC/kD2iHKm/6aNAP3WJKFXpH+4CRWWl5GHaPtJS4h5nZqlDNBRaUToUKzVrt9+/bWwMcOplToEHi+kIGPkUfjQENUHXiH9NGwYlDRAGEA0fEXgoaOxjJtfNMRxkasOtBY0gFyshGNZPxwbCVpoxOL0GnymVFoyHv37m3px7DBcKQjJL7qgIyQFQ02xgthccIWpMOi08AQKAaNPfKjY0lDfilT1tYWgs4WfcK4xnjffffdrWMqpCvVAflTRnRAdNLpMsKQwclNg2wj6ATGdjnpID6M55VXXjm5UplSZF+Knk6ZMsWMfozSdOeMgdCsWbOicodoRKTBGac+IhvWpRNftvwbNWpk5cq6bMDxIywMmAiGQzqtGHPkCSOUuhrLgZOPKG+MqQh5WW211ZJvf/PFF1+YoUhZIjOMNNJaqL4z6IFxybpu4kDXMG5xSqJxR9q5zqlyMU277rqr6U5aP8hfy5YtKwys6oDxiXHcuHHjSm0c5YmzQBuCnmFAYmST5jTUwXS8pdY3jE6MNNpH8owcCrUTGGGA3qThfWQVyxoZ4ABxkhZ1lj10hcJkfwDOMc9E2fLhXfKLkUw+2H9HnmIcrMHHUNxhhx3sO/foP3Bq0+Gwth7ZpknXYVgk2dtWVfs4K2Q6YcIES08x4xZje99997XjntFp9hVCDLOUugXUH9oQBv9oR+kL2f8Sw6FNQO44jTjLOLXR6K8K9JTBlyw4JThbOBmknbhxiGOctIOkddVVV7XvkehwR8gjjg/tXRqcTOptHJTDoSF86v/+++9v8hWiplKjnAkakdVXX91GPehsOY6Rv9nklR69rop69epZJ1noHRoLjAKMlDTFnAIaLEY4MMj4e4899rAGMttwZcHIK5Vi8QMdIo0io9kYOfHDMaGMJjLiWy7F4kZObIbr0aOHdRh07oMyx5VWlXY2N8ZOnPSzkY9GuhyiTNMdRIRr2Q4+giFAubGhkpFhRn4POOCASobxjIAMSBuzA+ny4cOJZOhzMfLlpxSiPKg/+ShF9qXoKc+g+xibWYi7kNyrgnzzPgZc/DsL16NBU0paKQvqC8Zquhx69uxpGyoxzIqB4YPBxeABzgiGJY5IvrxHMFo6duxoo7M4RmxexYDlWgT54XRQBjFNzACRJvRxZkAc5D1feSDbqGfxuaqI8s6nn1yL8SBrZk4ZbWcknZF8Rm/zUaisucYn1kkMPox9Zvy4RjkwA4dcs5AfYHYgXeannXaatVekh7BpvxglZ1MzDjIzWFzDaAdkgq4xwp0O54ILLrC0zAxmhUyLhQnoJE4Jsw/MUGAsp3UTSq1bHN+OTHD8WEVAX5heQUC5Ul+YyaGtoQ+nL8e5KAccYNpu9GCdddZxhxxyiM1qpR2CUnQ5XTeycuJ7WvbYIDic0YnDsWVwQIiaSI1yJrLEkRtG7WJHUQqMMNDZFGq47r33XguP0Q2g8eCTHTlOj17ifAwePNhG8WgYTzjhBBvhYWS1GExJ0xDi3ESIO9tok1eupRvE9EwDMFrEc4w80YCnPyyxyI60lALhMRqTlm82XmCpBjMUnOqB3Bghgtj4Iqu0Q5GWHWBMExenrPTq1cuMeBrncsBZxBiJI0gRRs0pw+xoX4SODcMao54fMKRDoqMgXRE6QfKTlUF2RBLIezrPGDuMqvM+HV+6fBhhxIGpLtk48oGOEWdcIpWlFNmXoqfMWjB7wugm8o9Q1ow0VzWjRD6y9RgDh1FMwo11PTuCiRGF/Fu1amXf0UXqSbr8CTudVkaaGeUl3yxnyJZFVfWWJUekjeVP/HgbsxIYnPkcnQhlhdNGWeCwclITBmp65J+0EwYzYuk00ZYwa1AuaR1BnsTL7ERab3mGmTNGvnGKkDkj6dkRV+SYDq869Y0wTznlFJu9ZET6uuuuS+5UBvlThtm4iYPRYAzPCPWKMuRkIBwvHLw4s5EG2ZJ30pOWLR/ej7Nu5IdZCOoDp1wxA5V2LrkPzOJlw2GpTXXJV4dnhUypf5Qdgwb54D3CJs8sHWSZJY5ymlLqFuXD7A/1gVOocIypUyzTysIsJo4yS4sY3CvXGUOX6XuY7WAmHsebNjY900n8tC/Z/KdnE6l7tAvMTmTbdJaJ0W7EZXdAn9uvXz/3+OOPWzmQFyFqIjXGmaARveaaa8wgihWfdc2MytAxxkaDRoC14Ew5F4LRV0ZMGJHCgIwGDIYKhhWj+ExbsuYS6FAZfedZOjeeZwSCKeCs8UPaokGBkcPylWJgQGKsRweGRpnfz2ApVxoaLZZmYOwC+aQDScMoFTM3dAppg4vGkhmDtCNSKjScGBh8SB/H/aV/+RaZseSMjoBOEVnRqEYDnP8ZiWe0izIkDNb70tmkQW58uE84pL9YGRYDZ4Z4cQriWl86OE5JxpDDoCsEcSMv/scIZsSS8omQPzpl9I5lE8ARgtF5ihA/I9Hoa9QRDDTWGrO/hNFD4onEJULVIV8c+UAnGGnlGMvoDPAOnTyUIvuopxynyHP59JRliBgz7K9ATyJ33HGHrcOPa8wLgX4jHzp70oOMWX7FMgmcGf7HGKTDjmWCLM844wxrA7bbbju7xmABcol7E9B7yjGdJ9oLRl3RS2bVIjyPk5DPOUxD+oCwkRn1AIMo7UTlg6VmjIzTxlBvMHjiEidgtiMeOZuGJRr5RturAn0ljWkDChkyek8+kWVsF+LxwDhlOBQYVRjMjLpSFuSZI50po7Sullrf0AnkirxIF3HwXj5IAwY1s70xTJxZdI5BkZ122smuYeAhL8LEqYhr1ok3Cw4Ky5GQffpH/NBl2sdYdoRF+MibJaO0X7EvAMIgLmSXHmDK5+iWArIgLvQ/Mitkyt4gDGpkGnWJ8oz9SGwHok4TH3UoTSl1C2I4MUx0iP4wQppxyHmG/pJyo30kbOB/ZEw5pR2Vqoi6TFmSxvTqA1YJ0J/RDlKfgDQweJJui1kuR/tInsgj0KbhGOEg4ciRJuyBKCucDNKblj11CYesHJ0QYo4jVOQaQajcdlpGMALsKDc+ofGxkyU4LSZUenuO0yhCpbaTFIrBKSqcFBMaZjsijlMzQudlp2/w4VSa0GFWhMtpPVznnbZt29oxcKFTtbg4GjY0Kr5v3772DKfLcAoKz3IKCOGHxtvCeeCBB+yEiUjoQOxECNLBs5wsQT45cSJ9Sg6naHDMHPkPHY3lOzhFdsJE+mhYTmkJDZudwBGMNzueLjgidnJG6Bzs1AtOceIowVLgNBjyFIw5izd0VhYm1zjNiTAJOzSwFh/lQho53g+QH0dphkbWjtnjfug47FSW0ElXnBISGmbLH7I67rjj7KhXjlUMBo2dzgL9+/e3U0OCAWjfI6HDsKNH48kgxMlJQ8iZdHN6CWXBu8FZTN76J8FYsfQh28MOO8zKMRjRls5ggCRP5WRCWOgA9/mf44mJKxI6JzvlinLlhCLCjSf/cHoL8uAYy/3228/ioczIHwSH1dLASTtpjjzySDuJJlIoDk4dopxGjhxpz6GbwQG0ckFfQmdpaebYRChF9ugp5Z/W0+BU2ZGmnB4W4WQq5ED+0GuejX/Hss4HJ6dQXuhSMHh8cBysblEX3kuOLSa/1Euuo9/t27e3NAbj0k6UiVCO6DjtA3mJYaKfMc9A3qhnxMtRzugPMkS3kQlwBC/hZ3UuOPN28hF6dcwxx1h6kR8y5rSzYgQjx2RCWXA6UhpOp+IEOO5TTuhHcNCsPINBZs9ky7cYnG4TdZ80duvWza5TZ2jHkBHxUbb8jbzTR1mOGzfOZE18yJuyRUaUfXDi7JlS6xs6RTlw/G8s36yOR9DZ888/3+SJriIL2hji4ISfYMzZcxyTStqCkWdHjFJWm222meUvH5zeQ30mTNLBkZ7NmjWztj8YfclT3o4TJY90obTlpCcNbRr5Q16UEXFTnsF4TJ7InRpI2aGPEdoO8h31CzitKxjUpovUE04xmxUyRWacxsYzyBI5Ef4mm2xi9ydOnGhxBIPb9+jRw+o1JxYRf3C27JlS6xbx0FbwLCdjcYoU7R3lCNQ99Io6Q72jXSOceDIiEDdhIBPKl7hHjRplcXPKWprgnFg+6FtoI3iX9BAH+hIJDoHJEB3glMLYj9L+xfqEHnCSGHGTPuoJekh9fyc5BYz+nPA5wQod4nlkeeedd9p9oF0IjkbFcbhCzM3U4p+cWzF3ExpXGx1nNCBUTht54LQI1ogy8hpnAxgpYvSemQQ+hUAsjJSwbpnRCUZK2JDIqATLNJguZbSTdZ1MnYcGzEZXGFUPHb0tG2LZASObjNqGRslGpoKTYtPEfGczMiMujJ7yTGicbJMYy6tYbxnhGqMowUiwMNlwyewKo39xKRbpZZaD9bs8z3Q6m9pIK6NmoSG25xgpYTSHUU+m+kMjaKNJjHSxiZRRFNZ5hobZRtiqAjkz+sXMCTAixgwII4KMdDEiwxpw5EK4LBVghJgRTeQEjPow0spIDSPkyIVRR9JHHniOdDNNzdICZgRYVkC6CZPR7mDg2QgPeeM78UYYJaIMCTueBBSvIQfeo2xZBxyM24Ijd4BOIGOmzYmHsmDElnIhzYAuMhuBTEgXaSVeyiq914ByYtSOPFD+jIARN6Nl6DFT44w6Ei7lw5IC9IWyQeakOa3DzIqx8TK99CBfHOgheSevab1gFoEyoI7wLDqEjpcieyCuYAxZ/UMePEe9Q795DmK9YuYOHQkdrNWpYIhWjBrng6UCLK1ALuQ95p840vuO0CVGCSlXZBc6dMtHMGoq7VeIyzWos4wkorfBgLSRWHQOSCvyRDeJF50hX8Eos5Fx6g55i3IIRqu9B7zLyP4dd9xh+k+5M+NAHUUXoq7kg7RRPsGosXBj2xVhRJglO5QXuoAOkGbqG+8wqpwt30KQTvR38ODBpnfMDjH7wXXaF9qreGACeSYP6WUcXGeTOuWOrChH6hH5DIanlRGUUt+oU7QTtFm0j5QbuoyO5IO2B13jHUaS0VU21bIEL4aJrLiPTpBW2h2eoazzwTOkgyVm1FfCoR+h/nF6GG00UCe4j86Th2CU2vUI+SVtnF6GThFfcLIsP1F+tOfER3pjGTMDSbiUJe0V0PewNIs2hTxyAAR1ZVbIlPrNbB/vUJfQK/pQZqGAtNH+MYNJO45ex/TGMEupW+gabQ26RV1gJgydI6+cioZ8yRvtBDNL1HH2a9CXxzKgfjGLRN5JI20xcTNLRlmly4SweQ49RRboMukiDJ5L6yn1ilkH0sByNsqeMNP9KHWDsqVdoAzpK+mzKR/6F0Au5JH2DjmQftpN2iF0l7CpM8ipWNsnxNxAjXEmZieIDAOCZUx0pDR4GBmzC+KnU087E0LUZKIzQX2jYxZCiLkR+m8GKNjnxIATjpgQczs1Zs/E7ISRB0Y+GKFh9KnQkZpCCCGEEBFmJdgEzixguYeICDGnIWdiBmC6kqnjOO06O2Eqm2lzIf4LNGzY0Jb8sLRICCHmVliCxrJCDir5N2wHIWYFWuYkhBBCCCGEKAvNTAghhBBCCCHKQs6EEEIIIYQQoizkTAghhBBCCCHKQs6EEEIIIYQQoizkTAghhBBCCCHKQs6EEEIIIYQQoizkTAghhBBCCCHKQs6EEEIIIYQQoizkTAghhBBCCCHKQs6EEEIIIYQQoizkTAghhBBCCCHKQs6EEEIIIYQQoizkTAghhBBCCCHKQs6EEEIIIYQQoizkTAghhBBCCCHKQs6EEEIIIYQQoizkTAghhBBCCCHKQs6EEEIIIYQQoizkTAghhBBCCCHKQs5EDeP33393P/74o/vrr7+SK0Lk548//pCuCDEH4r13P/30k/vtt9+SK0IIMeciZ6IG8eeff7pzzjnHde7c2U2bNi25KuZWfvjhB3fIIYe4hx9+OLky80BXTj/9dLfrrrtaPEKIOYdXX33Vbb755rOk7gshxMymxjoTzz//vNtll13c3nvv7T777LPkaulgbD355JNu9913d8stt5ybf/753bLLLut2220399RTT9n9OY23337b3XTTTeZMLL744snVwrz++utuqaWWcqecckpyRcxJMGtw5513updeeim5MvNAh6+55hp3wAEHmA6I2QvtxxtvvOE+/fRTG4UWM04hmb7wwgtuiSWWcOeff35ypTiPPPKItZ8333xzcmX28ssvv7gzzjjD1alTx2255ZbJVSGEmHOpkc4EyzZOO+0099BDD7m77rrLffXVV8md0hkyZIjr2LGje/nll91FF13kRo0a5Xr37u2effZZu37fffclT84Z0AEdccQR5vxgIM4zT9VFixG5wQYbuNVWWy25Iv4roNP77bef22mnnZIrYnaCo8is0MUXXyxnYiZRSKZ169Z1G2+8sVtjjTWSK8Vp0KCBPd+kSZPkyuzliSeecO+++67r37+/W3jhhZOrQggx51IrNLo1qifDkbj22mvdpZdeasbSBRdc4EaPHu3WWWed5ImqYcR+0003da1bt3aDBw+2mQlAVO+9954ZYFOmTLERr5VXXtnulQujae+//76tj23cuLGNoJUDDhMj2CuttJJr1qyZzaTkg1G7b7/91q266qpugQUWSK7+k6+//tpNnjzZLbbYYq5Ro0ZuvvnmS+4UBtl/9NFH7vvvv7d0LL300smdHPH+d9995+rXr29yrVWrVnL3b5DzN998YzNKq6yyiltkkUXs+q+//uomTpxoTtAKK6yQ991SIS3IHZA7zhfxIscvv/zSNW3atOSOPOaLMsQAWWihhZI7f8MzH3zwgclmxRVXNAMnC/GjV59//rlr2LCh+/nnn91aa63ljjvuOHOO0yCfjz/+2PSFZ+edd97kzt8QHs/gaJKfmEfyN27cODOauF5IV6oLskO/yFux8vniiy/c1KlTTQcLxU06KX/Sih6hT/kcZJ5BXsRXr1695Gp+YvnyTgyzHB2izqKHrGenvKN+5oP2Iso/Xd+oA7RJHTp0cFdeeeU/8laKvhDupEmT7F3SUaw+A/WH5xdccMEKnZ8RaEc+/PBDt+SSS1o7WGp45G3ChAn2POnIti3cR2/REcqUss0Hz1EO1DfKElkVk2mWqA/oD/KlTSrlnVhHyTN5z8L9dNtZnbZ4+vTpbvz48eYYtWjRwtq6GWnnhBBithAaxxpF6Cz9Msss4/v06eNvuukmHzp6/+qrryZ3S+PMM8/0oXH3Tz75ZHKlMjfccIMPnY6/8cYbkyuVmTZtmm/Tpo0PBqAPhoddCx2fv/rqq33z5s196EDsWjDY/RZbbOFDZ+gXX3xxv+yyy/qxY8faPfIRDGk/cOBA+w6EcfLJJ/vg6CRXvA+dlu/YsaMPBoLlNXTMvlWrVv6TTz6x+8R/3nnn+S233NLffffdvnbt2vbcww8/7IMh4IORY+mKhA7Zn3DCCT4Y0iYD8hk6aB86OIs/H1wPRp/v3LmzD0atD52n5alv377JE96/8847vm3btpa+GO6BBx5osoI//vjDH3LIIT44gP6RRx7xwYiwZ5HJmDFjLK0bbLCBhR06V3/hhRdWyDYYdX6fffbxnTp1su+RYDT61VZbzY8YMcK+x/zecsst/qCDDrI8Esdee+3lg3Hug+Pog5FpeQgGTFG9IazQ2Vva9t13X0sXeQrGvw8GToWs+D84p/Ys4ZJ34jzmmGN8MBjsGfj999/95ZdfbvcJKxgpvn///j4YE/6cc85JnvI+GJD+kksu8YsuuqjpDHIOzq3JP8bJfXTi9ttvt+f4BMfXB+fJb7fddhZH1BXKJBhuecv2rbfeMh1ELun7wUCupDfBADKdIdzg3FjYBxxwQIWew8033+zXW289f+utt1bIfciQIcndvyEeyoIyQZ6EidzQ32BcJ095Hxwti5O4iBM59O7d2/QoH8ia+ojM+BDu3nvvbdeRKfVw1113tb8j5Gv33Xev0CvSFhx2H4w/izcYi3755Zf3999/f4UuonPowL333uu7dOli9ZJ8EH4wXC0M9I96yHXSjc5tvvnm9j73q9IXnnnjjTcsnli+wTH0wUC3+1l4nrJv2bKlhUl4e+65p7/++uv9Jptskjzlrb0jnFGjRiVXcnLedtttfffu3ZMrOR3s16+f5QHZk8ett97a8lcIwqRdGj16tOWNfJF/ZE55k0Z49tln/Zprrmn3kTF1gTbhhx9+sPtA2o8++mjfo0cPu08dob0vJFPq6uqrr+6HDx9u34F89erVy96PMqZNANqqZs2a+Weeeca+0yZSTy644AJ/6aWXWp55nvK/6667KtI+I21xcPQsbNo76gd5oA2g7qV1+rHHHvMXX3xxRbsphBBzAjXKmaCxPvLII/0aa6xhxlW5zsTOO+/s69SpY0ZWPjD4aewx7PPx3Xff+UaNGlnnFDsCOpyzzjrL161b15wI0sr9Jk2aWAeKsU5n98orr9jzb775phkJF110kX0HwsAAwsCLjBw50u+///7+0Ucf9a+99pq/7bbbrJPaZZddzEAlnuOPP946PpysAQMGWCdJx4/xgWF19tlnW1g8e/jhh1sHS+f8/PPPW6eH4YjRRCebD4wuOlE6wqFDh5rBcNVVV/l27drZ/alTp5oBseKKK1oen3vuOesQSROG8E8//WRp3XHHHc0IaNiwoR82bJi/7777zKmgY+dDOp9++mm/zTbbmAGBjADjpn379tZxp8GAIo7okMX81q9f3wzEp556ysKk02/durXl85577rG46ch32GEHey8fb7/9thkVK620kqUbY4m8I+N1113XDKT4HPlBJ8kPee/Zs6cZHMiafFOuGNvoFA4W+nDttdda3jGOojNB+fA3MiJPGPsYgOgQcoyG8EknnWTywejFoUBmpIeyR1fIN3XijjvusLC6detmDlkWDBycX5y4tPFy3XXXWfqJm2fQY/QDXSG/GFjIDwM4gqNEXUR3qZe8i/GVhXRiuJH3QYMGmbOG0YusN9tss4o8YqyTBtJCnOSJ/BRyJjAcKXvCRG7UF8oFw5QwqSOERx2KoC/I8bjjjrPvsSxpH3Aqxo0bZ0Y2aY11A8MVma688spWV5E9aaQu4yxT3jxDedMWYKhTZ5944gl7vxR9ob6h7xtttFFFOtC9jz76yMLIQluI40GbhOODQYpBS/zptoT4qAsPPPBAciXnhPEuTmgE3URXMX5JL3kkvaQp7SCnIV7Kn/pCftBxnF4M50MPPdTyBeSROknbQ1lQbjhAlFuEeJA5dfZ///uf5Yd0FJMpZU85ADqCI0rbQBqQMfUEZwuQKeWFPACdRE7Ubeoaeo4DgIOC80V5woy0xZ9//rmVCQNUxI/zT/uT7b94hjHAF198MbkihBD/PjXGmcAgo2PBoH388cftWrnOxMYbb+wbN25sRnA+MBzoEDAO8lGKM4EBg5GGYYxBlqVUZyIfXbt2NYOZTjB2YBgJdJyEEck6Exgl5IsRv7RR9uCDD9roXTotaUgrxt7pp59u8UUIg/gY0SMvGB1pMBy4Trx0ttGZwIAE3sVhw6Bm1DkaHJQnRggj91BdZ6JDhw4VRimdOIYwBhwzCkA8GACUYSEwUAgbAzetJ8iSmRMMCvKPLMkTzmKE65QReXj33XctLVtttZU5THE0Hzmiv5RbdCYYIWWmBQM4Gv88l9YrwJlAZunZm3ygd+gfMwY4dPmIRhcj4RFmoKgfGEHUBRwHyj6C/BhNTuspzgRyOeOMM5Ir+UHXcGavvPLK5EpOD9BdDGrqOBAeuhMdymIgU8r3sMMOq9AhQLdwFphpwbkhfAzkCAYsaaEsYz1ixurTTz9NnvA2W4JhSBlAdCaQUdQxjH9mADBWo5xjmqgDsYxK1RdG6dEVZJzOTyEeeuihf8iUGRQcgOo6EziVzBzgUKXbLRw+4oh1NwvOBPfRp5hm5MKAAwY6up0PBnTQr+jQAXUdnYwzB5F8MoWsM0F9RX+zeUDOUMiZIJ3RcQCcGHSGgZdClNoW5wNdR2Y4OhHqx/nnn19QXkII8W8wY4tm5yBCx+TOPPNMFzon17Zt2+RqeYROxdapFlurWtX9qgjGuQvGswuOjzvwwANtve+MEDorO0bwtttus3W4rOcOnXZy19lJVOwhKZbm0Dlb3oOxWmkNfjAebF046+zzETpfW7+97bbbVlpzTBihs3ahA7R139lyYZMj77E/I8L6aPaqAGkNBpit8WZjZeiE7Trro4PzYuu1y4FN54QJwciwU1OCcVax4ZJ4ggFl65aLQfr22GOPSntDNtxwQ1sjzR4K5M8G/mDgVNpbg1yC82CyYaMl/7M+njiDEWPPIMett9660qlcrPXnw/t33HGHHRIwbNgwK+9g5FnZRYJz4fbZZ5+8a8BZi86JNYTB2n10JbQFyd3KUKbULXQDePe5556zE8OCEW1r39krgqxID59g/Jhs0uUKyJVyLMbYsWNtT0IwvpMrOTkHw8/kGgx7u7buuuvac/vvv7+d4FMM9JZ9GsiStMV0khf0D/mtvfbatmY+GHDJW87dfffdVm7oCzKiLINBb8/EMIKDbGv2X3zxxeStHBtttFHFOnjyjV4jJ9JciFL1hfiok+SFNq8qPQ0Ol8Xbpk2b5IqzvQjUrerCHoXgpJt+cdJYlAN1ER1ir0AhyAdtXqzHyIc0UA7kLQ314d577zU9BfYPpeHQCHSgHNirEBxh6yvQqQjpK0Zwuq1sIugF+77YO5dmRtpinqM9RbacSAi8HwlOnevZs2fZe+uEEGJWUGOcCRpfOjqMOzY9vv3227Z586+//rKODiOsVJZccknr+LMdXATDjUafDrVc6Eh69OhhZ/1jkGAg85sCdKzVgY6dDYerrLKKO+mkk9zVV1+d1+gnvnyGZQRDgLjp4Ml/GgxvDBiMynzQYWIg5OvgMGK4v9RSS/0jfp4n3rSBRTrTnSzhZjvdmBfKthzS4fF3PiMibWQUI5u2xRZbzK5h2JM+DD3ymc07MuYaMiX/6BrGbrEyQifRO4yM6667ruKDAcqZ9NFBgnz5euedd8w5wCA68cQT7V3qSjEw9po2bWqnohE3/2Pc4AATB/mjDDGw02lio2/79u2TUHLwfLH8AbpCPpBjGr5jyOP8AE7bjTfeaHGTRoxtDlrgexbCpDww8NJpxDDfbLPNzBmsXbu2nYSGIUd7gVw4ue2ggw6y8qMskT9G6A033FARxsCBA20Tcdr5AfLKJ1JVvqFUfUE3r7jiCisD6juOcK9evQoOSHCdesSAwIxC20f5c7pdWpZ8Z7CAdqwYaZnwN3lF/2O5PfbYY7bxmDLt06ePlXG+dgdZpMOqDrEeMYhQnTCyzyJPdDWmb0baYpxa8suGbY405wARnNn0AIEQQsypVN3DzSU88MADZmjgTNAZ8Tn11FOtke7SpYuNpJYKI9R0wIUcEE57ojNiNLMQdBhpIxmyxi8GEueJv/XWW+6oo46yk6OOPfbY5G6O7DtZY+myyy6z2Q06HjouRpCrk9cI6SU95AuDIQ0y5JN1MiKMptPp5RshpdOk0yXMbF4oL+6XargXgrTzqUpWs4JsHOgN6cD5Ik0YGxgv+fLOtWgkYuwho2x46e+EyXOMxuOAYsDFD7M/OGyFoFw5EerVV181ZwRdefLJJ82YLgZhYrTyziuvvOJuueUWGxHmBBrAwCefOMXp9PBBJ6sLukJakVkaflgPo2355Ze37zi9zKCRruHDh1sdOvzww//xHqDXOFb50sjx0RhwlAFHKhM3sz3333+/yZ62A7hPWdI24Dilw6AsMB5nlFL1BZjpwKFgJoAZLI5DJd35QG+on/mM8jTED+m4kUFaBylvdPCwww6rJAM+6FOcVSwFwsXRo/4jX05BYjaN78x4MdtDOeDozUyQMfpA3Om8VRfaO2Qay2RG2mLq1rnnnmszcDizY8aMsaNh4+yWEELMydQYZ4IfJKIzS3+YDqYjZSSREUTAwKejyk6bp2GUE+OZUbGsQ8CRgIwacawmx8fmg46KTpfp9DiyRHxxqUgWjPGzzz7bpt3jSBbpJpz0sgGcm+yU+muvvWYjYelOvNxfNF5//fUtvxhn6U6WowpJf6tWrZIrlcFxw8DgfPRoiPA/s0N03Cz5oINk1DcNI8nkneUlMwJywuDAGIl5R+433XRT0XKeUZDRPffcU8n5wrAk7xidGEUY3SzZSDumyJjlGxjqq6++uhkMyICZg2jwEQaGbtpB4xlGUynz6o5Y8jxLr4iPmQYgjqoMTMAgQp/79etnS2a233775I4zQ5z05xuBLYfmzZubXDGmInxnRoT/GflNgxG6ww47uO7du9tSpnyziSwJQtbIPFuf01CPWLoyaNAgWwJGWlgOBJQlS2uo/3F2ZEbAcCfttDOxrpWqL2lwlGj7uEfZ5IOZC+LCYI0gq+zSrDgjwrGsEXTyk08+Sb7ljlFGJjhUOF7VgXzwXiwDyoplbYRHe0eamPlhZJ4ldIB+ppf5FCOfTPNB24284rJO4HlmForBIBLpi1DX+c6sIMxIW0z7iDz5DSPyADiV2XzQ1lAmxfRYCCFmNzXGmaARZw1++oNBR8OMsbtG8oNFGLAYCcV+9XmbbbaxGY7rr7/eljnQAbLkASObxp4OZMCAARW/P5EFA5o4MYgwTJi6Z41sekkJS7DoNBnFwshmZBljAIMeWEKF4UCcGDYYE4xIZzsR4sFIxPDkfUa3CCuOMlYHDCmWwXBG++WXX26yIu5jjjnGDFCMtnxgrHG+O9P6rOOmk+b3Pbp27WryP/LII80IZtQR4zveHzp0qOvWrVul9eHlgDPBb39gjPCbDPy6M0sGCJ+ymJWgFwcffLDFidPKaCLLe5AHDhaj+hgE5J1RVvKOkzty5EhbaoRhQxpJP0uDcCoZ5eW3UijLdPox9jp16mRlTRlhDKI7hIuDixFVCNJCHWEpIGnA+L/kkkvMmKsKjD1m4VhKiMGDsx1BLxgZp67gfLPkijBZ78616sJyIcJEP9Al5MsymvPOO8+cmLjOn/LlOs41+WHwIMoyC+lHvozc86vfpBG5oYuEEx1OdJU16Sx/IlzW98fw0DFmLjA+cVxwnDEeKaurrrrKHOfqQHngABMPaSefpeoLDg0/UEmbgINAG4GRic7lg0EAHFHqNEu9+NAeMdiRhuVvLPlCruxNobxJD05OhHrMNe4jO+SIPJkZZpa1qr1fyB/nB0P8wgsvtJkyRuNxVmnz2FuFfsdwyXupzkQ+meYDR2LLLbe0eGizkDG/do0eFwNng/fuu+8+N2LECJtFxrnabbfd7P6MtMUsD8Mpp8wZvKGMWLqWHTSgHtDe4tgIIcQcQ+i4aizBELaTVjgKMhKMKDvxiaNJizF9+nQ7RSd0cnY0YehQ7YQcjv3k+Na/ipzEwT1OIeFYTd7h3c6dO9vpMByPOnXqVAufIzm5FwwWi4MTU4JRUBEGpw9xolAMg5NeQufng2FnzwDHQfI9dKSWVs6258hBTishnuB82Ak6wbGyU6bShM7RjsDlZJFIMMjtZKEYJ/9zEg2nHhXKM9c5CSmdX05PCcZIxf1gPPjgfFWSZXDoKk4lCp2myYPjLtOEjtlOKkIWkWCwWP44sz3C+/y2ASqNLDiBhpOGOPUmGKX2TL78BkPS8sfJLmk4LSgYV8m3fxJPiOGEK373gzjJ04YbbljpvH3yHgwDOyIy5p3yJu2/pk6S4e+jjjrKwiAsnuc9wiMtkeAw+GBU2jPB+LCwCDMYnxWnB6G3lDcnyERIBycPBYPHnkdXyDOnMAUn0v9U4DQn4N1gYFp8/C5ALLMIMuSUsWA0WXp4jjgo3wjvL7nkkpXKMR/EhU4Hp9rCIxzyGpz7itOqgN9qIA8xLo4cDUakvZ8PdD84AfZsTCP/cyxplBugM5ymRD3NHl1L2MFItfaDNPE+/wcnrSJfnPQUDPeKk4MA3eTkN36v5cfUb0VQT9EJwognkXG9Kn2hjeA3FLgf08BvncS2IwthIpvgVFXER3qCEVzpNCee43jT4LTac4sssogPxr/JnvYrgq5wElZajvzPCWgxf1mCkVxxnCxtMmlA1zlhK8qf+INhb/IlTJ6nfnHsMadARTiNjSNSaUPTFJIp9Z62h984AZ5DH9D/qGOkPxj/dj84ApbGeCpgPM2J46TRF54lDsooOJP2DMxIW0zZcmJdzDdlNWTIEEt3bEeB39cg7HjynBBCzAnUuF/AntkwTc2IFFPyjMoxih46i+RucRjxZMSSpTwsNciOUIVOzUaymKVg3W1cGpOGJRWMJjNiyChYvlEu0kY8oXO2pRihs0vulAcqQZ6ZgSHPjGiHzjO5WxhGxhnVZTSN0WVG0tPE+6SXkThmdvLlp1yIlyVsxIO848lIswKWGjCTw+h+MKRN/pQd8eaTP0sWSBtpZGlQXMaRhlknZq/QOeQX12JnQW8YnWZkmXJhNJcTYkoh6mQwSExX0JmZAWliSR7pCgaR1RNGicuF0Wj0nmVe6An6kk4rOsqBASwJQgallDfvxDRSVozEo9/VhaU3pI0ypRzJa7belgrLW0gPOvH/9u4E3tap/AP4279o/lNJFElSkQaFKDJLpsyJTGVMhsxTyRCKQkREQhOVIaVSCBWRVKKBQokGjRqp3v/6PvY6vXf/9z73nH0Pruv5fT7bPfsd1nrWMz9rrb1YQamYnr64TlecHOQ9z0wPnrX6VX2J1Qknc7nWhRU+fgnPx9uCWJ/Dfysm49mzlQsneVnRsMplbFYI0NH1LWTkFDBypdNkNFkfMYyn/cBDY2dv4/kjv62wumPV2Gon2smHztlm1sWM+mLj5nfZPzl1wd5thd1ss81iFWgiPjmRSCQeDGQxkUiMgG4xYZtTIvFwAre/5ZZbDiwmHgh0i4kZPbr7wUa3mHDc60MBxfrBBx8cW6hs4XogJ0oSiURisphlfjORSCQSicSsCMWf45CdpjYVR/wmEonEVCJXJhKJEWCbgx/FOqnKVoxE4uEGP3K2dcaP+h9o2Mrp2FQ/cJ+R7W8PBRw64IfUfiDe/R//JRKJROJ+ZDGRSCQSiUQikUgkRkJuc0okEolEIpFIJBIjIYuJRCKRSCQSiUQiMRKymEgkEolEIpFIJBIjIYuJRCKRSCQSiUQiMRKymEgkEolEIpFIJBIjIYuJRCKRSCQSiUQiMRKymEgkEolEIpFIJBIjIYuJRCKRSCQSiUQiMRKymEgkEolEIpFIJBIjIYuJRCKRSCQSiUQiMRKymEgkEolEIpFIJBIjIYuJRCKRSCQSiUQiMRKymEgkEolEIpFIJBIjIYuJRCKRSCQSiUQiMRKymEgkEolEIpFIJBIjIYuJRCKRSCQSiUQiMRKymEgkEolEIpFIJBIjIYuJRCKRSCQSiUQiMRKymEgkEolEIpFIJBIjIYuJWQy33XZb88lPfrL5+9//3ruSSAzGHXfc0XzqU59q/vrXv/auJBKJRCKRSEwOs0wx0bZt89Of/rQ5//zzm/POO2+azy233NJ7anK49957m6985SvNEUcc0ey3337N4Ycf3lx88cVxfWbEPffc02y66abNpz/96d6V8fGb3/ymede73tV89atf7V1JzEz49a9/3Tz72c9ujjnmmN6VqcNdd93VrL766s2XvvSl5tGPfnTv6oODCy64IGzqz3/+c+9KItE03/zmN5t3vOMdzS9+8YveldHw8Y9/vDnqqKOav/3tb70ricTDFyeffHLz1Kc+tfftkQuTXkceeWTzuc99rvnPf/7Tu/rQYbL+6ic/+Umz5JJLNnPOOWezwQYbNNdff32zzTbbNLvttttMMZ4ZRknCZwn861//at/ylre0JTFq//d//7edY445xj4HHXRQ++9//7v35MRQErl21VVXbWebbbZ23nnnbRdYYIH2Gc94RrT/2te+tr377rt7T84cML7jjz++feELX9jecccdvavj46qrrmqLYre77LJL70piZsIvf/nL9ilPeUp76KGH9q5MHUoR2S600EIT1pWpAjtda6212rnmmqu98cYbe1cTibYtgTl898UXX9y7Mhz83emnnx6+qxQNvatte99997XLLbdc+Orbb7+9dzXxQOOaa65pt9xyy/bOO+/sXUlMFY499th29tln73175OKWW25p55577na99dZr77333t7Vhw6T8VdAjnJKfmmVVVZpn/jEJ7alSGxLcdR74uGNR/lPr654WKMEl6jyvvvd7zZnnHFG89jHPrZ3p2mKAjYlKet9mz7+9Kc/Neuss0609cEPfrBZbbXVmiL4mEm1LWTfffeNa+ecc07z+Mc/vvfWQ4uSpAU9L3nJS5rFFlusd3V8/OMf/2h+/OMfN/PMM09Tgm/vamJmQQnMIcvdd9+9OfDAA3tXpwaf/exnm0UXXbQpxWfzqEc9qnf1wUEpkpo//vGPzQte8ILmMY95TO9q4pGOu+++O7bePf/5z2+e8IQn9K4OBn+/ww47NJdddlnzne98pylBvXfn/q2eViXo14O96vZIxcc+9rFm++23b6666qqIQYmpw3HHHdfsvffezT//+c/elUcm2PyPfvSjmNl/5jOf+aDHrX5Mxl/Br371q/BLCy64YPOXv/ylufXWW5snPelJzXOe85zmf/7n4b9J6NHvss9lFoCayPKXJEXyJUGea6654jPZhN/WqFJFNocddlgELIXE7LPP3jz5yU9uXvnKV0YydPbZZzcrr7xyKEI/JPaCHMV5+tOfPqb0tltde+21sXVFkPPc5Zdf3nz4wx+O7Vm2tWgPvZTNFqvZZpttmkLo+9//fnPTTTeFQgIHc8011zTnnntu873vfS+W0rRb+8AXBugdCv+hD30onhVofb/hhhtiXHUZ1XKbZ43vzDPPbL7xjW/Etq75559/3MSPoV999dXNaaedFomqgP60pz1tjHaFyxVXXBGFnm1YlZ5555037qNTUoC3rp911lkRoBjsAgssEGOxJQf9niNf7QOa8ZVxGneF343YwkV+xmiZ1PfHPe5xsSXuxBNPDDkxaHQw9o985CPxmxMFJVmQ+yBo62tf+1ro1w9+8IPmlFNOCf3TJ9l0eUUPLr300hj7Zz7zmdADfXq36xDR75lPfOITsXRKJh/96EebZZZZpnnNa17Te+r+59BIPt/61rdCR571rGeNOSQFIpm7fvzxxzdf/OIXI8DjIRkpOhXKnsF3sh2WdJErfp966qkhN3xTeHLo9T4dIiufG2+8McamgB/m7PGZnKuO/uEPf2guueSSkGct4MnJvfnmm2+MNjK58MILgxb8JAO6YZzA9t0nQ9sRyYJcyfvnP/95LEtLOumWj4BEj+g33dQuO8R71z3LltBmC6Fx1zEZ95VXXhlbBfEe9IFHp59+evQF+qi6wCbYKvumL+yQrlQ9rqi2YCsa2slLm/QMDdVW0eYavaMLxowHeFInU/CIjnvHOD7wgQ/Ee+yfbfEx5EYvf/jDHzZzzDHHND6rH9qn97YSoQud1Y7rO3SEHmuXT8JH/ASy5h/4Ce3gYw2mv/vd78I26GOln37zj9WnVF398pe/HB965P2f/exn4Wvo3u2339789re/DT6gaZj/qzrchXa+8IUvBD/xVUGP5/zHIJ5UH+NelQugFe3Pe97z4ntXx6+77rrmhBNOCF3wDj+AZ2ijf/QR7eP52+pT6Do62RQeo1PsGESTdumCSbEqj4n6EjKscqNznqn8EyOMzXgWWmih0Fsyqnr9+9//vvn85z8fvsy/7qOLrg3iKbABMqz2zIcZI79ijEB3vv71r8dz7KyCn0APfeD7B0HcZL/aFu/JGb3GJFZVP8kXe67fT+rTuMkOT9mz5/RZYxp4jz5qS1/f/va3g7f4X+XLZ1b/Kb6j2TirDMiFndpSA5Ohr/o79oquKvcKsfPmm28OnWezF110UfCZfIfxDugFn6R/9OMbmrWHNkm2Nqp82TY+Vb0mO74e7+mee/SWv+9OBHdhjHTPfT7qvvvui/yJLNkD/tLlmjPwnVBzGvqHx/QZvTX+ui+G1ZyDH+SjjQed+sBzvub9739/jPflL395+MJ+f8W25CnshD9GF910n9/lD/GMnWsPj7qFkTHyQWwNvXwkvtQ4NlOjED9LoAiq3Wqrrdqll156mmXvUbDtttu2JSi1Ral6V6ZFcdSx7HjkkUf2rkyLomSxhWS77bYLuqAobHvIIYfEMl1R9rhWEo+2KG277LLLBu1Fqdqi0HGvGE3QcNRRR8V30Ial5BKgelfub6MoaluSknbddddtS4IWW7NOOumkuF+Mod1zzz3bhRdeuH3FK14Ry/+lkm5LIG5L4RHLdN1tNJbsirMOujxfnH5s7XrTm97UFqPtPTUt0GWLFZ7YVvaiF72oLQ6jLQls74m23WOPPaId43/Zy14WNBZn1ZYkJu7bnoD+kjTH/eL02uc+97ltMbL27W9/e7vXXnsFXYssskhbnGy0XeVcDD2WDUuhF98rilHG+IqTie91vBtttFGMT1toKEbaFofWFqcQn2Lg0a9lzGEoDqktDi1o0waZFOcU4z7ggAOCJ0D+dftdcQjt4osvHnzC15JwxjNg6bM4wBjboosuGvSRmX+78inOKGSIP9tss0271FJLhfxLAj7W5z777NO+9KUvbVdaaaV4Dm0lILXHHHNM8N33tddeO8aJLsuv9d1+0HX8QbdxlMSt3XfffXt327YE+dBTNL/1rW8NvTe2Utz1nvj/QB9dL4l4fC+JfPSxxRZbtCXhC9mSk2sl+YhnQPt4t/7668dSN97UfujmmmuuGXKjN3hpbPvtt1/cL4la6A+elEASPMAz8jEePKRD7EvfeF+SnuDLkksuGTSVJCXagqpbdYugbZElQY228Yke43XXRxx33HEhj9VWWy2eo2slePXu/hddW9BmSVCCv3TD95KYxnPXX3992BubMvYXv/jFMf5NN9002gB6Si/5AOM3DnxmO/yOcZditX3d614X/PRMSWji3X5oc+uttw4ZlGAafdJ9MisBN54pSXHQg//4sMQSS7Svf/3r4x5ftMkmm8T7G2+8cbvOOuuEHtTtSGSkrVKgxHd6gR66p1+69Z73vKctxV7omPDlY8zsji7C5ptvHv6QHx7P//WjJGDhP9FAF1ZYYYVoF59KUdZ7alrYekH/+fYuStIRcquoOs6P4hn79B2v+PBqp2RFb0oi0XtzMHbdddd4jty0iWZy5AtL4hb8t6Wi6gHYVkhn+SeYjC+xNZEs6B9+8/GlSIhnVl555TFZVHkcfvjhcY+uoqvaZfXfxjreliiyIy82bOuu57XtX/KHkmS1iy22WNDWhe27dLkUIr0r/x9HHHFEyNb4jUU/ZA4T8ZMl+Q7Z4Rs5Gpf22HXVXyiJeeie9sS1UrAEbSXRj/ulGApdpq/yBbRo74ILLoj70L/NaTL00Q36yXa6uUQFGeqbH7F9WwzFZ38P20rETsQB/bJxcsI7tlaK63bFFVcM3+XvilIMxbj4VKi+i+7xA1UvurGlH+RNr6vPRTse8C/GynZ96NoOO+wQzwC9x3dy2H777UNnxJA6PrGRDNglX4NfvpeCaawPvo7t8B18mljQ76+AbzUOPMUjf/MFE/GdoM9SUI3pC/9oPGusscY0/JwZMcsVE5zxhhtuGEFr9913j2SIkk8GnCOB1mSnHxJ9irDzzjv3rkwLjpAyKUq6xcTBBx8cCahiQvLD4BhhVepS1ca7UPt473vfG99BGwIlx1Ahqbn66qvH2uC8OQTGyfiMXSJPqZdffvlw4NpxXXItQNRAKAgxNAnHzTffHNe0gY+c1bnnnhvX+iGRMl4OqCY6+jn77LPj78suuyz6EQDvueee6F8CgU4JlX37jI1T4ZAljdrxrDYZoECnuMNPhZJrn+vtNRRAJYmSvi7whmM47bTT4nsdrz4vuuii6NNeX9c4NnzQJ2cpgPoMA1rIx3sKImNCM6N3nfxckxRwGIKXBM61G264IYIyGdEFY9pxxx0j+cArz3C6nCTHXosJ45Q8cDI1ELumONJeTXb33nvvkPfqq68eNJF17ZeuVJ3UtzH2O/4uyF4RVH9bQc/oCXC0EliOsV7T36tf/eqQLd0ZBPQJItW+OFPjNAZ/o1dCKzAbG0jm6D166ngEanT7WwKEz6eeemrI1TMCNn4CndEHRy7h9Y5nbrrppvAZBx544FjixaEbs0IRr/bff/+Q6XXXXRf3gVzpoOIbDYobCf9tt90W98lFoBX86uSBYM+O6Cod079PP6otCCKCE/tCxznnnBOJiMLae9rVf+Uzn8Ln4EO1X3rKBtB//vnnx7i1pQ8JR6UXtCXgH3300b0r00KfV155ZbSpHVCsSMjqxAlb6xZ5nqtylngL0nWiwz0yrHx33bv47Nob3vCGCO51EoP91ASWPgjOElS2Um0LJFD4XouJYf6vH+SoIKl2ZDwmFPgHejIIxoTffHsX73vf+8I3VFQdlxhLIPUvYUQXuz/xxBPDtshDkkZHhkFh4p0TTjgh3jEe/KbHii0Qm9Alkao4+eSTI0lBy2R8CT1UoJIjuk855ZTQ/TPOOCOeQYMJG/3xp2SDdz5sCB/OO++8+O59EwSubbbZZmOy78JzEsb6nndco6/G/eY3vzneo/eSbz63C8WEoqjGh36IPex7gw02CH+Ff/heE/iJ+EljwMtXvepVYQNQf4NI3wCNNSchM/3gDboURPgpBqBf7Ad9iWN0taK/mJgofd4Rz6u/q893QeYS/Zp3oNlvTKsdDgL5G1OdBPBOjQ/6R7vfLVVagG9BTy0m0Iwn+oca6yXglZZ+kLdi4W1ve1t85wvEBPaJR3xAbYcNVfArdBPfAL38Dp5oA4/YgXzBNbHMpC4aax/0SRxGLz56ruuvAM/52cMOOyye04/4c8kll4QOT8930gGFt+JFseU5PORL9G8yqr47M2KWOc2pOLymVMhNUYr425YhS3tFseJkjyLM3pPTR1HIWFIqzqJ3ZVoUo4glyKK8vSuTh/eLgscyc1HioK8YRSz9TgYliY+tV9orxhb/lmIgljm79Gm7KH8sl+GP5/phybgoeFMC49jyfDGO+C1KMZpYchsEy5WW7EoiM7b0rZ+NN944xmX5vlT10W5JbKL/4hTi5ClyKk4p3oESyGJrjnY869QDtDrRwv7+kow1JcmOe8U59N6aHEowakogjeVW+x0tMy6xxBKxjKzd4iibFVZYIXg4HtD1zne+M2g0JjSXRCaWRC1XF2cSy5XFsTWlQAoeeq44r6YkmsHr4lziedtiSmLeLL300vFMSbZjryy+VZTAF1skVl111dCdEvDj3RVXXDH47++K4nyad7/73UETOmu/dAVKUBuTg3aH2Qc7oFe2z5WkIWyiJIRxz3K268ZGLujRJvos56JpovA+XpaAGPSWJCGWki3B1/vsjq7RGSiOOOjDZ8vzJYEMnSNXbZRAH3KsQLtdnSUBDTo9Y4uIcZXENXhiDCVhCf23bUPbTr3C267+23ZARiWIx7YAy/SrrLJK8LvKBS0lYYhTOyqKz439z3RM/z7DwBYsl88999wx/vXXXz/osozOtm3LwGt65bs+0ePfEpB7rdzf5+abb96svfbaMW5t4VFJYkL+xs/nsQM8RvMgoHXZZZcNukrwC73gr4zFOyXQjS3ns83qf2xJAPzXr20bJUgHLWToWj/c43vImo2Qg3GSDejHODzHFqptDcNE/B9dImvPliAe+iCelGImtmnMKNDLx5RiO/pfaqmlQl/IZccddwz+0GF6a8vcIOCxbV/eo194bGvFwgsvHFuMbAcCPpIcqs6yb9u7+FB2NRlfQn62d/gX3drWf7VNdPsAuWjPWPGwJJFxgg1/65r311xzzei3JF8Ddc21GrvXXXfdeMe7thWj3e8ytD0qbOkxXrIwDvqA734nCRP1k+jiY9kD8N+e4w/AOJxcZ7wluR7TVfK2nQf/xP611lor5IomtmDctuUMw0TpY/elmIscwTN42A/y4rfEGTylT7bVameYHzAGz7Fj76BZjJsM+C48oTfGYPz03hjo82SAX7vuumv4APFbDO76P2PkP2yRYsvo5XfwBJ99xOPKJ/FNG2iskFs60bPrd7pga7Z9sRGnM3lOP+LPSiutFLoyPd9p+xSe+u1RzWP5JPnX/PPPH37fOGZWzDLFBGGVijWCvL2E9kxee+21kSTaGz8ZBa3KR+iDIPgSPsUdFRTN8ZjaomSSGfuPJwtGb98hB8UYORkJLEfiU4FWyc94ELQpby0kKjhcDuTOO+/sXZkWnCID638PGK+EUxDvL5Q4QPTXpANqwKlg0L7jVwUaJT2c7yjoOlXOTHv9jla/EzHcfh1g9Gilb/QHzySD6O3CPm/juuuuu6Ifzk9A644TbV26BCmO98wzz4yio34ENH3RyQq8RksX7tMNzlfAoC+Sja6e9GOrrbaKwLfeeutFsGVXtR/7Zukvu+vSI2kj925CMhF05e5vAa7aIJsUGO0PRre/77777rjnGbyh3/187gJv+4OehIr+SdQr/YIcWxQojXXxxRePAO53BcZFVgpviY5gIAC6br9ulw9+b+V61/egAT8nAmPp6gNdIFP9o43c0P/GN74xeKJPuoDmrkzx0hi6/AVtHHLIIVHAeVeSKMiNpw/Go8iVdHpn+eWXj33D9R0Fis9OO+0UQdS+XzoCxi0g2zPsXX9XGfbDWBWX+Is+vPYbga6OTwYT8X9gckdiQQfQSM+gm6TNCLoyoNM16eiC78HnQXCdv+VXqtzqR7KkKASJLZ8rmQcTF4p/OokXk/ElaO7SjV6fapvDQO6KRn6+f4ySKrS63w86QccXWWSR3pX7oQ065N6MJFUmJPgWdA2CsU/ET0r2uuPCI/KsvFOAsn0F3CD4XQEe4nlXBn67NUz+MFH62JDJsv7Etwvv0A0TbIpc/dMR/B2m82KBws4EhX8VftPThX7o1wSMibjqu+RpMFkb74/d3Qk44I/kRZJyhRM/XvtgR+SmkBgP/G5/P13QdYWhCRmTIIMwPd/pt3poMSnQhTygFh1T5YceCEwbXWYhMCCOR2XIqCfjfDhhieqwAsTMDeXpF3o/+o27H2YRJSVm9M3kmq0xUzoZ+MGnZAIYy/777x8zXpMFWjkEfOsGji76A0LFeI5Euwx3PIc2yr3x3pksBrU1I+0bc+WhsQ/jJ1SeesdnvH7rM/TkgAMOGPs4e1uCVlcMBgEdkvwtttgikomqK/0Bux9mPCUh+uHMzNwee+yxcY9jk/DS3y49Rx99dPzArM7YTRXQjBbOWOJuosBsDkw2AFXQXfxwaEOl38lZVtOskCk03d9uu+1itckqg1UQvsG4yZZMgK/p8kGi7iAD8poq6EufPn7MKThKgPkAp8wpCCaiuxI5gdyP3fkLs2m77LJLjHcY+FDPSfIlSIrIffbZZ5ok3cqByRz8MwGBb54DNO+8887x42Cz1Z5xKt6wWXjFtckhfUi8FLN+ZPlAQTCXeChYzaTrd7PNNuvdnXqQ02R9D/mzOzzv6poPfvqAgoQusBcJkxlysjXpBDPiS4bR3Y/axzD/V/W4H8Y3vfcm0v8gaJceD3t/VD85CHUc4/UFVpi6MrCTggwGYSrpA7pBJ+iJgt2q6dZbbz001gO75n/5DokuGviF7uSRcY8H/W244YZROCpK6gmZDwSsQvA5VtfQZdVhzz33DD2oOc+MQrtkM6ytifjOWigMa2O8YmZmwPAsZxYAAddluMkojKVUM3RmMAbBSgDFUVEPgr4InnF1jap/ptZzZkfMTEhSVMeHHnpo3PO++9139NnfhqU1xY/ZAckAwzQbMVnoy2w5ftXl6wozQWZvBfdBULUzyu52pQrOxmywGfj+lQTPk41tBTMCtOunnzd1ZvmBRH8hZXbCNcGcDM0omAWss7MVEkC6UVcyzGZw7N32/N2lX5uWcvHTFjFOsX7MFo03K29WRIAyw151RRvDZue6MNPD+ZpJMhNm5gzoK/ok9V1afCR+ZummEuTMNvWv6LYNzcwrPkt+fJ/MpAHYToXPkqr+MbDvmtBIzMhIENW/iQDvAv7QP7NS/W0ImKPqd7/uotMpQVa66IGTbswu2wolMEkwzHjh0/RATy+//PIIambLFEaSifF0SF8KKbyQtJrB3GSTTWLlsgttoMWyvJl9xUUFWZn1NyPuvpk5+jgMxmoFw9YW7x100EG9O/9F18fOCBTAChsyVghuueWWsboyHoyHjvA1XdQVgqkG3vIZ+lQM9usbWwR02S7Bb+Ovk69sf8VPmBFfMghV57qyYBN0n5/v+jWwqslm6xa4LhSkbK1/q482FHx8KvrwgO/srmyD78N0Ap3io1gkJvVjRvxkP9iFcTipaxAkueTkiO4u/31sjRqEqaQPFOt03mlUtn1ZiZbUV783DMZlNUOSzsb5AzLFXzIR77oy6LcPp5mJD1YJ9thjj/AXtvY8UNAXH4deEy+O+Gej7EESb7JiRkDX5WF0atCq0kR8Z6WlX1/ENEUXW8XbmRWzTDFhpvCKK64YS9oEYtWvfZmqdsoPgjEjsH90GGx54GxV/NqsQZ2SqG7POuusmHGzlDwIFItimDmU4Hi/HnFXQblcY2QMkHOk8HVm0DYVjrgegUnJJA32e3bB6N3jaBkvg+7u7Z4MLLtxcAoaThs4ZoZPoc3WDYKZTQ7e7xpqEJUsm+WoiQVjUDRVp0IOjqKre31nBPhNFvrkHPHBli1Ooz/QTCXI1UwDOYIxSjQFSUkvuurMK9nhIdoUqZy3bQp0k9w5UqtTZr/BXnEOp1uACbyep9NVPlAdkH+HgY75dJ/xzvR+d2LljP55F50SEP+CZJuDs12vu79WUUcPhwX0UYC37BnoPDpqMoHPVgWMx/K/Mfr4uy6dDwPnrh3PdQsR2y8EmDoG+m2rkMTYvla2gCcgiLjHNm0Z6IKe9xcFEwUdtuWm7oWmQ3RcEKrjR0Ol2wqsGeiJ9Fdp5y/9bZx8zUTspSYKPo6f7AZiPk9RDGRj9rQGQAUM3qFPEsUnG4OZzn7wtfSc/qOPjI25+kfXtM3v489UAC3GRH+1jwYTR+NB4kv+EoW6V16yZ3XugQBeKnLYmxXCGu/Ate7vvMyA2uvNf/Mt4lotEmbElwxC3ZJIxtVmyMv2EjpRt+GQvdhrEsAMuDjbD0W5LTyKTR/v+LAv2/rYHj3wUdAbG72q+ii+d/nSj1o0KxjFK+9Z4fSd3H2645+InxwE4+Dj2aRiWD/6O+aYY8LPW7kVbxWvXR3Gx0ETczCV9EH1ITUPYU8mKLu+sAtykJDbneF5dsl+qx/2r8IGTfwXGKsJgS70awzV/9DB6dnaqBA3+MZKL71Ep++KMnLyO6S6QqogkLvQ5YmCPm200UbBl2qXeKVv/KoYz3cq9v2eDy3iiGf4IMd586m2wldfOlOiEDxLwKkaxTDjiDCnMRUliZMy5ptvvvgVfYUjAUsyNHYiwDA4aaAYRZwupK2SrET7xYHFKTt/GXJSDRQlaosCRD8l0MQJMiXBjNNH0FcSo/i/G5dELE4j2XjjjeOUj+KQx45KLQ4lTm0pyh8nkzi1Aj0lwYxf+1eUwBUnCpTErt1pp53i5IFKawkucYqAoxHxwckEXTjdSJ/do0eLI4nTEdC70korxdFkJejHaSXaGgS0FmcR4/X8csstFzR5H7xXEvvgJdrdx0c0FWOLZ4rziuMwnUrRhdM89O90pIrieKOf7jFyxfCjPTQss8wycRScE5JcMyYYNN6SKId8nHzURSl8QlbDUBxlnJLjWLxS+MXpRfPMM0/QWpxB76n7T6AogTF0sQSPOHGjON84pg49FSXgxvvoJ8s555wz9NhzaKkojino0rfj7eiOEzBKMRInWQC+4A/5V5CBEy+qXJw0hDfod3rXMH1eY401gpcbbLBB8BV99dhHcLQpntLlTTfdNGRI5/VRHGHvqWnRTx9boxv19K8KfZYiMf4uBVic5IJeY9YHPrgOJViEDPAZL8iULOppaB8acIwfFOcexwXSR3xwwoyjW43JCU9V59n0SSedFO17tvZbQR8WXHDB4K+TmJxERHbsmo6B0zjwr3vCziCwBW3gO3tm90sssUT07aSUEvjjOSfneEYfTkpzmpSTtPiMeppSCUoxFiewdEFX6Bdb55fWXnvtOFmGDjrBZxDwaptttokxGp/P/PPPH8clkrv7fI379AYfS5CNE6nAaXBkgEayZTdsoiQScb8rIzbOF9AT8iZP7TrBqIJvwE967NSnkhjHdf2RxR97pzkN83/9KIE9/BOe0gn6vuKKK8bJNU5AGgZ0owOt9JNu0vGu/xik48aILjztgh/n88eDI4zxll444Y+9kWW/nOl/SZqCNuPrYlRfgo/o3n///XtX2jgNybjFDf6rniolLtMPukuGTirCKzGAfIZBe3TDGJdeeunQhVKAxjjxrYIN6JO/1CbZOcmKr6j6MAi77bZbyIOe0Ec2bfwT9ZNOlqKrTuaqKIV4+CB+sIKtsxHticv4S5/4e6APaEU3e3IqnNjthLyK6jdgRugbhJKkhp8iY3xzaiIfw2eUArn31H/BNxkfmvkoPgRtdJD9A1shD/3jB72Utxh3SdTjGSdfkZu8ZpdddgnfxQfRx1JIxTP9MDZ2wdcBPWSvcosuLrzwwtDpCvaFBvSussoqwbttt912jF45l/GiGU/RIC+79dZbh/YB/TFFvOPz6Lq4RWfpL3lNxHfCpZdeGid+il3kwP9rwwmX8qyZGbPM/wFbNa8CtpKgIi5Ci1kRMwNmTyvMspoZVj1bLh4GbFEtm/FQXZqx87z92rY4FCXqPTkYRTliG4GZH7NXtjsUJY1lffuFzcypPs1o2VZkhsLWkOJwo2oHVanTOcy261sb+lX9aqM+gz7bPopzjOq1OIaYES0OJq7520y3JXDfK8xGmOmxfanywoyEWRozQmYX3LNP3sx5991+oMOJRMbjb6scZouLk4z7ZjzMzqjSyUB7tpbYKgP4TW5oQndFMeZY7saXynOyNttVgtc0W6/8ANEedX1ZJiZ7s1b6wPtB4y3OOfTGjIVZigozBuRvW88gkJ0VmRKsY3bMLHgJSLH/lN51eWWbmH3YtgmZ9bQVhR6VIBCzI2D8ZvP9BsYMI/7ZD08GdMOz9TkzJrYtmI1CN3304znL93SHvM2S4qP7FeSCDrpi5asEz1j9MmtDHnSyH2bI6IJteN4xK4h+YwWywAv0+Lc45dAzfMPnOr4u+ukjL+3joxWACu3RFc+REz2nX1YpbA3Aa7KtfeAbe3EKE5tzSgq9Kc44+mNnVhDMaHdBJt4xBjO7Zm0disDG6G9t36wi36E97XZ5C2a26DfdJAf6RC7+1YbZJfI0nvH8B57awoJPeG81hG6gx55++gB4wjboDB3jP4zPtTpOOu/H5CUgjr1XUVcy+Djy9z4+lSA/Zpf9sFKAT1YxtGk2jozATDfZuGfWzZjpOT9gOR+f+QBj0o6ZODKsttiVUQmmsQrjWTaMJmOne5XvfJUZbj6Wffs9Bv3BK+3jc7WHQf5vEMjHFgizk2gvyUW0R9/o9iCgg9zRapzsig+mv9V/DNJxcuaPjM0KbQUayGa8376VxCp0VmzwLF9IZ/GHTVfwn/wEuqze1tgCo/qS6n/t97Y1FszC8v/8oHZtKTFWwEt0olcb9AGtxj3IP4A2+OD6P8MTz8kCbcZSoV+0WO0Qc9kN28Rr+sgPDAKdpaPGzo7EIiutnp+In7SSIE7iV+U3WugqWq0K1WvkSUfFN3rEh7Id7Rin63SHntF7vEZLtcHqN2zzg1HpGwT9y0n4EPy2ki7u0AdjGMQ/fpY88Y8vJBc/xEY7GDP+a5OuWP1l6+hhg97Bc7pPbvwCuXkGL9h/KVCirS6061Adto432ubb2GXlN9Sx0zFg++TMz7F/q15ygxoH0MKv22FA18Vv+iBvdG9QHzAopogfYpRtwcaz1157hSy9Pz3fyRaM0YE19IEf57PRSyfo1cyMWaaYSCQeTNRiwnYGW94SialCt5iQnCQSiUTi4QH+21Y7RZfJmkGF0ayIWeY3E4lEIpFIJBKJxEMBq0gKCCvFJoOslj1SkMVEIjECLB1bdu5us0okpgKWu21XGG+bSyKRSCRmLtgy5nAVW9Ec4DO97fCzEnKbUyKRSCQSiUQikRgJuTKRSCQSiUQikUgkRkIWE4lEIpFIJBKJRGIkZDGRSCQSiUQikUgkRkIWE4lEIpFIJBKJRGIkZDGRSCQSiUQikUgkRkDT/B+bMG63L85gYQAAAABJRU5ErkJggg==;" vertex="1" parent="1">
          <mxGeometry x="19.996666666666783" y="-1083.003333333333" width="787" height="386" as="geometry" />
        </mxCell>
        <mxCell id="3EObn2wX0_K3Knupwm0a-4" value="UsuÃ¡rio" style="whiteSpace=wrap;html=1;align=center;" vertex="1" parent="1">
          <mxGeometry x="319" y="-388" width="100" height="40" as="geometry" />
        </mxCell>
        <mxCell id="3EObn2wX0_K3Knupwm0a-5" value="TipoUsuÃ¡rio" style="whiteSpace=wrap;html=1;align=center;" vertex="1" parent="1">
          <mxGeometry x="629" y="-388" width="100" height="40" as="geometry" />
        </mxCell>
        <mxCell id="3EObn2wX0_K3Knupwm0a-22" style="edgeStyle=orthogonalEdgeStyle;rounded=0;orthogonalLoop=1;jettySize=auto;html=1;entryX=0.044;entryY=0.513;entryDx=0;entryDy=0;entryPerimeter=0;endArrow=none;endFill=0;" edge="1" parent="1" source="3EObn2wX0_K3Knupwm0a-6" target="3EObn2wX0_K3Knupwm0a-21">
          <mxGeometry relative="1" as="geometry" />
        </mxCell>
        <mxCell id="3EObn2wX0_K3Knupwm0a-32" style="edgeStyle=orthogonalEdgeStyle;rounded=0;orthogonalLoop=1;jettySize=auto;html=1;entryX=0.5;entryY=1;entryDx=0;entryDy=0;endArrow=none;endFill=0;" edge="1" parent="1" source="3EObn2wX0_K3Knupwm0a-6" target="3EObn2wX0_K3Knupwm0a-26">
          <mxGeometry relative="1" as="geometry" />
        </mxCell>
        <mxCell id="3EObn2wX0_K3Knupwm0a-33" style="edgeStyle=orthogonalEdgeStyle;rounded=0;orthogonalLoop=1;jettySize=auto;html=1;endArrow=none;endFill=0;" edge="1" parent="1" source="3EObn2wX0_K3Knupwm0a-50" target="3EObn2wX0_K3Knupwm0a-11">
          <mxGeometry relative="1" as="geometry" />
        </mxCell>
        <mxCell id="3EObn2wX0_K3Knupwm0a-38" value="" style="edgeStyle=orthogonalEdgeStyle;rounded=0;orthogonalLoop=1;jettySize=auto;html=1;endArrow=none;endFill=0;" edge="1" parent="1" source="3EObn2wX0_K3Knupwm0a-6" target="3EObn2wX0_K3Knupwm0a-26">
          <mxGeometry relative="1" as="geometry" />
        </mxCell>
        <mxCell id="3EObn2wX0_K3Knupwm0a-6" value="Evento" style="whiteSpace=wrap;html=1;align=center;" vertex="1" parent="1">
          <mxGeometry x="319" y="-41" width="100" height="40" as="geometry" />
        </mxCell>
        <mxCell id="3EObn2wX0_K3Knupwm0a-7" value="TIpoEvento" style="whiteSpace=wrap;html=1;align=center;" vertex="1" parent="1">
          <mxGeometry x="671" y="-40" width="100" height="40" as="geometry" />
        </mxCell>
        <mxCell id="3EObn2wX0_K3Knupwm0a-25" style="edgeStyle=orthogonalEdgeStyle;rounded=0;orthogonalLoop=1;jettySize=auto;html=1;entryX=0;entryY=0.5;entryDx=0;entryDy=0;endArrow=none;endFill=0;" edge="1" parent="1" source="3EObn2wX0_K3Knupwm0a-8" target="3EObn2wX0_K3Knupwm0a-18">
          <mxGeometry relative="1" as="geometry" />
        </mxCell>
        <mxCell id="3EObn2wX0_K3Knupwm0a-8" value="PresencasEvento" style="whiteSpace=wrap;html=1;align=center;" vertex="1" parent="1">
          <mxGeometry x="66" y="-217" width="100" height="40" as="geometry" />
        </mxCell>
        <mxCell id="3EObn2wX0_K3Knupwm0a-30" style="edgeStyle=orthogonalEdgeStyle;rounded=0;orthogonalLoop=1;jettySize=auto;html=1;exitX=0.5;exitY=1;exitDx=0;exitDy=0;endArrow=none;endFill=0;" edge="1" parent="1" source="3EObn2wX0_K3Knupwm0a-10" target="3EObn2wX0_K3Knupwm0a-26">
          <mxGeometry relative="1" as="geometry" />
        </mxCell>
        <mxCell id="3EObn2wX0_K3Knupwm0a-10" value="Comentario" style="whiteSpace=wrap;html=1;align=center;" vertex="1" parent="1">
          <mxGeometry x="319" y="-214" width="100" height="40" as="geometry" />
        </mxCell>
        <mxCell id="3EObn2wX0_K3Knupwm0a-11" value="Instituicao" style="whiteSpace=wrap;html=1;align=center;" vertex="1" parent="1">
          <mxGeometry x="319" y="179" width="100" height="40" as="geometry" />
        </mxCell>
        <mxCell id="3EObn2wX0_K3Knupwm0a-13" style="edgeStyle=orthogonalEdgeStyle;rounded=0;orthogonalLoop=1;jettySize=auto;html=1;entryX=1;entryY=0.5;entryDx=0;entryDy=0;endArrow=none;endFill=0;" edge="1" parent="1" source="3EObn2wX0_K3Knupwm0a-12" target="3EObn2wX0_K3Knupwm0a-4">
          <mxGeometry relative="1" as="geometry" />
        </mxCell>
        <mxCell id="3EObn2wX0_K3Knupwm0a-14" style="edgeStyle=orthogonalEdgeStyle;rounded=0;orthogonalLoop=1;jettySize=auto;html=1;endArrow=none;endFill=0;" edge="1" parent="1" source="3EObn2wX0_K3Knupwm0a-12" target="3EObn2wX0_K3Knupwm0a-5">
          <mxGeometry relative="1" as="geometry" />
        </mxCell>
        <mxCell id="3EObn2wX0_K3Knupwm0a-12" value="POSSUI" style="shape=rhombus;double=1;perimeter=rhombusPerimeter;whiteSpace=wrap;html=1;align=center;" vertex="1" parent="1">
          <mxGeometry x="464" y="-398" width="120" height="60" as="geometry" />
        </mxCell>
        <mxCell id="3EObn2wX0_K3Knupwm0a-16" style="edgeStyle=orthogonalEdgeStyle;rounded=0;orthogonalLoop=1;jettySize=auto;html=1;endArrow=none;endFill=0;" edge="1" parent="1" source="3EObn2wX0_K3Knupwm0a-15" target="3EObn2wX0_K3Knupwm0a-4">
          <mxGeometry relative="1" as="geometry" />
        </mxCell>
        <mxCell id="3EObn2wX0_K3Knupwm0a-24" style="edgeStyle=orthogonalEdgeStyle;rounded=0;orthogonalLoop=1;jettySize=auto;html=1;entryX=0.5;entryY=0;entryDx=0;entryDy=0;endArrow=none;endFill=0;" edge="1" parent="1" source="3EObn2wX0_K3Knupwm0a-15" target="3EObn2wX0_K3Knupwm0a-8">
          <mxGeometry relative="1" as="geometry">
            <Array as="points">
              <mxPoint x="116" y="-368" />
            </Array>
          </mxGeometry>
        </mxCell>
        <mxCell id="3EObn2wX0_K3Knupwm0a-15" value="POSSUI" style="shape=rhombus;double=1;perimeter=rhombusPerimeter;whiteSpace=wrap;html=1;align=center;" vertex="1" parent="1">
          <mxGeometry x="150" y="-398" width="120" height="60" as="geometry" />
        </mxCell>
        <mxCell id="3EObn2wX0_K3Knupwm0a-19" style="edgeStyle=orthogonalEdgeStyle;rounded=0;orthogonalLoop=1;jettySize=auto;html=1;endArrow=none;endFill=0;" edge="1" parent="1" source="3EObn2wX0_K3Knupwm0a-18" target="3EObn2wX0_K3Knupwm0a-6">
          <mxGeometry relative="1" as="geometry">
            <mxPoint x="359.86669921875" y="-21" as="targetPoint" />
          </mxGeometry>
        </mxCell>
        <mxCell id="3EObn2wX0_K3Knupwm0a-18" value="POSSUI" style="shape=rhombus;double=1;perimeter=rhombusPerimeter;whiteSpace=wrap;html=1;align=center;" vertex="1" parent="1">
          <mxGeometry x="146" y="-51" width="120" height="60" as="geometry" />
        </mxCell>
        <mxCell id="3EObn2wX0_K3Knupwm0a-23" style="edgeStyle=orthogonalEdgeStyle;rounded=0;orthogonalLoop=1;jettySize=auto;html=1;endArrow=none;endFill=0;" edge="1" parent="1" source="3EObn2wX0_K3Knupwm0a-21" target="3EObn2wX0_K3Knupwm0a-7">
          <mxGeometry relative="1" as="geometry" />
        </mxCell>
        <mxCell id="3EObn2wX0_K3Knupwm0a-21" value="POSSUI" style="shape=rhombus;double=1;perimeter=rhombusPerimeter;whiteSpace=wrap;html=1;align=center;" vertex="1" parent="1">
          <mxGeometry x="497" y="-51" width="120" height="60" as="geometry" />
        </mxCell>
        <mxCell id="3EObn2wX0_K3Knupwm0a-26" value="POSSUI" style="shape=rhombus;double=1;perimeter=rhombusPerimeter;whiteSpace=wrap;html=1;align=center;" vertex="1" parent="1">
          <mxGeometry x="309" y="-137" width="120" height="60" as="geometry" />
        </mxCell>
        <mxCell id="3EObn2wX0_K3Knupwm0a-28" style="edgeStyle=orthogonalEdgeStyle;rounded=0;orthogonalLoop=1;jettySize=auto;html=1;exitX=0.5;exitY=1;exitDx=0;exitDy=0;entryX=0.5;entryY=0;entryDx=0;entryDy=0;endArrow=none;endFill=0;" edge="1" parent="1" source="3EObn2wX0_K3Knupwm0a-27" target="3EObn2wX0_K3Knupwm0a-10">
          <mxGeometry relative="1" as="geometry" />
        </mxCell>
        <mxCell id="3EObn2wX0_K3Knupwm0a-29" style="edgeStyle=orthogonalEdgeStyle;rounded=0;orthogonalLoop=1;jettySize=auto;html=1;exitX=0.5;exitY=0;exitDx=0;exitDy=0;entryX=0.5;entryY=1;entryDx=0;entryDy=0;endArrow=none;endFill=0;" edge="1" parent="1" source="3EObn2wX0_K3Knupwm0a-27" target="3EObn2wX0_K3Knupwm0a-4">
          <mxGeometry relative="1" as="geometry" />
        </mxCell>
        <mxCell id="3EObn2wX0_K3Knupwm0a-27" value="POSSUI" style="shape=rhombus;double=1;perimeter=rhombusPerimeter;whiteSpace=wrap;html=1;align=center;" vertex="1" parent="1">
          <mxGeometry x="309" y="-313" width="120" height="60" as="geometry" />
        </mxCell>
        <mxCell id="3EObn2wX0_K3Knupwm0a-35" value="N" style="text;html=1;align=center;verticalAlign=middle;resizable=0;points=[];autosize=1;strokeColor=none;fillColor=none;" vertex="1" parent="1">
          <mxGeometry x="429" y="-395" width="27" height="26" as="geometry" />
        </mxCell>
        <mxCell id="3EObn2wX0_K3Knupwm0a-36" value="1" style="text;html=1;align=center;verticalAlign=middle;resizable=0;points=[];autosize=1;strokeColor=none;fillColor=none;" vertex="1" parent="1">
          <mxGeometry x="597" y="-395" width="25" height="26" as="geometry" />
        </mxCell>
        <mxCell id="3EObn2wX0_K3Knupwm0a-37" value="1" style="text;html=1;align=center;verticalAlign=middle;resizable=0;points=[];autosize=1;strokeColor=none;fillColor=none;" vertex="1" parent="1">
          <mxGeometry x="429" y="-332" width="25" height="26" as="geometry" />
        </mxCell>
        <mxCell id="3EObn2wX0_K3Knupwm0a-39" value="1" style="text;html=1;align=center;verticalAlign=middle;resizable=0;points=[];autosize=1;strokeColor=none;fillColor=none;" vertex="1" parent="1">
          <mxGeometry x="276" y="-398" width="25" height="26" as="geometry" />
        </mxCell>
        <mxCell id="3EObn2wX0_K3Knupwm0a-40" value="N" style="text;html=1;align=center;verticalAlign=middle;resizable=0;points=[];autosize=1;strokeColor=none;fillColor=none;" vertex="1" parent="1">
          <mxGeometry x="133" y="-250" width="27" height="26" as="geometry" />
        </mxCell>
        <mxCell id="3EObn2wX0_K3Knupwm0a-41" value="N" style="text;html=1;align=center;verticalAlign=middle;resizable=0;points=[];autosize=1;strokeColor=none;fillColor=none;" vertex="1" parent="1">
          <mxGeometry x="119" y="-168" width="27" height="26" as="geometry" />
        </mxCell>
        <mxCell id="3EObn2wX0_K3Knupwm0a-42" value="1" style="text;html=1;align=center;verticalAlign=middle;resizable=0;points=[];autosize=1;strokeColor=none;fillColor=none;" vertex="1" parent="1">
          <mxGeometry x="287" y="-47" width="25" height="26" as="geometry" />
        </mxCell>
        <mxCell id="3EObn2wX0_K3Knupwm0a-43" value="N" style="text;html=1;align=center;verticalAlign=middle;resizable=0;points=[];autosize=1;strokeColor=none;fillColor=none;" vertex="1" parent="1">
          <mxGeometry x="429" y="-245" width="27" height="26" as="geometry" />
        </mxCell>
        <mxCell id="3EObn2wX0_K3Knupwm0a-44" value="N" style="text;html=1;align=center;verticalAlign=middle;resizable=0;points=[];autosize=1;strokeColor=none;fillColor=none;" vertex="1" parent="1">
          <mxGeometry x="431" y="-163" width="27" height="26" as="geometry" />
        </mxCell>
        <mxCell id="3EObn2wX0_K3Knupwm0a-45" value="1" style="text;html=1;align=center;verticalAlign=middle;resizable=0;points=[];autosize=1;strokeColor=none;fillColor=none;" vertex="1" parent="1">
          <mxGeometry x="442" y="-92" width="25" height="26" as="geometry" />
        </mxCell>
        <mxCell id="3EObn2wX0_K3Knupwm0a-46" value="N" style="text;html=1;align=center;verticalAlign=middle;resizable=0;points=[];autosize=1;strokeColor=none;fillColor=none;" vertex="1" parent="1">
          <mxGeometry x="392" y="22" width="27" height="26" as="geometry" />
        </mxCell>
        <mxCell id="3EObn2wX0_K3Knupwm0a-48" value="N" style="text;html=1;align=center;verticalAlign=middle;resizable=0;points=[];autosize=1;strokeColor=none;fillColor=none;" vertex="1" parent="1">
          <mxGeometry x="440" y="-47" width="27" height="26" as="geometry" />
        </mxCell>
        <mxCell id="3EObn2wX0_K3Knupwm0a-49" value="1" style="text;html=1;align=center;verticalAlign=middle;resizable=0;points=[];autosize=1;strokeColor=none;fillColor=none;" vertex="1" parent="1">
          <mxGeometry x="631" y="-51" width="25" height="26" as="geometry" />
        </mxCell>
        <mxCell id="3EObn2wX0_K3Knupwm0a-51" value="" style="edgeStyle=orthogonalEdgeStyle;rounded=0;orthogonalLoop=1;jettySize=auto;html=1;endArrow=none;endFill=0;" edge="1" parent="1" source="3EObn2wX0_K3Knupwm0a-6" target="3EObn2wX0_K3Knupwm0a-50">
          <mxGeometry relative="1" as="geometry">
            <mxPoint x="369" y="-1" as="sourcePoint" />
            <mxPoint x="369" y="179" as="targetPoint" />
          </mxGeometry>
        </mxCell>
        <mxCell id="3EObn2wX0_K3Knupwm0a-50" value="POSSUI" style="shape=rhombus;double=1;perimeter=rhombusPerimeter;whiteSpace=wrap;html=1;align=center;" vertex="1" parent="1">
          <mxGeometry x="309" y="63" width="120" height="60" as="geometry" />
        </mxCell>
        <mxCell id="3EObn2wX0_K3Knupwm0a-52" value="1" style="text;html=1;align=center;verticalAlign=middle;resizable=0;points=[];autosize=1;strokeColor=none;fillColor=none;" vertex="1" parent="1">
          <mxGeometry x="397" y="130" width="25" height="26" as="geometry" />
        </mxCell>
        <mxCell id="3EObn2wX0_K3Knupwm0a-53" value="CONCEITUAL" style="whiteSpace=wrap;html=1;align=center;fillColor=#f8cecc;strokeColor=#b85450;" vertex="1" parent="1">
          <mxGeometry x="342" y="-541" width="100" height="31" as="geometry" />
        </mxCell>
        <mxCell id="3EObn2wX0_K3Knupwm0a-54" value="LÃGICO" style="whiteSpace=wrap;html=1;align=center;fillColor=#f8cecc;strokeColor=#b85450;" vertex="1" parent="1">
          <mxGeometry x="773" y="385" width="100" height="31" as="geometry" />
        </mxCell>
        <mxCell id="3EObn2wX0_K3Knupwm0a-55" value="TipoUsuario" style="shape=table;startSize=30;container=1;collapsible=1;childLayout=tableLayout;fixedRows=1;rowLines=0;fontStyle=1;align=center;resizeLast=1;html=1;" vertex="1" parent="1">
          <mxGeometry x="279" y="614" width="180" height="90" as="geometry" />
        </mxCell>
        <mxCell id="3EObn2wX0_K3Knupwm0a-56" value="" style="shape=tableRow;horizontal=0;startSize=0;swimlaneHead=0;swimlaneBody=0;fillColor=none;collapsible=0;dropTarget=0;points=[[0,0.5],[1,0.5]];portConstraint=eastwest;top=0;left=0;right=0;bottom=1;" vertex="1" parent="3EObn2wX0_K3Knupwm0a-55">
          <mxGeometry y="30" width="180" height="30" as="geometry" />
        </mxCell>
        <mxCell id="3EObn2wX0_K3Knupwm0a-57" value="PK" style="shape=partialRectangle;connectable=0;fillColor=none;top=0;left=0;bottom=0;right=0;fontStyle=1;overflow=hidden;whiteSpace=wrap;html=1;" vertex="1" parent="3EObn2wX0_K3Knupwm0a-56">
          <mxGeometry width="30" height="30" as="geometry">
            <mxRectangle width="30" height="30" as="alternateBounds" />
          </mxGeometry>
        </mxCell>
        <mxCell id="3EObn2wX0_K3Knupwm0a-58" value="IdTipoUsuario" style="shape=partialRectangle;connectable=0;fillColor=none;top=0;left=0;bottom=0;right=0;align=left;spacingLeft=6;fontStyle=5;overflow=hidden;whiteSpace=wrap;html=1;" vertex="1" parent="3EObn2wX0_K3Knupwm0a-56">
          <mxGeometry x="30" width="150" height="30" as="geometry">
            <mxRectangle width="150" height="30" as="alternateBounds" />
          </mxGeometry>
        </mxCell>
        <mxCell id="3EObn2wX0_K3Knupwm0a-59" value="" style="shape=tableRow;horizontal=0;startSize=0;swimlaneHead=0;swimlaneBody=0;fillColor=none;collapsible=0;dropTarget=0;points=[[0,0.5],[1,0.5]];portConstraint=eastwest;top=0;left=0;right=0;bottom=0;" vertex="1" parent="3EObn2wX0_K3Knupwm0a-55">
          <mxGeometry y="60" width="180" height="30" as="geometry" />
        </mxCell>
        <mxCell id="3EObn2wX0_K3Knupwm0a-60" value="" style="shape=partialRectangle;connectable=0;fillColor=none;top=0;left=0;bottom=0;right=0;editable=1;overflow=hidden;whiteSpace=wrap;html=1;" vertex="1" parent="3EObn2wX0_K3Knupwm0a-59">
          <mxGeometry width="30" height="30" as="geometry">
            <mxRectangle width="30" height="30" as="alternateBounds" />
          </mxGeometry>
        </mxCell>
        <mxCell id="3EObn2wX0_K3Knupwm0a-61" value="Titulo" style="shape=partialRectangle;connectable=0;fillColor=none;top=0;left=0;bottom=0;right=0;align=left;spacingLeft=6;overflow=hidden;whiteSpace=wrap;html=1;" vertex="1" parent="3EObn2wX0_K3Knupwm0a-59">
          <mxGeometry x="30" width="150" height="30" as="geometry">
            <mxRectangle width="150" height="30" as="alternateBounds" />
          </mxGeometry>
        </mxCell>
        <mxCell id="3EObn2wX0_K3Knupwm0a-68" value="TipoEvento" style="shape=table;startSize=30;container=1;collapsible=1;childLayout=tableLayout;fixedRows=1;rowLines=0;fontStyle=1;align=center;resizeLast=1;html=1;" vertex="1" parent="1">
          <mxGeometry x="276" y="435" width="180" height="90" as="geometry" />
        </mxCell>
        <mxCell id="3EObn2wX0_K3Knupwm0a-69" value="" style="shape=tableRow;horizontal=0;startSize=0;swimlaneHead=0;swimlaneBody=0;fillColor=none;collapsible=0;dropTarget=0;points=[[0,0.5],[1,0.5]];portConstraint=eastwest;top=0;left=0;right=0;bottom=1;" vertex="1" parent="3EObn2wX0_K3Knupwm0a-68">
          <mxGeometry y="30" width="180" height="30" as="geometry" />
        </mxCell>
        <mxCell id="3EObn2wX0_K3Knupwm0a-70" value="PK" style="shape=partialRectangle;connectable=0;fillColor=none;top=0;left=0;bottom=0;right=0;fontStyle=1;overflow=hidden;whiteSpace=wrap;html=1;" vertex="1" parent="3EObn2wX0_K3Knupwm0a-69">
          <mxGeometry width="30" height="30" as="geometry">
            <mxRectangle width="30" height="30" as="alternateBounds" />
          </mxGeometry>
        </mxCell>
        <mxCell id="3EObn2wX0_K3Knupwm0a-71" value="IdTipoEvento" style="shape=partialRectangle;connectable=0;fillColor=none;top=0;left=0;bottom=0;right=0;align=left;spacingLeft=6;fontStyle=5;overflow=hidden;whiteSpace=wrap;html=1;" vertex="1" parent="3EObn2wX0_K3Knupwm0a-69">
          <mxGeometry x="30" width="150" height="30" as="geometry">
            <mxRectangle width="150" height="30" as="alternateBounds" />
          </mxGeometry>
        </mxCell>
        <mxCell id="3EObn2wX0_K3Knupwm0a-72" value="" style="shape=tableRow;horizontal=0;startSize=0;swimlaneHead=0;swimlaneBody=0;fillColor=none;collapsible=0;dropTarget=0;points=[[0,0.5],[1,0.5]];portConstraint=eastwest;top=0;left=0;right=0;bottom=0;" vertex="1" parent="3EObn2wX0_K3Knupwm0a-68">
          <mxGeometry y="60" width="180" height="30" as="geometry" />
        </mxCell>
        <mxCell id="3EObn2wX0_K3Knupwm0a-73" value="" style="shape=partialRectangle;connectable=0;fillColor=none;top=0;left=0;bottom=0;right=0;editable=1;overflow=hidden;whiteSpace=wrap;html=1;" vertex="1" parent="3EObn2wX0_K3Knupwm0a-72">
          <mxGeometry width="30" height="30" as="geometry">
            <mxRectangle width="30" height="30" as="alternateBounds" />
          </mxGeometry>
        </mxCell>
        <mxCell id="3EObn2wX0_K3Knupwm0a-74" value="Titulo" style="shape=partialRectangle;connectable=0;fillColor=none;top=0;left=0;bottom=0;right=0;align=left;spacingLeft=6;overflow=hidden;whiteSpace=wrap;html=1;" vertex="1" parent="3EObn2wX0_K3Knupwm0a-72">
          <mxGeometry x="30" width="150" height="30" as="geometry">
            <mxRectangle width="150" height="30" as="alternateBounds" />
          </mxGeometry>
        </mxCell>
        <mxCell id="3EObn2wX0_K3Knupwm0a-76" value="Instituicao" style="shape=table;startSize=30;container=1;collapsible=1;childLayout=tableLayout;fixedRows=1;rowLines=0;fontStyle=1;align=center;resizeLast=1;html=1;" vertex="1" parent="1">
          <mxGeometry x="59" y="295" width="180" height="150" as="geometry" />
        </mxCell>
        <mxCell id="3EObn2wX0_K3Knupwm0a-77" value="" style="shape=tableRow;horizontal=0;startSize=0;swimlaneHead=0;swimlaneBody=0;fillColor=none;collapsible=0;dropTarget=0;points=[[0,0.5],[1,0.5]];portConstraint=eastwest;top=0;left=0;right=0;bottom=1;" vertex="1" parent="3EObn2wX0_K3Knupwm0a-76">
          <mxGeometry y="30" width="180" height="30" as="geometry" />
        </mxCell>
        <mxCell id="3EObn2wX0_K3Knupwm0a-78" value="PK" style="shape=partialRectangle;connectable=0;fillColor=none;top=0;left=0;bottom=0;right=0;fontStyle=1;overflow=hidden;whiteSpace=wrap;html=1;" vertex="1" parent="3EObn2wX0_K3Knupwm0a-77">
          <mxGeometry width="30" height="30" as="geometry">
            <mxRectangle width="30" height="30" as="alternateBounds" />
          </mxGeometry>
        </mxCell>
        <mxCell id="3EObn2wX0_K3Knupwm0a-79" value="IdInstituicao" style="shape=partialRectangle;connectable=0;fillColor=none;top=0;left=0;bottom=0;right=0;align=left;spacingLeft=6;fontStyle=5;overflow=hidden;whiteSpace=wrap;html=1;" vertex="1" parent="3EObn2wX0_K3Knupwm0a-77">
          <mxGeometry x="30" width="150" height="30" as="geometry">
            <mxRectangle width="150" height="30" as="alternateBounds" />
          </mxGeometry>
        </mxCell>
        <mxCell id="3EObn2wX0_K3Knupwm0a-80" value="" style="shape=tableRow;horizontal=0;startSize=0;swimlaneHead=0;swimlaneBody=0;fillColor=none;collapsible=0;dropTarget=0;points=[[0,0.5],[1,0.5]];portConstraint=eastwest;top=0;left=0;right=0;bottom=0;" vertex="1" parent="3EObn2wX0_K3Knupwm0a-76">
          <mxGeometry y="60" width="180" height="30" as="geometry" />
        </mxCell>
        <mxCell id="3EObn2wX0_K3Knupwm0a-81" value="" style="shape=partialRectangle;connectable=0;fillColor=none;top=0;left=0;bottom=0;right=0;editable=1;overflow=hidden;whiteSpace=wrap;html=1;" vertex="1" parent="3EObn2wX0_K3Knupwm0a-80">
          <mxGeometry width="30" height="30" as="geometry">
            <mxRectangle width="30" height="30" as="alternateBounds" />
          </mxGeometry>
        </mxCell>
        <mxCell id="3EObn2wX0_K3Knupwm0a-82" value="CNPJ" style="shape=partialRectangle;connectable=0;fillColor=none;top=0;left=0;bottom=0;right=0;align=left;spacingLeft=6;overflow=hidden;whiteSpace=wrap;html=1;" vertex="1" parent="3EObn2wX0_K3Knupwm0a-80">
          <mxGeometry x="30" width="150" height="30" as="geometry">
            <mxRectangle width="150" height="30" as="alternateBounds" />
          </mxGeometry>
        </mxCell>
        <mxCell id="3EObn2wX0_K3Knupwm0a-83" style="shape=tableRow;horizontal=0;startSize=0;swimlaneHead=0;swimlaneBody=0;fillColor=none;collapsible=0;dropTarget=0;points=[[0,0.5],[1,0.5]];portConstraint=eastwest;top=0;left=0;right=0;bottom=0;" vertex="1" parent="3EObn2wX0_K3Knupwm0a-76">
          <mxGeometry y="90" width="180" height="30" as="geometry" />
        </mxCell>
        <mxCell id="3EObn2wX0_K3Knupwm0a-84" style="shape=partialRectangle;connectable=0;fillColor=none;top=0;left=0;bottom=0;right=0;editable=1;overflow=hidden;whiteSpace=wrap;html=1;" vertex="1" parent="3EObn2wX0_K3Knupwm0a-83">
          <mxGeometry width="30" height="30" as="geometry">
            <mxRectangle width="30" height="30" as="alternateBounds" />
          </mxGeometry>
        </mxCell>
        <mxCell id="3EObn2wX0_K3Knupwm0a-85" value="Nome" style="shape=partialRectangle;connectable=0;fillColor=none;top=0;left=0;bottom=0;right=0;align=left;spacingLeft=6;overflow=hidden;whiteSpace=wrap;html=1;" vertex="1" parent="3EObn2wX0_K3Knupwm0a-83">
          <mxGeometry x="30" width="150" height="30" as="geometry">
            <mxRectangle width="150" height="30" as="alternateBounds" />
          </mxGeometry>
        </mxCell>
        <mxCell id="3EObn2wX0_K3Knupwm0a-86" style="shape=tableRow;horizontal=0;startSize=0;swimlaneHead=0;swimlaneBody=0;fillColor=none;collapsible=0;dropTarget=0;points=[[0,0.5],[1,0.5]];portConstraint=eastwest;top=0;left=0;right=0;bottom=0;" vertex="1" parent="3EObn2wX0_K3Knupwm0a-76">
          <mxGeometry y="120" width="180" height="30" as="geometry" />
        </mxCell>
        <mxCell id="3EObn2wX0_K3Knupwm0a-87" style="shape=partialRectangle;connectable=0;fillColor=none;top=0;left=0;bottom=0;right=0;editable=1;overflow=hidden;whiteSpace=wrap;html=1;" vertex="1" parent="3EObn2wX0_K3Knupwm0a-86">
          <mxGeometry width="30" height="30" as="geometry">
            <mxRectangle width="30" height="30" as="alternateBounds" />
          </mxGeometry>
        </mxCell>
        <mxCell id="3EObn2wX0_K3Knupwm0a-88" value="Endereco" style="shape=partialRectangle;connectable=0;fillColor=none;top=0;left=0;bottom=0;right=0;align=left;spacingLeft=6;overflow=hidden;whiteSpace=wrap;html=1;" vertex="1" parent="3EObn2wX0_K3Knupwm0a-86">
          <mxGeometry x="30" width="150" height="30" as="geometry">
            <mxRectangle width="150" height="30" as="alternateBounds" />
          </mxGeometry>
        </mxCell>
        <mxCell id="3EObn2wX0_K3Knupwm0a-89" value="Usuario" style="shape=table;startSize=30;container=1;collapsible=1;childLayout=tableLayout;fixedRows=1;rowLines=0;fontStyle=1;align=center;resizeLast=1;html=1;whiteSpace=wrap;" vertex="1" parent="1">
          <mxGeometry x="577.5" y="614" width="180" height="180" as="geometry" />
        </mxCell>
        <mxCell id="3EObn2wX0_K3Knupwm0a-90" value="" style="shape=tableRow;horizontal=0;startSize=0;swimlaneHead=0;swimlaneBody=0;fillColor=none;collapsible=0;dropTarget=0;points=[[0,0.5],[1,0.5]];portConstraint=eastwest;top=0;left=0;right=0;bottom=0;html=1;" vertex="1" parent="3EObn2wX0_K3Knupwm0a-89">
          <mxGeometry y="30" width="180" height="30" as="geometry" />
        </mxCell>
        <mxCell id="3EObn2wX0_K3Knupwm0a-91" value="PK" style="shape=partialRectangle;connectable=0;fillColor=none;top=0;left=0;bottom=0;right=0;fontStyle=1;overflow=hidden;html=1;whiteSpace=wrap;" vertex="1" parent="3EObn2wX0_K3Knupwm0a-90">
          <mxGeometry width="60" height="30" as="geometry">
            <mxRectangle width="60" height="30" as="alternateBounds" />
          </mxGeometry>
        </mxCell>
        <mxCell id="3EObn2wX0_K3Knupwm0a-92" value="IdUsuario" style="shape=partialRectangle;connectable=0;fillColor=none;top=0;left=0;bottom=0;right=0;align=left;spacingLeft=6;fontStyle=5;overflow=hidden;html=1;whiteSpace=wrap;" vertex="1" parent="3EObn2wX0_K3Knupwm0a-90">
          <mxGeometry x="60" width="120" height="30" as="geometry">
            <mxRectangle width="120" height="30" as="alternateBounds" />
          </mxGeometry>
        </mxCell>
        <mxCell id="3EObn2wX0_K3Knupwm0a-93" value="" style="shape=tableRow;horizontal=0;startSize=0;swimlaneHead=0;swimlaneBody=0;fillColor=none;collapsible=0;dropTarget=0;points=[[0,0.5],[1,0.5]];portConstraint=eastwest;top=0;left=0;right=0;bottom=1;html=1;" vertex="1" parent="3EObn2wX0_K3Knupwm0a-89">
          <mxGeometry y="60" width="180" height="30" as="geometry" />
        </mxCell>
        <mxCell id="3EObn2wX0_K3Knupwm0a-94" value="FK" style="shape=partialRectangle;connectable=0;fillColor=none;top=0;left=0;bottom=0;right=0;fontStyle=1;overflow=hidden;html=1;whiteSpace=wrap;" vertex="1" parent="3EObn2wX0_K3Knupwm0a-93">
          <mxGeometry width="60" height="30" as="geometry">
            <mxRectangle width="60" height="30" as="alternateBounds" />
          </mxGeometry>
        </mxCell>
        <mxCell id="3EObn2wX0_K3Knupwm0a-95" value="IdTipoUsuario" style="shape=partialRectangle;connectable=0;fillColor=none;top=0;left=0;bottom=0;right=0;align=left;spacingLeft=6;fontStyle=5;overflow=hidden;html=1;whiteSpace=wrap;" vertex="1" parent="3EObn2wX0_K3Knupwm0a-93">
          <mxGeometry x="60" width="120" height="30" as="geometry">
            <mxRectangle width="120" height="30" as="alternateBounds" />
          </mxGeometry>
        </mxCell>
        <mxCell id="3EObn2wX0_K3Knupwm0a-96" value="" style="shape=tableRow;horizontal=0;startSize=0;swimlaneHead=0;swimlaneBody=0;fillColor=none;collapsible=0;dropTarget=0;points=[[0,0.5],[1,0.5]];portConstraint=eastwest;top=0;left=0;right=0;bottom=0;html=1;" vertex="1" parent="3EObn2wX0_K3Knupwm0a-89">
          <mxGeometry y="90" width="180" height="30" as="geometry" />
        </mxCell>
        <mxCell id="3EObn2wX0_K3Knupwm0a-97" value="" style="shape=partialRectangle;connectable=0;fillColor=none;top=0;left=0;bottom=0;right=0;editable=1;overflow=hidden;html=1;whiteSpace=wrap;" vertex="1" parent="3EObn2wX0_K3Knupwm0a-96">
          <mxGeometry width="60" height="30" as="geometry">
            <mxRectangle width="60" height="30" as="alternateBounds" />
          </mxGeometry>
        </mxCell>
        <mxCell id="3EObn2wX0_K3Knupwm0a-98" value="Nome" style="shape=partialRectangle;connectable=0;fillColor=none;top=0;left=0;bottom=0;right=0;align=left;spacingLeft=6;overflow=hidden;html=1;whiteSpace=wrap;" vertex="1" parent="3EObn2wX0_K3Knupwm0a-96">
          <mxGeometry x="60" width="120" height="30" as="geometry">
            <mxRectangle width="120" height="30" as="alternateBounds" />
          </mxGeometry>
        </mxCell>
        <mxCell id="3EObn2wX0_K3Knupwm0a-99" value="" style="shape=tableRow;horizontal=0;startSize=0;swimlaneHead=0;swimlaneBody=0;fillColor=none;collapsible=0;dropTarget=0;points=[[0,0.5],[1,0.5]];portConstraint=eastwest;top=0;left=0;right=0;bottom=0;html=1;" vertex="1" parent="3EObn2wX0_K3Knupwm0a-89">
          <mxGeometry y="120" width="180" height="30" as="geometry" />
        </mxCell>
        <mxCell id="3EObn2wX0_K3Knupwm0a-100" value="" style="shape=partialRectangle;connectable=0;fillColor=none;top=0;left=0;bottom=0;right=0;editable=1;overflow=hidden;html=1;whiteSpace=wrap;" vertex="1" parent="3EObn2wX0_K3Knupwm0a-99">
          <mxGeometry width="60" height="30" as="geometry">
            <mxRectangle width="60" height="30" as="alternateBounds" />
          </mxGeometry>
        </mxCell>
        <mxCell id="3EObn2wX0_K3Knupwm0a-101" value="Email" style="shape=partialRectangle;connectable=0;fillColor=none;top=0;left=0;bottom=0;right=0;align=left;spacingLeft=6;overflow=hidden;html=1;whiteSpace=wrap;" vertex="1" parent="3EObn2wX0_K3Knupwm0a-99">
          <mxGeometry x="60" width="120" height="30" as="geometry">
            <mxRectangle width="120" height="30" as="alternateBounds" />
          </mxGeometry>
        </mxCell>
        <mxCell id="3EObn2wX0_K3Knupwm0a-102" style="shape=tableRow;horizontal=0;startSize=0;swimlaneHead=0;swimlaneBody=0;fillColor=none;collapsible=0;dropTarget=0;points=[[0,0.5],[1,0.5]];portConstraint=eastwest;top=0;left=0;right=0;bottom=0;html=1;" vertex="1" parent="3EObn2wX0_K3Knupwm0a-89">
          <mxGeometry y="150" width="180" height="30" as="geometry" />
        </mxCell>
        <mxCell id="3EObn2wX0_K3Knupwm0a-103" style="shape=partialRectangle;connectable=0;fillColor=none;top=0;left=0;bottom=0;right=0;editable=1;overflow=hidden;html=1;whiteSpace=wrap;" vertex="1" parent="3EObn2wX0_K3Knupwm0a-102">
          <mxGeometry width="60" height="30" as="geometry">
            <mxRectangle width="60" height="30" as="alternateBounds" />
          </mxGeometry>
        </mxCell>
        <mxCell id="3EObn2wX0_K3Knupwm0a-104" value="Senha" style="shape=partialRectangle;connectable=0;fillColor=none;top=0;left=0;bottom=0;right=0;align=left;spacingLeft=6;overflow=hidden;html=1;whiteSpace=wrap;" vertex="1" parent="3EObn2wX0_K3Knupwm0a-102">
          <mxGeometry x="60" width="120" height="30" as="geometry">
            <mxRectangle width="120" height="30" as="alternateBounds" />
          </mxGeometry>
        </mxCell>
        <mxCell id="3EObn2wX0_K3Knupwm0a-107" value="" style="edgeStyle=entityRelationEdgeStyle;fontSize=12;html=1;endArrow=ERoneToMany;rounded=0;" edge="1" parent="1" target="3EObn2wX0_K3Knupwm0a-93">
          <mxGeometry width="100" height="100" relative="1" as="geometry">
            <mxPoint x="459" y="661" as="sourcePoint" />
            <mxPoint x="559" y="561" as="targetPoint" />
          </mxGeometry>
        </mxCell>
        <mxCell id="3EObn2wX0_K3Knupwm0a-108" value="PresecasEvento" style="shape=table;startSize=30;container=1;collapsible=1;childLayout=tableLayout;fixedRows=1;rowLines=0;fontStyle=1;align=center;resizeLast=1;html=1;whiteSpace=wrap;" vertex="1" parent="1">
          <mxGeometry x="859" y="614" width="180" height="150" as="geometry" />
        </mxCell>
        <mxCell id="3EObn2wX0_K3Knupwm0a-109" value="" style="shape=tableRow;horizontal=0;startSize=0;swimlaneHead=0;swimlaneBody=0;fillColor=none;collapsible=0;dropTarget=0;points=[[0,0.5],[1,0.5]];portConstraint=eastwest;top=0;left=0;right=0;bottom=0;html=1;" vertex="1" parent="3EObn2wX0_K3Knupwm0a-108">
          <mxGeometry y="30" width="180" height="30" as="geometry" />
        </mxCell>
        <mxCell id="3EObn2wX0_K3Knupwm0a-110" value="PK" style="shape=partialRectangle;connectable=0;fillColor=none;top=0;left=0;bottom=0;right=0;fontStyle=1;overflow=hidden;html=1;whiteSpace=wrap;" vertex="1" parent="3EObn2wX0_K3Knupwm0a-109">
          <mxGeometry width="60" height="30" as="geometry">
            <mxRectangle width="60" height="30" as="alternateBounds" />
          </mxGeometry>
        </mxCell>
        <mxCell id="3EObn2wX0_K3Knupwm0a-111" value="IdPresencasEvento" style="shape=partialRectangle;connectable=0;fillColor=none;top=0;left=0;bottom=0;right=0;align=left;spacingLeft=6;fontStyle=5;overflow=hidden;html=1;whiteSpace=wrap;" vertex="1" parent="3EObn2wX0_K3Knupwm0a-109">
          <mxGeometry x="60" width="120" height="30" as="geometry">
            <mxRectangle width="120" height="30" as="alternateBounds" />
          </mxGeometry>
        </mxCell>
        <mxCell id="3EObn2wX0_K3Knupwm0a-127" style="shape=tableRow;horizontal=0;startSize=0;swimlaneHead=0;swimlaneBody=0;fillColor=none;collapsible=0;dropTarget=0;points=[[0,0.5],[1,0.5]];portConstraint=eastwest;top=0;left=0;right=0;bottom=0;html=1;" vertex="1" parent="3EObn2wX0_K3Knupwm0a-108">
          <mxGeometry y="60" width="180" height="30" as="geometry" />
        </mxCell>
        <mxCell id="3EObn2wX0_K3Knupwm0a-128" value="FK" style="shape=partialRectangle;connectable=0;fillColor=none;top=0;left=0;bottom=0;right=0;fontStyle=1;overflow=hidden;html=1;whiteSpace=wrap;" vertex="1" parent="3EObn2wX0_K3Knupwm0a-127">
          <mxGeometry width="60" height="30" as="geometry">
            <mxRectangle width="60" height="30" as="alternateBounds" />
          </mxGeometry>
        </mxCell>
        <mxCell id="3EObn2wX0_K3Knupwm0a-129" value="IdUsuario" style="shape=partialRectangle;connectable=0;fillColor=none;top=0;left=0;bottom=0;right=0;align=left;spacingLeft=6;fontStyle=5;overflow=hidden;html=1;whiteSpace=wrap;" vertex="1" parent="3EObn2wX0_K3Knupwm0a-127">
          <mxGeometry x="60" width="120" height="30" as="geometry">
            <mxRectangle width="120" height="30" as="alternateBounds" />
          </mxGeometry>
        </mxCell>
        <mxCell id="3EObn2wX0_K3Knupwm0a-112" value="" style="shape=tableRow;horizontal=0;startSize=0;swimlaneHead=0;swimlaneBody=0;fillColor=none;collapsible=0;dropTarget=0;points=[[0,0.5],[1,0.5]];portConstraint=eastwest;top=0;left=0;right=0;bottom=1;html=1;" vertex="1" parent="3EObn2wX0_K3Knupwm0a-108">
          <mxGeometry y="90" width="180" height="30" as="geometry" />
        </mxCell>
        <mxCell id="3EObn2wX0_K3Knupwm0a-113" value="FK" style="shape=partialRectangle;connectable=0;fillColor=none;top=0;left=0;bottom=0;right=0;fontStyle=1;overflow=hidden;html=1;whiteSpace=wrap;" vertex="1" parent="3EObn2wX0_K3Knupwm0a-112">
          <mxGeometry width="60" height="30" as="geometry">
            <mxRectangle width="60" height="30" as="alternateBounds" />
          </mxGeometry>
        </mxCell>
        <mxCell id="3EObn2wX0_K3Knupwm0a-114" value="IdEvento" style="shape=partialRectangle;connectable=0;fillColor=none;top=0;left=0;bottom=0;right=0;align=left;spacingLeft=6;fontStyle=5;overflow=hidden;html=1;whiteSpace=wrap;" vertex="1" parent="3EObn2wX0_K3Knupwm0a-112">
          <mxGeometry x="60" width="120" height="30" as="geometry">
            <mxRectangle width="120" height="30" as="alternateBounds" />
          </mxGeometry>
        </mxCell>
        <mxCell id="3EObn2wX0_K3Knupwm0a-115" value="" style="shape=tableRow;horizontal=0;startSize=0;swimlaneHead=0;swimlaneBody=0;fillColor=none;collapsible=0;dropTarget=0;points=[[0,0.5],[1,0.5]];portConstraint=eastwest;top=0;left=0;right=0;bottom=0;html=1;" vertex="1" parent="3EObn2wX0_K3Knupwm0a-108">
          <mxGeometry y="120" width="180" height="30" as="geometry" />
        </mxCell>
        <mxCell id="3EObn2wX0_K3Knupwm0a-116" value="" style="shape=partialRectangle;connectable=0;fillColor=none;top=0;left=0;bottom=0;right=0;editable=1;overflow=hidden;html=1;whiteSpace=wrap;" vertex="1" parent="3EObn2wX0_K3Knupwm0a-115">
          <mxGeometry width="60" height="30" as="geometry">
            <mxRectangle width="60" height="30" as="alternateBounds" />
          </mxGeometry>
        </mxCell>
        <mxCell id="3EObn2wX0_K3Knupwm0a-117" value="Sutuacao" style="shape=partialRectangle;connectable=0;fillColor=none;top=0;left=0;bottom=0;right=0;align=left;spacingLeft=6;overflow=hidden;html=1;whiteSpace=wrap;" vertex="1" parent="3EObn2wX0_K3Knupwm0a-115">
          <mxGeometry x="60" width="120" height="30" as="geometry">
            <mxRectangle width="120" height="30" as="alternateBounds" />
          </mxGeometry>
        </mxCell>
        <mxCell id="3EObn2wX0_K3Knupwm0a-133" value="" style="edgeStyle=entityRelationEdgeStyle;fontSize=12;html=1;endArrow=ERoneToMany;rounded=0;entryX=0;entryY=0.5;entryDx=0;entryDy=0;" edge="1" parent="1" target="3EObn2wX0_K3Knupwm0a-127">
          <mxGeometry width="100" height="100" relative="1" as="geometry">
            <mxPoint x="759" y="659" as="sourcePoint" />
            <mxPoint x="859" y="559" as="targetPoint" />
          </mxGeometry>
        </mxCell>
        <mxCell id="3EObn2wX0_K3Knupwm0a-134" value="Evento" style="shape=table;startSize=28;container=1;collapsible=1;childLayout=tableLayout;fixedRows=1;rowLines=0;fontStyle=1;align=center;resizeLast=1;html=1;whiteSpace=wrap;" vertex="1" parent="1">
          <mxGeometry x="1150" y="614" width="180" height="210" as="geometry" />
        </mxCell>
        <mxCell id="3EObn2wX0_K3Knupwm0a-135" value="" style="shape=tableRow;horizontal=0;startSize=0;swimlaneHead=0;swimlaneBody=0;fillColor=none;collapsible=0;dropTarget=0;points=[[0,0.5],[1,0.5]];portConstraint=eastwest;top=0;left=0;right=0;bottom=0;html=1;" vertex="1" parent="3EObn2wX0_K3Knupwm0a-134">
          <mxGeometry y="28" width="180" height="30" as="geometry" />
        </mxCell>
        <mxCell id="3EObn2wX0_K3Knupwm0a-136" value="PK" style="shape=partialRectangle;connectable=0;fillColor=none;top=0;left=0;bottom=0;right=0;fontStyle=1;overflow=hidden;html=1;whiteSpace=wrap;" vertex="1" parent="3EObn2wX0_K3Knupwm0a-135">
          <mxGeometry width="60" height="30" as="geometry">
            <mxRectangle width="60" height="30" as="alternateBounds" />
          </mxGeometry>
        </mxCell>
        <mxCell id="3EObn2wX0_K3Knupwm0a-137" value="IdEvento" style="shape=partialRectangle;connectable=0;fillColor=none;top=0;left=0;bottom=0;right=0;align=left;spacingLeft=6;fontStyle=5;overflow=hidden;html=1;whiteSpace=wrap;" vertex="1" parent="3EObn2wX0_K3Knupwm0a-135">
          <mxGeometry x="60" width="120" height="30" as="geometry">
            <mxRectangle width="120" height="30" as="alternateBounds" />
          </mxGeometry>
        </mxCell>
        <mxCell id="3EObn2wX0_K3Knupwm0a-138" style="shape=tableRow;horizontal=0;startSize=0;swimlaneHead=0;swimlaneBody=0;fillColor=none;collapsible=0;dropTarget=0;points=[[0,0.5],[1,0.5]];portConstraint=eastwest;top=0;left=0;right=0;bottom=0;html=1;" vertex="1" parent="3EObn2wX0_K3Knupwm0a-134">
          <mxGeometry y="58" width="180" height="30" as="geometry" />
        </mxCell>
        <mxCell id="3EObn2wX0_K3Knupwm0a-139" value="FK" style="shape=partialRectangle;connectable=0;fillColor=none;top=0;left=0;bottom=0;right=0;fontStyle=1;overflow=hidden;html=1;whiteSpace=wrap;" vertex="1" parent="3EObn2wX0_K3Knupwm0a-138">
          <mxGeometry width="60" height="30" as="geometry">
            <mxRectangle width="60" height="30" as="alternateBounds" />
          </mxGeometry>
        </mxCell>
        <mxCell id="3EObn2wX0_K3Knupwm0a-140" value="IdInstituicao" style="shape=partialRectangle;connectable=0;fillColor=none;top=0;left=0;bottom=0;right=0;align=left;spacingLeft=6;fontStyle=5;overflow=hidden;html=1;whiteSpace=wrap;" vertex="1" parent="3EObn2wX0_K3Knupwm0a-138">
          <mxGeometry x="60" width="120" height="30" as="geometry">
            <mxRectangle width="120" height="30" as="alternateBounds" />
          </mxGeometry>
        </mxCell>
        <mxCell id="3EObn2wX0_K3Knupwm0a-141" value="" style="shape=tableRow;horizontal=0;startSize=0;swimlaneHead=0;swimlaneBody=0;fillColor=none;collapsible=0;dropTarget=0;points=[[0,0.5],[1,0.5]];portConstraint=eastwest;top=0;left=0;right=0;bottom=1;html=1;" vertex="1" parent="3EObn2wX0_K3Knupwm0a-134">
          <mxGeometry y="88" width="180" height="30" as="geometry" />
        </mxCell>
        <mxCell id="3EObn2wX0_K3Knupwm0a-142" value="FK" style="shape=partialRectangle;connectable=0;fillColor=none;top=0;left=0;bottom=0;right=0;fontStyle=1;overflow=hidden;html=1;whiteSpace=wrap;" vertex="1" parent="3EObn2wX0_K3Knupwm0a-141">
          <mxGeometry width="60" height="30" as="geometry">
            <mxRectangle width="60" height="30" as="alternateBounds" />
          </mxGeometry>
        </mxCell>
        <mxCell id="3EObn2wX0_K3Knupwm0a-143" value="TipoEvento" style="shape=partialRectangle;connectable=0;fillColor=none;top=0;left=0;bottom=0;right=0;align=left;spacingLeft=6;fontStyle=5;overflow=hidden;html=1;whiteSpace=wrap;" vertex="1" parent="3EObn2wX0_K3Knupwm0a-141">
          <mxGeometry x="60" width="120" height="30" as="geometry">
            <mxRectangle width="120" height="30" as="alternateBounds" />
          </mxGeometry>
        </mxCell>
        <mxCell id="3EObn2wX0_K3Knupwm0a-144" value="" style="shape=tableRow;horizontal=0;startSize=0;swimlaneHead=0;swimlaneBody=0;fillColor=none;collapsible=0;dropTarget=0;points=[[0,0.5],[1,0.5]];portConstraint=eastwest;top=0;left=0;right=0;bottom=0;html=1;" vertex="1" parent="3EObn2wX0_K3Knupwm0a-134">
          <mxGeometry y="118" width="180" height="30" as="geometry" />
        </mxCell>
        <mxCell id="3EObn2wX0_K3Knupwm0a-145" value="" style="shape=partialRectangle;connectable=0;fillColor=none;top=0;left=0;bottom=0;right=0;editable=1;overflow=hidden;html=1;whiteSpace=wrap;" vertex="1" parent="3EObn2wX0_K3Knupwm0a-144">
          <mxGeometry width="60" height="30" as="geometry">
            <mxRectangle width="60" height="30" as="alternateBounds" />
          </mxGeometry>
        </mxCell>
        <mxCell id="3EObn2wX0_K3Knupwm0a-146" value="Nome" style="shape=partialRectangle;connectable=0;fillColor=none;top=0;left=0;bottom=0;right=0;align=left;spacingLeft=6;overflow=hidden;html=1;whiteSpace=wrap;" vertex="1" parent="3EObn2wX0_K3Knupwm0a-144">
          <mxGeometry x="60" width="120" height="30" as="geometry">
            <mxRectangle width="120" height="30" as="alternateBounds" />
          </mxGeometry>
        </mxCell>
        <mxCell id="3EObn2wX0_K3Knupwm0a-147" style="shape=tableRow;horizontal=0;startSize=0;swimlaneHead=0;swimlaneBody=0;fillColor=none;collapsible=0;dropTarget=0;points=[[0,0.5],[1,0.5]];portConstraint=eastwest;top=0;left=0;right=0;bottom=0;html=1;" vertex="1" parent="3EObn2wX0_K3Knupwm0a-134">
          <mxGeometry y="148" width="180" height="30" as="geometry" />
        </mxCell>
        <mxCell id="3EObn2wX0_K3Knupwm0a-148" style="shape=partialRectangle;connectable=0;fillColor=none;top=0;left=0;bottom=0;right=0;editable=1;overflow=hidden;html=1;whiteSpace=wrap;" vertex="1" parent="3EObn2wX0_K3Knupwm0a-147">
          <mxGeometry width="60" height="30" as="geometry">
            <mxRectangle width="60" height="30" as="alternateBounds" />
          </mxGeometry>
        </mxCell>
        <mxCell id="3EObn2wX0_K3Knupwm0a-149" value="Descricao" style="shape=partialRectangle;connectable=0;fillColor=none;top=0;left=0;bottom=0;right=0;align=left;spacingLeft=6;overflow=hidden;html=1;whiteSpace=wrap;" vertex="1" parent="3EObn2wX0_K3Knupwm0a-147">
          <mxGeometry x="60" width="120" height="30" as="geometry">
            <mxRectangle width="120" height="30" as="alternateBounds" />
          </mxGeometry>
        </mxCell>
        <mxCell id="3EObn2wX0_K3Knupwm0a-153" style="shape=tableRow;horizontal=0;startSize=0;swimlaneHead=0;swimlaneBody=0;fillColor=none;collapsible=0;dropTarget=0;points=[[0,0.5],[1,0.5]];portConstraint=eastwest;top=0;left=0;right=0;bottom=0;html=1;" vertex="1" parent="3EObn2wX0_K3Knupwm0a-134">
          <mxGeometry y="178" width="180" height="30" as="geometry" />
        </mxCell>
        <mxCell id="3EObn2wX0_K3Knupwm0a-154" style="shape=partialRectangle;connectable=0;fillColor=none;top=0;left=0;bottom=0;right=0;editable=1;overflow=hidden;html=1;whiteSpace=wrap;" vertex="1" parent="3EObn2wX0_K3Knupwm0a-153">
          <mxGeometry width="60" height="30" as="geometry">
            <mxRectangle width="60" height="30" as="alternateBounds" />
          </mxGeometry>
        </mxCell>
        <mxCell id="3EObn2wX0_K3Knupwm0a-155" value="Data" style="shape=partialRectangle;connectable=0;fillColor=none;top=0;left=0;bottom=0;right=0;align=left;spacingLeft=6;overflow=hidden;html=1;whiteSpace=wrap;" vertex="1" parent="3EObn2wX0_K3Knupwm0a-153">
          <mxGeometry x="60" width="120" height="30" as="geometry">
            <mxRectangle width="120" height="30" as="alternateBounds" />
          </mxGeometry>
        </mxCell>
        <mxCell id="3EObn2wX0_K3Knupwm0a-156" value="" style="edgeStyle=entityRelationEdgeStyle;fontSize=12;html=1;endArrow=ERoneToMany;rounded=0;exitX=0;exitY=0.5;exitDx=0;exitDy=0;entryX=1;entryY=0.5;entryDx=0;entryDy=0;" edge="1" parent="1" source="3EObn2wX0_K3Knupwm0a-135" target="3EObn2wX0_K3Knupwm0a-112">
          <mxGeometry width="100" height="100" relative="1" as="geometry">
            <mxPoint x="1079" y="626" as="sourcePoint" />
            <mxPoint x="1179" y="526" as="targetPoint" />
          </mxGeometry>
        </mxCell>
      </root>
    </mxGraphModel>
  </diagram>
</mxfile>
